<?xml version="1.0" encoding="utf-8"?>
<!-- Generator: Adobe Illustrator 16.0.0, SVG Export Plug-In . SVG Version: 6.00 Build 0)  -->
<!DOCTYPE svg PUBLIC "-//W3C//DTD SVG 1.1//EN" "http://www.w3.org/Graphics/SVG/1.1/DTD/svg11.dtd">
<svg version="1.1" id="Layer_1" xmlns="http://www.w3.org/2000/svg" xmlns:xlink="http://www.w3.org/1999/xlink" x="0px" y="0px"
	 width="56.406px" height="74.849px" viewBox="0 0 56.406 74.849" enable-background="new 0 0 56.406 74.849" xml:space="preserve">
<g>
	<g>
		<defs>
			<path id="SVGID_1_" d="M24.472,24.038c0.158-1.501,1.346-6.313,5.434-11.052c2.188-2.536,8.467-0.597,11.508,5.038
				c2.803,5.192,9.729,6.296,9.393,6.776c-0.338,0.479-8.68,3.122-15.174-2.976c-3.414-3.206-5.123,4.841-7.225,4.262
				C26.308,25.505,24.472,24.038,24.472,24.038z"/>
		</defs>
		<use xlink:href="#SVGID_1_"  overflow="visible" fill="#FEE865"/>
		<clipPath id="SVGID_2_">
			<use xlink:href="#SVGID_1_"  overflow="visible"/>
		</clipPath>
		<g clip-path="url(#SVGID_2_)">
			<path opacity="0.46" fill="#FEC60C" d="M29.776,21.852c0.496-0.801,0.673-1.601,1.421-2.256c0.983-0.861,2.118-1.197,3.349-1.569
				c2.605-0.789,5.86,2.899,7.652,4.489c1.929,1.709,5.69,2.232,8.285,2.476c2.225,0.209,1.75-1.103,3.595,0.376
				c0.702,0.563,0.892,1.287,0.681,2.143c-1.266,5.152-8.299,4.254-12.035,2.958c-2.971-1.031-5.103-3.253-7.097-5.569
				c-0.723-0.84-0.919-1.042-2.001-1.014c-0.605,0.015-1.137-0.122-1.723-0.255c-0.156-0.042-0.313-0.084-0.469-0.126
				c-0.437-0.196-0.539-0.206-0.309-0.03C30.097,23.949,29.222,22.749,29.776,21.852L29.776,21.852z"/>
		</g>
	</g>
	<g>
		<defs>
			<path id="SVGID_3_" d="M31.155,20.133c-0.237-1.601-4.632-10.238-14.617-15.474C11.497,2.016,5.174,1.527,4.03,3.411
				c-1.145,1.884,0.9,2.732,5.499,7.596c6.63,7.013,8.827,11.154,9.661,20.034C19.372,32.986,32.901,31.928,31.155,20.133z"/>
		</defs>
		<use xlink:href="#SVGID_3_"  overflow="visible" fill="#FDF6B0"/>
		<clipPath id="SVGID_4_">
			<use xlink:href="#SVGID_3_"  overflow="visible"/>
		</clipPath>
		<g opacity="0.34" clip-path="url(#SVGID_4_)">
			<path fill="#FDF6B0" d="M0.531,2.076c2.089,0.279,2.17,0.208,4.069,1.288c2.162,1.229,6.502,3.719,8.037,5.645
				c2.848,3.573,6.076,7.37,8.49,11.247c2.305,3.703,2.432,7.636,3.18,11.929c0.653,3.743,0.93,10.388-3.338,12.146
				c-1.085,0.447-2.152-0.002-2.705-1.005c-1.561-2.832-0.137-6.845-0.568-9.986c-0.498-3.608-2.041-6.972-3.783-10.134
				c-1.845-3.346-4-6.504-5.875-9.835c-1.024-1.82-2.146-3.601-3.4-5.271C3.526,6.622,1.972,4.316,0.194,3.634
				C-0.639,3.315-0.396,1.952,0.531,2.076L0.531,2.076z"/>
		</g>
		<g opacity="0.34" clip-path="url(#SVGID_4_)">
			<path fill="#FDF6B0" d="M-0.847,3.526c2.09,0.279,2.17,0.208,4.07,1.288c2.162,1.23,6.502,3.719,8.037,5.645
				c2.848,3.573,6.076,7.37,8.49,11.248c2.305,3.703,2.432,7.635,3.18,11.929c0.652,3.744,0.93,10.388-3.338,12.146
				c-1.085,0.448-2.152-0.001-2.705-1.005c-1.561-2.831-0.137-6.845-0.569-9.985c-0.497-3.608-2.04-6.972-3.782-10.134
				c-1.845-3.347-4-6.505-5.875-9.836c-1.024-1.82-2.146-3.6-3.4-5.27C2.149,8.072,0.594,5.767-1.184,5.085
				C-2.016,4.766-1.772,3.403-0.847,3.526L-0.847,3.526z"/>
		</g>
		<g opacity="0.34" clip-path="url(#SVGID_4_)">
			<path fill="#FDF6B0" d="M6.927-0.197c3.435,0.198,6.195,0.839,9.393,2.138c3.88,1.576,7.383,4.209,10.217,7.254
				c2.816,3.025,5.092,7.062,6.978,10.71c1.658,3.207,3.776,6.544,2.918,10.238c-0.433,1.86-3.206,2.649-4.627,1.469
				c-2.225-1.848-3.706-4.332-4.867-6.966c-1.436-3.257-3.376-6.332-5.265-9.342c-1.965-3.135-5.084-6.658-8.102-8.774
				c-1.309-0.917-7.414-3.974-8.963-4.325C2.96,1.831,5.359-0.287,6.927-0.197L6.927-0.197z"/>
		</g>
		<g opacity="0.34" clip-path="url(#SVGID_4_)">
			<path fill="#FDF6B0" d="M8.901-2.751c3.434,0.198,6.193,0.839,9.392,2.138c3.88,1.576,7.382,4.208,10.217,7.254
				c2.815,3.025,5.091,7.062,6.978,10.71c1.658,3.207,3.776,6.544,2.918,10.238c-0.434,1.86-3.207,2.649-4.627,1.469
				c-2.225-1.848-3.707-4.332-4.867-6.966c-1.436-3.257-3.377-6.332-5.265-9.342c-1.966-3.135-4.397-5.548-7.415-7.665
				c-1.309-0.918-7.873-4.387-9.423-4.738C5.16-0.027,7.333-2.841,8.901-2.751L8.901-2.751z"/>
		</g>
	</g>
	<g>
		<defs>
			<path id="SVGID_5_" d="M36.288,16.395c-0.29,1.832-5.584,10.321-10.044,13.1c-4.46,2.779-8.7,1.27-12.641,0.221
				c-3.382-0.9-0.281-2.045,0.362,1.631C14.608,35.021,2.764,60.557,2.38,67.99c-0.385,7.432,15.68,17.46,20.382,13.061
				S44.527,53.886,45.71,50.417c1.182-3.468-3.649-23.878-3.649-23.878L36.288,16.395z"/>
		</defs>
		<clipPath id="SVGID_6_">
			<use xlink:href="#SVGID_5_"  overflow="visible"/>
		</clipPath>
		<g clip-path="url(#SVGID_6_)">
			<g>
				<defs>
					<path id="SVGID_7_" d="M3.128,1.259C1.765,1.647,0.843,3.187,1.146,4.572c0.241,1.106,1.107,1.95,1.915,2.745
						c5.069,4.991,9.359,10.772,12.667,17.071c1.193,2.273,2.264,4.625,2.951,7.098c2.493,8.974-0.251,18.476-2.979,27.382
						c-0.485,1.582-1.16,3.371-2.72,3.922c-0.497,0.176-1.041,0.201-1.523,0.412c-0.711,0.31-1.194,0.971-1.644,1.604
						c-0.751,1.059-1.502,2.116-2.253,3.174c-0.193,0.273-0.395,0.566-0.406,0.9c-0.009,0.24,0.083,0.473,0.187,0.689
						c0.613,1.285,1.715,2.328,3.03,2.871c1.816-0.962,3.801-1.998,4.537-3.917c0.188-0.489,0.283-1.01,0.464-1.502
						c0.71-1.938,2.604-3.188,4.519-3.96s3.971-1.212,5.764-2.233c1.547-0.88,2.833-2.161,3.928-3.564
						c4.872-6.242,5.973-14.712,5.176-22.589c-1.156-11.427-5.975-21.79-14.883-29.039c-2.023-1.646-4.918-3.451-7.469-3.998
						C9.288,0.968,6.195,0.387,3.128,1.259z"/>
				</defs>
				<use xlink:href="#SVGID_7_"  overflow="visible" fill="#FEC60C"/>
				<clipPath id="SVGID_8_">
					<use xlink:href="#SVGID_7_"  overflow="visible"/>
				</clipPath>
				<g opacity="0.66" clip-path="url(#SVGID_8_)">
					<g>
						<path fill="#FDE15D" d="M-0.968,2.858c2.17-1.289,5.102,0.768,6.742,2.209c1.959,1.722,3.658,3.852,5.236,5.918
							c3.791,4.961,6.85,10.421,8.875,16.336c1.871,5.463,2.722,11.478,1.877,17.219c-0.437,2.974-1.233,5.852-2.088,8.728
							c-0.81,2.728-1.794,5.412-3.658,7.606c-0.945,1.111-2.063,2.216-3.209,3.098c-0.86,0.663-1.564,1.11-1.873,1.793
							c-1.162,2.568-3.792,5.635-6.525,7.039c-2.881,1.479-3.504-2.315-1.284-4.625c0.51-0.53,0.94-1.123,1.145-1.553
							c0.421-0.886,0.699-1.84,1.087-2.74c0.512-1.186,1.068-2.242,1.916-3.223c0.855-0.988,1.937-1.68,2.975-2.46
							c1.66-1.247,2.54-2.853,3.204-4.788c0.831-2.425,1.54-4.932,2.101-7.433c2.336-10.443-1.979-20.5-7.436-29.186
							c-1.516-2.413-3.078-4.826-4.752-7.132c-0.721-0.994-1.495-1.956-2.348-2.84C0.174,5.951-0.851,5.388-1.39,4.303
							C-1.653,3.774-1.479,3.162-0.968,2.858L-0.968,2.858z"/>
					</g>
				</g>
				<g clip-path="url(#SVGID_8_)">
					<g>
						<path fill="#F1B71C" d="M0.16-1.291c1.514-0.736,3.293-0.606,4.94-0.442c1.743,0.174,3.49,0.486,5.159,1.018
							c3.396,1.082,6.813,2.556,9.79,4.533c6.207,4.123,9.261,12.209,11.197,19.091c2.033,7.227,2.688,14.934,1.852,22.396
							c-0.729,6.497-2.303,14.317-7.771,18.591c-0.759,0.594-1.549,1.156-2.413,1.588c-0.721,0.36-1.675,0.578-2.305,1.088
							c-0.479,0.387-0.716,1.249-1.04,1.883c-0.459,0.901-1.061,1.702-1.711,2.475c-1.227,1.457-2.761,2.619-4.355,3.646
							c-1.962,1.266-3.711,2.146-6.086,1.68c-1.469-0.289-1.669-2.014-1.168-3.104c0.777-1.694,2.24-2.419,3.764-3.341
							c1.201-0.728,2.336-1.541,3.286-2.589c0.848-0.935,1.278-2.069,1.887-3.171c0.905-1.643,2.353-2.594,4.017-3.333
							c2.596-1.153,4.119-2.772,5.412-5.355c1.156-2.311,1.813-5.083,2.254-7.682c1.123-6.618,0.924-13.481-0.486-20.036
							c-0.709-3.296-1.289-5.518-2.623-8.616c-1.218-2.824-3.308-6.475-5.373-8.793c-2.267-2.542-5.277-4.572-8.277-6.097
							C8.548,3.348,6.931,2.624,5.3,1.99c-1.697-0.659-3.657-0.978-5.174-1.98C-0.324-0.289-0.367-1.034,0.16-1.291L0.16-1.291z"/>
					</g>
				</g>
				<g clip-path="url(#SVGID_8_)">
					<path fill="#E4AA24" d="M8.938-6.365c1.205-0.083,2.246,0.362,3.385,0.671c1.488,0.404,2.943,1.272,4.27,2.035
						c2.514,1.445,4.847,3.191,6.957,5.18c4.621,4.353,7.205,10.23,9.334,16.1c4.03,11.112,5.627,23.626,1.713,35.008
						c-0.98,2.85-2.275,5.634-3.902,8.174c-0.801,1.252-1.686,2.525-2.731,3.586c-0.575,0.582-1.319,1.135-2.038,1.512
						c-0.675,0.354-1.4,0.442-2.088,0.727c-1.407,0.58-6.244,0.581-5.523-0.825c0.506-0.99,3.323-1.788,3.908-2.783
						c0.632-1.075,2.42-1.924,4.096-4.856c1.125-1.969,2.393-4.311,3.218-6.424c1.809-4.628,1.955-9.188,1.903-14.146
						c-0.061-5.704-1.229-10.544-3.004-15.947c-1.693-5.15-4.398-10.751-7.826-14.999c-1.848-2.29-4.059-4.266-6.307-6.153
						c-1.166-0.979-2.413-1.897-3.48-2.987C9.929-3.407,8.915-4.319,8.409-5.509C8.227-5.938,8.477-6.333,8.938-6.365L8.938-6.365z"
						/>
				</g>
			</g>
			<g opacity="0.6">
				<path fill="#FFFFFF" d="M6.642,5.317c0.744,0.215,1.273,0.219,1.986,0.597c0.68,0.362,1.33,0.71,1.963,1.152
					c1.273,0.89,2.545,1.825,3.652,2.918c2.251,2.221,4.204,4.712,5.828,7.426c1.739,2.904,3.143,6.009,3.852,9.332
					c0.363,1.705,0.539,3.469,0.486,5.211c-0.027,0.87-0.06,1.827-0.287,2.67c-0.22,0.815-0.676,1.537-1.053,2.278
					c-0.328,0.646-1.207,0.472-1.54-0.041c-0.892-1.371-1.438-2.605-1.812-4.211c-0.36-1.554-0.617-3.129-0.968-4.687
					c-0.656-2.916-1.914-5.626-3.388-8.213c-1.348-2.363-2.834-4.685-4.504-6.833c-0.866-1.112-1.655-2.278-2.543-3.375
					c-0.437-0.54-0.831-1.104-1.254-1.656c-0.48-0.63-0.627-1.171-1.016-1.837C5.816,5.657,6.226,5.197,6.642,5.317L6.642,5.317z"/>
			</g>
			<g opacity="0.42">
				<path fill="#FFFFFF" d="M23.601,40.699c1.741,1.451,1.268,4.422,0.974,6.398c-0.331,2.229-0.706,5.342-2.493,6.906
					c-0.991,0.867-2.706,0.499-2.992-0.891c-0.418-2.021,0.576-4.142,1.092-6.07c0.252-0.943,0.512-1.891,0.799-2.824
					c0.281-0.914,0.835-1.912,0.886-2.863C21.915,40.42,22.958,40.164,23.601,40.699L23.601,40.699z"/>
			</g>
			<g>
				<defs>
					<path id="SVGID_9_" d="M3.128,1.259C1.765,1.647,0.843,3.187,1.146,4.572c0.241,1.106,1.107,1.95,1.915,2.745
						c5.069,4.991,9.359,10.772,12.667,17.071c1.193,2.273,2.264,4.625,2.951,7.098c2.493,8.974-0.251,18.476-2.979,27.382
						c-0.485,1.582-1.16,3.371-2.72,3.922c-0.497,0.176-1.041,0.201-1.523,0.412c-0.711,0.31-1.194,0.971-1.644,1.604
						c-0.751,1.059-1.502,2.116-2.253,3.174c-0.193,0.273-0.395,0.566-0.406,0.9c-0.009,0.24,0.083,0.473,0.187,0.689
						c0.613,1.285,1.715,2.328,3.03,2.871c1.816-0.962,3.801-1.998,4.537-3.917c0.188-0.489,0.283-1.01,0.464-1.502
						c0.71-1.938,2.604-3.188,4.519-3.96s3.971-1.212,5.764-2.233c1.547-0.88,2.833-2.161,3.928-3.564
						c4.872-6.242,5.973-14.712,5.176-22.589c-1.156-11.427-5.975-21.79-14.883-29.039c-2.023-1.646-4.918-3.451-7.469-3.998
						C9.288,0.968,6.195,0.387,3.128,1.259z"/>
				</defs>
				<clipPath id="SVGID_10_">
					<use xlink:href="#SVGID_9_"  overflow="visible"/>
				</clipPath>
				<path clip-path="url(#SVGID_10_)" fill="#743C2B" d="M13.308,73.209c0.563-1.929,0.066-4.65-1.653-5.861
					c-1.394-0.982-3.203-0.984-4.647-0.099c-0.414,0.255-0.799,0.563-1.113,0.913c-0.309,0.219-0.596,0.465-0.852,0.729
					c-1.522,1.559-2.244,3.774-1.012,5.75c1.1,1.76,3.361,2.439,5.336,2.08C11.236,76.381,12.771,75.043,13.308,73.209z"/>
				<path opacity="0.43" clip-path="url(#SVGID_10_)" fill="#743C2B" d="M9.882,72.664c0.563-1.928,0.066-4.649-1.653-5.861
					c-1.394-0.981-3.203-0.984-4.647-0.098c-0.414,0.254-0.799,0.563-1.113,0.913c-0.309,0.22-0.596,0.466-0.852,0.728
					c-1.522,1.559-2.244,3.775-1.012,5.75c1.1,1.761,3.361,2.439,5.336,2.081C7.811,75.836,9.345,74.5,9.882,72.664z"/>
				<g clip-path="url(#SVGID_10_)">
					<g>
						<path fill="#743C2B" d="M3.54,1.159c0.271-0.426,0.301-0.431,0.089-0.016C3.57,1.276,3.511,1.409,3.449,1.54
							C3.294,1.855,3.181,2.152,3.05,2.479C2.739,3.248,2.343,3.996,2,4.75C1.536,5.772,0.911,6.816-0.284,7.021
							c-1.331,0.228-2.381-0.826-2.393-2.138c-0.016-1.839,1.412-4.076,2.947-5.032c1.102-0.687,3.165-1.296,3.668,0.412
							C4.044,0.619,3.831,0.975,3.54,1.159L3.54,1.159z"/>
					</g>
				</g>
				<g opacity="0.53" clip-path="url(#SVGID_10_)">
					<g>
						<path fill="#743C2B" d="M1.997,4.652c0.271-0.426,0.301-0.431,0.089-0.016c-0.059,0.133-0.118,0.265-0.18,0.396
							C1.751,5.348,1.638,5.645,1.507,5.972C1.197,6.74,0.8,7.488,0.458,8.243c-0.465,1.022-1.09,2.066-2.285,2.271
							c-1.331,0.228-2.381-0.827-2.393-2.138C-4.235,6.537-2.808,4.3-1.272,3.344c1.102-0.687,3.165-1.296,3.669,0.411
							C2.501,4.111,2.288,4.467,1.997,4.652L1.997,4.652z"/>
					</g>
				</g>
				<path opacity="0.48" clip-path="url(#SVGID_10_)" fill="#FEC60C" d="M12.595,71.178c-1.248-0.363-1.854-1.516-1.758-2.668
					c-0.346-0.19-0.68-0.397-0.996-0.622c-0.91-0.646-1.441-1.685-1.379-2.735c-0.124-0.121-0.242-0.242-0.35-0.365
					c-1.934-2.215,0.098-5.619,2.977-4.848c0.5-1.146,1.678-1.991,3.061-1.457c1.265-0.492,3.004,0.04,4.131,0.592
					c1.973,0.968,3.275,3.049,3.784,5.129c0.56,2.288-1.813,3.617-3.623,2.816c-0.149,0.87-0.671,1.577-1.39,2.045
					C16.394,70.727,14.482,71.727,12.595,71.178z"/>
			</g>
		</g>
	</g>
	<path fill="#FFF48B" d="M31.495,21.178c1.016-1.228,6.469-0.92,9.33,4.314c2.861,5.234,3.482,7.282,6.615,8.944
		c3.131,1.662,8.555,4.396,8.133,4.996c-0.42,0.6-10.916,0.752-14.9-0.972s-6.439-6.134-9.596-6.74
		c-3.158-0.605-7.462-0.862-7.462-0.862s1.655-2.858,4.792-4.774C31.545,24.168,30.038,22.939,31.495,21.178z"/>
	<path fill="#FFF48B" d="M23.891,30.43c0,0,0.509,3.667-2.015,6.705c-4.482,5.396-0.145,12.426,0.14,14.374
		c0.181,1.239-10.173-6.429-8.443-17.465c0.667-4.257,4.232-9.917,4.742-8.666c0.199,0.49-0.101,1.001,0.993,2.824
		C21.183,31.324,23.891,30.43,23.891,30.43z"/>
	<g>
		<defs>
			<path id="SVGID_11_" d="M31.495,21.178c1.016-1.228,6.469-0.92,9.33,4.314c2.861,5.234,3.482,7.282,6.615,8.944
				c3.131,1.662,8.555,4.396,8.133,4.996c-0.42,0.6-10.916,0.752-14.9-0.972s-6.439-6.134-9.596-6.74
				c-3.158-0.605-7.462-0.862-7.462-0.862s1.655-2.858,4.792-4.774C31.545,24.168,30.038,22.939,31.495,21.178z"/>
		</defs>
		<clipPath id="SVGID_12_">
			<use xlink:href="#SVGID_11_"  overflow="visible"/>
		</clipPath>
		<g clip-path="url(#SVGID_12_)">
			<path fill="#FCD20B" d="M23.26,31.247c1.534-2.188,4.769-1.616,6.835-0.932c3.244,1.075,5.289,3.213,7.778,5.374
				c2.526,2.193,6.265,4.169,10.177,4.639c1.248,0.15,6.522-0.064,7.938-0.335c2.151-0.413,2.852-0.672,1.559,1.1
				c-1.947,2.671-5.759,2.807-8.782,3.014c-3.584,0.248-6.544,0.035-9.731-1.77c-3.483-1.973-5.277-5.699-8.537-7.823
				c-1.752-1.142-3.75-1.431-5.597-2.335C24.238,31.854,23.26,31.247,23.26,31.247z"/>
		</g>
	</g>
	<g>
		<defs>
			<path id="SVGID_13_" d="M23.891,30.43c0,0,0.509,3.667-2.015,6.705c-4.482,5.396-0.145,12.426,0.14,14.374
				c0.181,1.239-10.173-6.429-8.443-17.465c0.667-4.257,4.232-9.917,4.742-8.666c0.199,0.49-0.101,1.001,0.993,2.824
				C21.183,31.324,23.891,30.43,23.891,30.43z"/>
		</defs>
		<clipPath id="SVGID_14_">
			<use xlink:href="#SVGID_13_"  overflow="visible"/>
		</clipPath>
		<g clip-path="url(#SVGID_14_)">
			<path fill="#FFE631" d="M22.95,52.345c-3.701-2.211-4.506-5.729-4.073-9.757c0.226-2.097,1.464-4.495,2.411-6.367
				c0.783-1.544,1.631-3.123,1.313-4.938c-0.789-4.491,6.639-4.227,5.809-0.261c-0.773,3.696-3.613,6.601-4.857,10.145
				c-0.668,1.901-0.882,4.05-0.484,6.019c0.384,1.898,1.754,3.258,1.48,5.288c-0.124,0.921-1.068,1.328-1.846,0.863L22.95,52.345z"
				/>
		</g>
	</g>
	<g opacity="0.2">
		<path fill="#FEE951" d="M48.024,37.782c-3.586,0.757-6.078-0.485-8.713-3.013c-1.041-0.998-1.93-2.099-3.004-3.056
			c-0.537-0.479-0.998-1.015-1.552-1.472c-0.183-0.145-0.374-0.278-0.573-0.399c-0.531-0.157-0.604-0.191-0.216-0.102
			c-4.065,0.49-5.148-5.856-1.093-6.247c3.6-0.347,6.326,2.114,7.79,5.247c1.435,3.07,4.171,6.44,7.476,7.691
			C48.808,36.684,48.71,37.637,48.024,37.782L48.024,37.782z"/>
	</g>
	<g opacity="0.12">
		<path fill="#FDF6B0" d="M16.87,44.443c-1.727-3.031-2.291-5.775-2.511-9.25c-0.146-2.32-0.063-5.94,2.431-7.054
			c0.973-0.434,2.229,0.815,1.426,1.713c-3.209,3.588-1.332,10.188-1.111,14.518C17.112,44.511,16.942,44.57,16.87,44.443
			L16.87,44.443z"/>
	</g>
	<g opacity="0.2">
		<path fill="#FEE951" d="M17.753,38.523c-0.528-1.314-0.877-2.607-0.752-4.032c0.094-1.064,0.523-2.988,1.818-3.065
			c0.297-0.018,0.559,0.125,0.62,0.436c0.187,0.943-0.659,1.728-0.959,2.593c-0.42,1.212-0.428,2.686-0.337,3.947
			C18.159,38.621,17.847,38.756,17.753,38.523L17.753,38.523z"/>
	</g>
	<g opacity="0.2">
		<path fill="#FEDF2A" d="M44.24,23.986c-2.733-0.68-4.761-1.727-7.044-3.32c-0.664-0.463-1.332-0.916-1.99-1.387
			c-0.317-0.227-0.646-0.43-1.002-0.591c-0.523-0.238-0.589-0.032-0.252-0.159c-3.604,1.349-5.285-3.968-1.568-5.048
			c2.293-0.667,4.353,1.008,5.842,2.536c0.689,0.706,1.176,1.554,1.685,2.392c1.063,1.749,2.964,3.456,4.761,4.375
			C45.399,23.155,45.052,24.188,44.24,23.986L44.24,23.986z"/>
	</g>
	<g opacity="0.12">
		<path fill="#FDF6B0" d="M9.907,4.939c1.882,0.458,3.749,1.979,5.3,3.105c1.927,1.398,3.663,2.983,5.183,4.815
			c2.494,3.006,6.401,9.081,4.046,12.944c-0.948,1.555-3.019,1.276-4.13,0.16c-1.318-1.322-1.296-3.527-1.955-5.228
			c-0.67-1.724-1.674-3.252-2.802-4.705c-1.162-1.496-2.444-2.93-3.767-4.286c-1.248-1.278-2.955-2.376-3.954-3.845
			C6.747,6.311,8.069,4.492,9.907,4.939L9.907,4.939z"/>
	</g>
</g>
</svg>
