<?xml version="1.0" encoding="utf-8"?>
<!-- Generator: Adobe Illustrator 16.0.0, SVG Export Plug-In . SVG Version: 6.00 Build 0)  -->
<!DOCTYPE svg PUBLIC "-//W3C//DTD SVG 1.1//EN" "http://www.w3.org/Graphics/SVG/1.1/DTD/svg11.dtd">
<svg version="1.1" id="Layer_1" xmlns="http://www.w3.org/2000/svg" xmlns:xlink="http://www.w3.org/1999/xlink" x="0px" y="0px"
	 width="46.098px" height="48.466px" viewBox="0 0 46.098 48.466" enable-background="new 0 0 46.098 48.466" xml:space="preserve">
<g>
	<g>
		<path fill="#4B6E33" d="M16.306,30.12c0.226-1.487,0.79-2.895,1.348-4.209c0.627-1.475,1.333-3.035,2.254-4.44
			c1.454-2.218,3.412-4.036,5.305-5.794c1.098-1.018,2.23-2.071,3.423-3.025c3.133-2.507,6.929-4.582,11.945-6.53l1.8-0.699
			l-1.519,1.191c-6.134,4.812-9.642,12.635-9.158,20.415c0.052,0.83,0.148,1.673,0.241,2.49c0.143,1.242,0.288,2.527,0.284,3.807
			l-0.573-0.002c0.004-1.246-0.142-2.514-0.28-3.74c-0.095-0.823-0.192-1.675-0.245-2.519c-0.457-7.371,2.585-14.779,8.017-19.748
			c-4.161,1.736-7.418,3.594-10.153,5.783c-1.175,0.941-2.302,1.986-3.391,2.997c-1.868,1.735-3.8,3.529-5.216,5.689
			c-0.896,1.368-1.59,2.899-2.205,4.35c-0.544,1.281-1.093,2.65-1.31,4.072L16.306,30.12z"/>
	</g>
	<path fill="#85A14F" d="M39.648,6.672c-2.679-2.153-5.498-4.373-8.865-5.059c-1.141-0.232-2.309-0.279-3.472-0.315
		c-2.063-0.063-4.174-0.084-6.13,0.572c-1.393,0.466-2.653,1.26-3.822,2.148c-2.835,2.152-5.213,4.904-6.933,8.021
		c-0.671,1.217-1.246,2.495-2.091,3.599c-1.049,1.373-2.5,2.435-4.125,3.021c0.285,0.376,0.917,0.244,1.368,0.384
		c5.315,1.653,11.057,1.913,16.498,0.748c1.492-0.319,2.971-0.747,4.339-1.422c2.456-1.213,4.455-3.167,6.366-5.129
		c1.38-1.417,2.739-2.857,4.074-4.317C37.633,8.075,38.566,7.058,39.648,6.672z"/>
	<path fill="#A51D34" d="M8.527,22.673c-2.604,0.756-4.616,2.947-5.696,5.434c-1.618,3.721-1.302,8.224,0.822,11.682
		c0.249,0.406,0.528,0.806,0.903,1.1c0.35,0.273,0.768,0.442,1.181,0.606c1.002,0.397,2.018,0.784,3.08,0.972
		c2.176,0.383,4.452-0.111,6.412-1.133c1.959-1.021,3.622-2.545,5.033-4.246c1.215-1.463,2.307-3.24,2.117-5.133
		c-0.188-1.879-1.627-3.433-3.281-4.342c-1.049-0.576-2.028-1.062-2.896-1.907c-0.607-0.593-1.114-1.291-1.765-1.841
		C12.843,22.514,10.521,22.094,8.527,22.673z"/>
	<path fill="#B01E3C" d="M24.176,32.845c-0.854,0.836-1.176,2.072-1.313,3.258c-0.328,2.859,0.259,5.863,1.889,8.234
		c1.631,2.371,4.35,4.033,7.225,4.125c1.135,0.036,2.296-0.172,3.281-0.736c1.183-0.679,2.801-1.564,3.582-2.684
		c1.499-2.146,2.153-4.693,2.557-7.279c0.466-2.99-0.779-6.422-3.847-7.435c-2.776-0.915-5.124,0.05-7.79,0.656
		C27.955,31.395,25.574,31.474,24.176,32.845z"/>
	<g>
		<defs>
			<path id="SVGID_1_" d="M8.527,22.673c-2.604,0.756-4.616,2.947-5.696,5.434c-1.618,3.721-1.302,8.224,0.822,11.682
				c0.249,0.406,0.528,0.806,0.903,1.1c0.35,0.273,0.768,0.442,1.181,0.606c1.002,0.397,2.018,0.784,3.08,0.972
				c2.176,0.383,4.452-0.111,6.412-1.133c1.959-1.021,3.622-2.545,5.033-4.246c1.215-1.463,2.307-3.24,2.117-5.133
				c-0.188-1.879-1.627-3.433-3.281-4.342c-1.049-0.576-2.028-1.062-2.896-1.907c-0.607-0.593-1.114-1.291-1.765-1.841
				C12.843,22.514,10.521,22.094,8.527,22.673z"/>
		</defs>
		<clipPath id="SVGID_2_">
			<use xlink:href="#SVGID_1_"  overflow="visible"/>
		</clipPath>
		<g clip-path="url(#SVGID_2_)">
			<g>
				<path fill="#9A1B38" d="M17.801,24.932c-0.97-1.386-2.079-2.316-3.692-2.875c-1.423-0.493-3.022-0.523-4.495-0.265
					c-2.773,0.488-5.314,2.354-6.669,4.817c-1.544,2.812-1.691,6.564-1.6,9.711c0.044,1.533,0.304,3.036,0.928,4.442
					c0.562,1.266,1.901,2.574,3.318,2.695c0.797,0.067,1.367-0.848,1.169-1.549c-0.141-0.499-0.438-0.84-0.674-1.292
					c-0.229-0.439-0.397-0.921-0.59-1.379c-0.418-1.002-0.554-2.056-0.572-3.135c-0.042-2.31-0.053-5.142,0.901-7.288
					c0.756-1.703,2.319-3,4.121-3.454c2.032-0.512,4.42,0.229,6.204,1.215C17.135,27.12,18.525,25.967,17.801,24.932L17.801,24.932z
					"/>
			</g>
		</g>
		<g clip-path="url(#SVGID_2_)">
			<g>
				<path fill="#AE1E44" d="M18.505,28.621c1.326,0.572,1.811,2.023,1.806,3.398c-0.006,1.903-1.368,3.655-2.452,5.105
					c-1.085,1.451-2.256,2.977-3.754,4.023c-0.683,0.479-1.415,0.84-2.222,1.051c-0.912,0.239-1.651,0.024-2.552,0.031
					c-0.9,0.008-1.834,0.646-1.878,1.593C7.396,45.01,8.5,45.664,9.519,45.818c1.929,0.294,3.848-0.136,5.571-1.018
					c1.677-0.859,3.119-2.213,4.319-3.648c1.325-1.581,2.684-3.307,3.561-5.182c0.957-2.041,1.429-4.4,0.453-6.528
					c-0.799-1.741-2.441-2.864-4.32-3.065C17.949,26.253,17.435,28.16,18.505,28.621L18.505,28.621z"/>
			</g>
		</g>
		<path opacity="0.21" clip-path="url(#SVGID_2_)" fill="#B01E3C" d="M23.542,34.722c0.273-2.198-0.717-3.014-1.571-0.969
			c-0.119,0.285-2.268,1.439-6.26-0.109c-1.433-0.555-2.819-1.522-3.521-2.934c-0.798-1.608-2.154-4.631,1.403-7.496
			c0.239-0.193,0.288-0.508,0.327-0.775c0.45-0.227,0.971-0.296,1.553-0.116c1.295,0.401,2.11-1.554,0.918-2.204
			c-1.298-0.708-2.751-0.737-4.113-0.186c-0.04,0.016-0.078,0.034-0.118,0.051c-0.503-0.14-1.042-0.083-1.515,0.271
			c-0.266,0.163-0.515,0.349-0.749,0.551c-1.731,1.258-5.126,0.947-6.156,2.969c-0.734,1.443-1.776,2.449-1.864,4.058
			c-0.411,0.06-0.044,2.317-0.333,2.634c-1.63,1.781,0.361,4.08,0.783,6.275c0.397,2.07,1.414,3.918,2.827,5.473
			c1.357,1.494,3.281,3.093,5.335,3.381c0.938,0.133,1.861-0.033,2.774-0.262c0.412-0.104,0.822-0.208,1.239-0.293
			c0.396-0.082,0.769-0.297,1.159-0.351c1.014-0.138,1.519-1.05,1.195-1.835c0.686-0.187,1.337-0.504,1.938-1.027
			c0.553-0.481,0.737-1.286,0.606-2.03C21.626,38.925,23.604,37.214,23.542,34.722z"/>
		<path opacity="0.21" clip-path="url(#SVGID_2_)" fill="#B01E3C" d="M23.036,38.042c0.16-2.229-1.268-3.16-2.235-1.146
			c-0.135,0.28-2.95,1.257-8.542-0.716c-2.007-0.709-3.99-1.835-5.081-3.35c-1.243-1.727-3.552-8.258,1.02-10.853
			c0.307-0.174,3.56-1.328,1.754-0.894c-0.052,0.013-3.8,0.73-3.852,0.744c-0.699-0.191-1.428-0.186-2.037,0.133
			c-0.347,0.142-0.668,0.308-0.969,0.493c-2.238,1.123-6.895,0.477-8.104,2.451c-0.861,1.408-2.185,2.34-2.149,3.982
			c-0.555,0.021,0.164,2.371-0.2,2.668c-2.05,1.67,0.887,4.22,1.673,6.513c0.743,2.161,2.307,4.154,4.383,5.885
			c1.994,1.664,4.77,3.489,7.598,3.984c1.291,0.226,2.535,0.145,3.755-0.002c0.552-0.066,1.102-0.134,1.662-0.181
			c0.53-0.046,1.018-0.231,1.545-0.247c1.37-0.043,1.969-0.931,1.453-1.768c0.916-0.125,1.773-0.387,2.543-0.866
			c0.707-0.44,0.88-1.248,0.629-2.024C20.83,42.167,23.359,40.604,23.036,38.042z"/>
		<path opacity="0.21" clip-path="url(#SVGID_2_)" fill="#B01E3C" d="M21.352,40.848c0.174-2.43-1.383-3.445-2.438-1.249
			c-0.148,0.307-3.218,1.37-9.314-0.781c-2.188-0.771-4.351-1.999-5.541-3.651c-1.355-1.883-3.872-9.003,1.112-11.833
			c0.335-0.19,3.881-1.448,1.913-0.975c-0.058,0.014-4.143,0.796-4.199,0.811c-0.763-0.209-1.558-0.203-2.223,0.144
			c-0.377,0.155-0.728,0.336-1.056,0.538c-2.44,1.224-7.516,0.52-8.834,2.673c-0.94,1.536-2.384,2.551-2.344,4.341
			c-0.607,0.022,0.178,2.586-0.219,2.909c-2.235,1.82,0.967,4.602,1.824,7.101c0.81,2.357,2.514,4.53,4.777,6.417
			c2.175,1.814,5.201,3.805,8.284,4.344c1.408,0.246,2.764,0.158,4.094-0.002c0.604-0.072,1.202-0.146,1.813-0.197
			c0.578-0.049,1.109-0.251,1.686-0.27c1.493-0.047,2.145-1.014,1.584-1.926c0.999-0.137,1.934-0.424,2.772-0.945
			c0.771-0.48,0.959-1.36,0.687-2.207C18.945,45.345,21.703,43.641,21.352,40.848z"/>
	</g>
	<g>
		<defs>
			<path id="SVGID_3_" d="M24.176,32.845c-0.854,0.836-1.176,2.072-1.313,3.258c-0.328,2.859,0.259,5.863,1.889,8.234
				c1.631,2.371,4.35,4.033,7.225,4.125c1.135,0.036,2.296-0.172,3.281-0.736c1.183-0.679,2.801-1.564,3.582-2.684
				c1.499-2.146,2.153-4.693,2.557-7.279c0.466-2.99-0.779-6.422-3.847-7.435c-2.776-0.915-5.124,0.05-7.79,0.656
				C27.955,31.395,25.574,31.474,24.176,32.845z"/>
		</defs>
		<clipPath id="SVGID_4_">
			<use xlink:href="#SVGID_3_"  overflow="visible"/>
		</clipPath>
		<g clip-path="url(#SVGID_4_)">
			<g>
				<path fill="#9C1B36" d="M30.958,29.734c-2.769-1.277-5.82-0.244-7.505,2.27c-1.834,2.734-1.821,6.451-0.976,9.524
					c0.772,2.808,2.406,5.366,4.834,7.013c2.431,1.648,6.03,2.447,8.647,0.836c1.143-0.703,0.772-2.831-0.736-2.689
					c-2.04,0.193-3.947,0.203-5.744-0.914c-1.659-1.03-2.773-2.782-3.344-4.62c-0.608-1.96-0.843-4.303-0.024-6.238
					c0.693-1.641,2.411-3.036,4.25-2.937C31.512,32.041,32.037,30.231,30.958,29.734L30.958,29.734z"/>
			</g>
		</g>
		<g clip-path="url(#SVGID_4_)">
			<g>
				<path fill="#B52F4F" d="M33.225,31.658c1.489-0.186,3.412,0.113,4.668,0.973c1.356,0.93,1.907,2.578,2.043,4.154
					c0.164,1.893,0.056,3.923-0.344,5.781c-0.215,1.002-0.527,1.969-1.102,2.825c-0.584,0.873-1.426,1.423-1.923,2.364
					c-0.481,0.913,0.122,2.01,1.176,2.026c2.877,0.046,4.559-3.563,5.143-5.948c0.628-2.561,0.812-5.451,0.434-8.065
					c-0.36-2.492-1.515-4.756-3.657-6.165c-2.213-1.457-4.798-1.604-7.053-0.193C31.68,29.992,31.952,31.814,33.225,31.658
					L33.225,31.658z"/>
			</g>
		</g>
		<path opacity="0.21" clip-path="url(#SVGID_4_)" fill="#B01E3C" d="M44.101,37.524c-0.096-1.153,0.715-1.964-0.488-2.099
			c-1.071-0.118-1.759,0.318-3.394,1.35c-0.703,0.442-3.04,1.58-3.863,1.779c-1.527,0.367-2.473,0.326-4.03,0.15
			c-1.83-0.205-3.36-0.819-4.592-2.215c-1.447-1.641-0.052-4.168,0.561-5.736c0.874-2.246-2.382-3.804-3.916-2.264
			c-1.202,1.208-1.851,2.787-2.201,4.434c-0.31,1.453-0.633,3.033-0.654,4.521c-0.019,1.282,0.276,2.488,0.808,3.579
			c-0.002,0.013-0.004,0.024-0.006,0.036c-0.317,2.588,1.242,5.369,3.6,6.475c1.19,0.559,2.39,0.979,3.679,1.019
			c0.782,0.178,1.713,0.496,2.545,0.468c0.486-0.018,2.477-0.676,3.022-0.666c0.961,0.016,1.51-0.561,1.664-1.256
			c0.403-0.225,0.799-0.473,1.183-0.74c1.854-1.289,3.807-2.514,4.632-4.707c0.109-0.289,0.13-0.564,0.09-0.821
			C43.632,39.953,44.211,38.873,44.101,37.524z"/>
		<path opacity="0.15" clip-path="url(#SVGID_4_)" fill="#B01E3C" d="M47.985,40.937c-0.306-1.185,0.714-1.973-0.997-2.17
			c-1.523-0.177-2.425,0.234-4.57,1.207c-0.923,0.418-4.038,1.464-5.166,1.625c-2.094,0.3-3.749,0.281-5.964,0.023
			c-2.604-0.305-3.993-0.611-5.932-2.101c-2.277-1.753-1.22-4.739-0.595-6.313c0.898-2.255-3.91-4.014-5.838-2.516
			c-1.512,1.176-2.188,2.759-2.437,4.427c-0.22,1.471-0.441,3.071-0.25,4.593c0.164,1.312,0.757,2.56,1.666,3.704
			c0,0.012-0.002,0.024-0.002,0.037c-0.063,2.632,2.539,5.557,6.019,6.808c1.758,0.632,3.502,1.122,5.321,1.229
			c1.126,0.222,2.481,0.595,3.646,0.607c0.68,0.007,3.381-0.566,4.15-0.529c1.354,0.065,2.038-0.497,2.153-1.2
			c0.533-0.21,1.052-0.443,1.553-0.697c2.416-1.226,4.978-2.381,5.813-4.582c0.11-0.291,0.1-0.571,0.006-0.836
			C47.688,43.4,48.342,42.324,47.985,40.937z"/>
		<path opacity="0.15" clip-path="url(#SVGID_4_)" fill="#B01E3C" d="M46.448,42.614c-0.431-1.146,0.494-2.04-1.227-2.05
			c-1.535-0.008-2.386,0.5-4.412,1.701c-0.87,0.516-3.485,2.373-4.59,2.657c-2.047,0.526-3.709,0.896-5.938,0.881
			c-2.621-0.017-4.602-0.929-6.691-2.198c-2.456-1.492-1.521-4.5-1.069-6.133c0.646-2.34-4.327-3.563-6.078-1.862
			c-1.374,1.334-1.874,2.981-1.938,4.665c-0.058,1.487-0.102,3.102,0.254,4.594c0.307,1.286,1.032,2.463,2.061,3.5
			c0.001,0.012,0.001,0.024,0.003,0.037c0.226,2.623,3.132,5.245,6.727,6.108c1.815,0.437,3.604,0.731,5.424,0.64
			c1.145,0.097,2.532,0.318,3.69,0.204c0.678-0.067,3.3-0.933,4.068-0.979c1.353-0.083,1.973-0.717,2.008-1.429
			c0.508-0.268,0.998-0.555,1.468-0.862c2.268-1.482,4.688-2.911,5.276-5.191c0.078-0.301,0.037-0.578-0.085-0.832
			C46.423,45.094,46.955,43.953,46.448,42.614z"/>
	</g>
	<g opacity="0.07">
		<path fill="#FFFFFF" d="M14.929,29.368c0.113-0.336-0.128,0.351-0.152,0.429c-0.069,0.212-0.151,0.446-0.204,0.662
			c-0.128,0.521-0.181,1.049-0.319,1.568c-0.231,0.854-0.604,1.598-1.231,2.234c-1.453,1.48-3.561,1.347-5.137,2.547
			c-1.103,0.84-1.238,2.326-0.006,3.146c3.279,2.181,7.952-1.109,9.754-3.816c1.033-1.55,1.743-3.696,1.219-5.548
			C18.452,29.178,15.696,27.075,14.929,29.368L14.929,29.368z"/>
	</g>
	<g opacity="0.07">
		<path fill="#FFFFFF" d="M33.638,34.671c-0.54-0.209-0.261-0.078-0.034,0.162c0.138,0.146,0.313,0.263,0.437,0.423
			c0.221,0.286,0.416,0.673,0.554,1.006c0.264,0.638,0.379,1.34,0.316,2.026c-0.162,1.777-1.803,3.049-1.536,4.936
			c0.062,0.433,0.564,0.92,0.992,0.982c3.511,0.512,4.892-4.488,4.501-7.15c-0.221-1.502-0.945-3.021-2.259-3.871
			c-1.058-0.684-2.715-0.973-3.476,0.262C32.824,33.949,33.153,34.484,33.638,34.671L33.638,34.671z"/>
	</g>
	<path opacity="0.13" fill="#FFFFFF" d="M38.686,32.005c-1.029-1.061-2.665-1.395-4.06-0.97c-0.652,0.198-1.19,0.6-1.569,1.106
		c-0.657,0.391-1.158,1.018-1.392,1.771c-0.908,2.936,2.261,5.051,4.9,4.475C39.377,37.774,40.804,34.185,38.686,32.005z"/>
	<path opacity="0.1" fill="#FFFFFF" d="M20.596,31.626c-0.371-1.842-2.023-3.361-3.833-3.769c-1.806-0.405-4.282-0.11-5.376,1.544
		c-0.474,0.717-0.634,1.524-0.54,2.299c-0.17,0.979,0.089,2.014,0.863,2.854c1.223,1.324,3.313,1.768,5.053,1.594
		C19.024,35.919,21.088,34.066,20.596,31.626z"/>
	<g>
		<path fill="#FFFFFF" d="M35.635,33.423c0.338,0.575,0.858,0.93,1.276,1.439c0.451,0.553,0.658,1.119,0.8,1.811
			c0.104,0.51,0.175,1.959,1.058,1.306c0.933-0.69,0.636-2.247,0.221-3.118c-0.521-1.088-1.622-2.254-2.906-2.226
			C35.692,32.644,35.433,33.079,35.635,33.423L35.635,33.423z"/>
	</g>
	<g>
		<path fill="#FFFFFF" d="M18.616,31.111c-0.034,0.307-0.26,0.662-0.393,0.939c-0.169,0.352-0.384,0.667-0.525,1.031
			c-0.155,0.4,0.113,0.915,0.461,1.118c0.4,0.233,0.868,0.137,1.206-0.153c0.481-0.414,0.729-1.271,0.624-1.888
			c-0.099-0.569-0.341-0.916-0.739-1.312C18.998,30.599,18.652,30.805,18.616,31.111L18.616,31.111z"/>
	</g>
	<g>
		<path fill="#FFFFFF" d="M18.2,29.63c0.778,0.207,1.101-1.002,0.321-1.209C17.743,28.213,17.421,29.423,18.2,29.63L18.2,29.63z"/>
	</g>
	<g>
		<defs>
			<path id="SVGID_5_" d="M39.648,6.672c-2.679-2.153-5.498-4.373-8.865-5.059c-1.141-0.232-2.309-0.279-3.472-0.315
				c-2.063-0.063-4.174-0.084-6.13,0.572c-1.393,0.466-2.653,1.26-3.822,2.148c-2.835,2.152-5.213,4.904-6.933,8.021
				c-0.671,1.217-1.246,2.495-2.091,3.599c-1.049,1.373-2.5,2.435-4.125,3.021c0.285,0.376,0.917,0.244,1.368,0.384
				c5.315,1.653,11.057,1.913,16.498,0.748c1.492-0.319,2.971-0.747,4.339-1.422c2.456-1.213,4.455-3.167,6.366-5.129
				c1.38-1.417,2.739-2.857,4.074-4.317C37.633,8.075,38.566,7.058,39.648,6.672z"/>
		</defs>
		<clipPath id="SVGID_6_">
			<use xlink:href="#SVGID_5_"  overflow="visible"/>
		</clipPath>
		<path clip-path="url(#SVGID_6_)" fill="#79973C" d="M40.222,3.773c-1.762-0.96-3.65-1.669-5.599-2.117
			c-0.15-3.931-5.188-2.759-7.664-2.164c-2.733,0.658-5.396,1.696-7.881,3.008C14.071,5.144,9.814,9.042,6.661,13.734
			c-0.405,0.604-0.384,1.396-0.078,2.041c-1.188,0.535-2.442,0.854-3.72,1.178c-0.936,0.237-0.891,1.599,0.009,1.849
			c6.711,1.872,11.744-4.508,16.845-7.717c2.771-1.743,5.741-2.46,8.914-3.122c3.278-0.683,6.65-1.226,9.9-0.129
			C40.909,8.637,42.404,4.962,40.222,3.773z"/>
	</g>
	<path fill="#A04E23" d="M39.405,6.093c1.3-0.973,2.622-1.959,4.14-2.538c0.098-0.038,0.203-0.073,0.305-0.047
		c0.105,0.026,0.183,0.114,0.25,0.198c0.356,0.444,0.637,0.949,0.829,1.485c-0.06-0.167-3.284,1.453-3.565,1.621
		c-0.417,0.249-1.073,0.878-1.603,0.676C39.218,7.28,38.917,6.46,39.405,6.093z"/>
	<path fill="#BD5D28" d="M39.8,6.774c1.3-0.973,2.622-1.959,4.14-2.538c0.098-0.037,0.204-0.073,0.305-0.047
		c0.104,0.026,0.183,0.113,0.25,0.198c0.356,0.445,0.638,0.949,0.828,1.485c-0.06-0.167-3.281,1.453-3.563,1.621
		c-0.418,0.249-1.073,0.878-1.603,0.676C39.613,7.96,39.311,7.141,39.8,6.774z"/>
	<path fill="#C66628" d="M41.644,5.92c0.782-0.408,1.577-0.819,2.355-0.99c0.05-0.011,0.103-0.021,0.14,0.003
		c0.037,0.025,0.049,0.08,0.057,0.132c0.042,0.277,0.037,0.58-0.013,0.892c0.016-0.097-1.731,0.479-1.891,0.544
		c-0.236,0.096-0.664,0.377-0.838,0.216C41.276,6.552,41.35,6.074,41.644,5.92z"/>
	<g>
		<defs>
			<path id="SVGID_7_" d="M39.648,6.672c-2.679-2.153-5.498-4.373-8.865-5.059c-1.141-0.232-2.309-0.279-3.472-0.315
				c-2.063-0.063-4.174-0.084-6.13,0.572c-1.393,0.466-2.653,1.26-3.822,2.148c-2.835,2.152-5.213,4.904-6.933,8.021
				c-0.671,1.217-1.246,2.495-2.091,3.599c-1.049,1.373-2.5,2.435-4.125,3.021c0.285,0.376,0.917,0.244,1.368,0.384
				c5.315,1.653,11.057,1.913,16.498,0.748c1.492-0.319,2.971-0.747,4.339-1.422c2.456-1.213,4.455-3.167,6.366-5.129
				c1.38-1.417,2.739-2.857,4.074-4.317C37.633,8.075,38.566,7.058,39.648,6.672z"/>
		</defs>
		<clipPath id="SVGID_8_">
			<use xlink:href="#SVGID_7_"  overflow="visible"/>
		</clipPath>
		<g clip-path="url(#SVGID_8_)">
			<path fill="#6B8338" d="M2.795,18.342c1.905,1.801,4.813,0.315,6.55-1.004c2.295-1.744,3.362-4.038,4.456-6.63
				c1.015-2.407,2.332-4.746,4.188-6.606c1.804-1.808,4.07-2.999,6.503-3.725c1.135-0.338,2.295-0.579,3.455-0.81
				c1.107-0.221,2.576-0.341,3.373-1.28c0.578-0.682,0.023-1.213-0.632-1.514c-1.314-0.603-2.83-0.302-4.206-0.092
				C21.25-2.52,16.611,0.165,13.576,4.52c-1.767,2.536-2.574,5.458-4.029,8.142c-1.336,2.465-3.846,4.093-6.517,4.794
				C2.652,17.555,2.505,18.068,2.795,18.342L2.795,18.342z"/>
		</g>
		<g clip-path="url(#SVGID_8_)">
			<g>
				<path fill="#92B358" d="M5.047,20.112c0.371,1.157,5.932,2.087,6.956,2.269c1.64,0.291,3.346,0.374,5.007,0.272
					c3.192-0.195,6.424-0.867,9.392-2.066c3.262-1.319,6.086-3.261,8.888-5.362c1.497-1.123,2.939-2.253,4.081-3.75
					c0.452-0.593,0.89-1.198,1.327-1.802c0.241-0.333,0.487-0.667,0.688-1.027c0.188-0.34,0.291-0.746,0.507-1.066
					c0.421-0.625-0.272-1.29-0.899-1.17c-0.839,0.16-1.471,0.24-2.205,0.75c-0.675,0.468-1.236,1.068-1.798,1.66
					c-1.127,1.185-2.192,2.305-3.505,3.293c-2.656,1.999-5.371,3.989-8.495,5.199c-2.911,1.128-7.088,2.026-10.187,2.326
					c-0.777,0.076-10.315-0.538-9.938,0.637L5.047,20.112z"/>
			</g>
		</g>
	</g>
	<g opacity="0.21">
		<path fill="#92B358" d="M9.613,18.081c2.515-0.596,4.002-2.678,6.157-4.05c2.239-1.425,3.882-2.748,6.212-4.071
			c2.267-1.287,6.245-1.968,8.41-2.369c1.39-0.257,1.734-0.173,3.146-0.28c0.743-0.057,3.222,0.089,4.533,0.403
			c0.078,0.019,1.199-0.829,1.134-0.85c-0.727-0.233-2.127-0.822-2.837-1.098c-0.707-0.275-1.402-0.356-2.153-0.449
			c-1.403-0.173-2.817-0.289-4.231-0.287c-2.81,0.005-5.41,0.627-7.907,1.92c-2.378,1.232-4.558,2.933-6.507,4.76
			c-1.011,0.948-1.799,2.126-2.74,3.146c-1.002,1.086-2.074,2.208-3.281,3.069C9.472,17.98,9.515,18.104,9.613,18.081L9.613,18.081z
			"/>
	</g>
	<g>
		<path fill="#92B358" d="M10.45,17.734c2.341-0.463,4.126-2.366,5.963-3.791c1.994-1.545,4.145-2.852,6.465-3.849
			c2.237-0.961,4.604-1.63,7.007-2.016c1.192-0.191,2.396-0.309,3.602-0.358c0.589-0.024,1.177-0.023,1.767-0.008
			c0.647,0.016,1.287-0.13,1.919-0.121c0.109,0.001,0.138-0.181,0.024-0.195c-0.572-0.076-1.035-0.282-1.629-0.3
			c-0.588-0.017-1.178,0.002-1.766,0.021c-1.149,0.037-2.297,0.136-3.437,0.298c-2.386,0.338-4.731,0.948-6.971,1.84
			c-2.159,0.86-4.2,1.973-6.072,3.355c-1.044,0.771-2.035,1.61-3.042,2.428c-1.153,0.938-2.423,2.135-3.84,2.66
			C10.417,17.707,10.427,17.739,10.45,17.734L10.45,17.734z"/>
	</g>
</g>
</svg>
