<?xml version="1.0" encoding="utf-8"?>
<!-- Generator: Adobe Illustrator 16.0.0, SVG Export Plug-In . SVG Version: 6.00 Build 0)  -->
<!DOCTYPE svg PUBLIC "-//W3C//DTD SVG 1.1//EN" "http://www.w3.org/Graphics/SVG/1.1/DTD/svg11.dtd">
<svg version="1.1" id="Layer_1" xmlns="http://www.w3.org/2000/svg" xmlns:xlink="http://www.w3.org/1999/xlink" x="0px" y="0px"
	 width="54.933px" height="47.864px" viewBox="0 0 54.933 47.864" enable-background="new 0 0 54.933 47.864" xml:space="preserve">
<g>
	<g>
		<g>
			<defs>
				<path id="SVGID_1_" d="M53.231,21.659c0,0-0.653,9.13-5.288,14.98c-3.455,4.361-12.885,9.789-19.518,9.172
					s-14.299-1.769-19.765-8.447c-5.466-6.68-8.22-24.96-4.206-26.693C8.469,8.938,53.231,21.659,53.231,21.659z"/>
			</defs>
			<use xlink:href="#SVGID_1_"  overflow="visible" fill="#F26123"/>
			<clipPath id="SVGID_2_">
				<use xlink:href="#SVGID_1_"  overflow="visible"/>
			</clipPath>
			<path clip-path="url(#SVGID_2_)" fill="#F04B23" d="M34.195,27.325c0.038,1.037-0.527,9.156-2.119,12.941
				c-1.591,3.785-9.181,8.892-9.181,8.892s28.247,4.753,28.948,4.515c0.701-0.239,8.71-15.164,9.104-17.012
				c0.396-1.848-0.53-16.971-0.53-16.971l-6.197-3.872L34.195,27.325z"/>
			<path clip-path="url(#SVGID_2_)" fill="#F57E23" d="M10.749,23.325c0,0,1.208,11.522,2.074,16.594s3.467,7.893,3.467,7.893
				S1.862,46.761,1.434,42.681c-0.428-4.078-1.077-23.077-1.077-23.077l1.733-7.488L10.749,23.325z"/>
		</g>
		<path opacity="0.36" fill="#F05223" d="M5.061,18.777c0.189,0.94-2.077,4.842,3.469,11.151c5.544,6.31,20.965,9.024,25.312,8.776
			c4.346-0.249,16.641-3.593,17.414-10.252C52.031,21.794,5.061,18.777,5.061,18.777z"/>
		<path fill="#F4762D" d="M3.292,11.64C0.527,17.127,2.685,23.112,7.54,28.416c1.601,1.748,3.54,3.136,5.96,4.271
			c3.208,1.506,7.321,2.799,10.943,3.426c4.016,0.695,8.234,1.08,12.962,0.648c9.786-0.89,13.872-6.959,15.376-11.604
			c1.128-3.483,1.911-8.93-6.596-15.629C41.518,5.854,36.374,3.43,29.381,2.29c-6.582-1.073-13.303-0.484-17.923,1.856
			C8.247,5.774,4.617,9.011,3.292,11.64z"/>
		<path fill="#F58321" d="M4.833,11.675c-2.287,3.415-2.751,6.236,0.195,11.471c0.955,1.697,2.545,3.739,4.299,5.184
			c1.588,1.308,3.07,2.276,5.008,3.343c5.668,3.12,12.817,4.129,19.462,4.076c3.859-0.031,6.786-1.105,8.688-1.902
			c2.555-1.071,4.46-2.683,6.14-4.367c1.095-1.1,2.114-2.244,2.851-3.5c2.873-4.903-1.173-11.74-6.963-16.419
			c-4.933-3.985-11.06-5.809-17.949-6.448c-2.251-0.209-10.254-0.136-14.685,2.525C9.109,7.3,6.415,9.314,4.833,11.675z"/>
		<path fill="#FEF4F3" d="M5.663,12.018c-2.184,3.211-2.617,5.87,0.232,10.817c0.924,1.603,2.458,3.535,4.149,4.904
			c1.528,1.238,2.956,2.157,4.821,3.17c5.455,2.965,12.325,3.943,18.706,3.918c3.706-0.014,6.513-1.016,8.336-1.76
			c2.449-1.001,4.271-2.513,5.878-4.095c1.048-1.032,2.022-2.108,2.725-3.288c2.74-4.613-1.172-11.075-6.751-15.51
			c-4.753-3.776-10.644-5.519-17.263-6.148c-2.162-0.206-9.848-0.167-14.093,2.325C9.751,7.909,7.172,9.798,5.663,12.018z"/>
		<path fill="#F04935" d="M28.549,13.111c0.38-2.334,0.761-4.668,1.141-7.003c0.021-0.132,0.054-0.277,0.209-0.339
			c0.132-0.052,0.315-0.029,0.486-0.003c4.42,0.659,8.866,2.813,11.622,5.629c0.386,0.395,0.759,0.873,0.576,1.241
			c-0.117,0.235-0.437,0.366-0.747,0.478c-2.833,1.022-6.154,1.538-8.746,2.788c-0.854,0.411-3.474,1.916-4.882,0.687
			C27.451,15.928,28.447,13.742,28.549,13.111z"/>
		<path fill="#F04935" d="M34.2,16.542c3.085-0.878,6.169-1.757,9.255-2.636c0.175-0.05,0.374-0.1,0.575-0.047
			c0.169,0.045,0.294,0.151,0.405,0.251c2.87,2.608,3.987,5.92,2.921,8.656c-0.149,0.383-0.408,0.798-0.996,0.873
			c-0.376,0.048-0.795-0.059-1.185-0.169c-3.555-1.006-6.911-2.5-10.538-3.274c-1.191-0.254-5.142-0.926-4.848-2.228
			C29.948,17.269,33.365,16.779,34.2,16.542z"/>
		<path fill="#F04935" d="M35.671,21.563c3.471,0.984,6.941,1.968,10.412,2.952c0.197,0.056,0.413,0.123,0.511,0.248
			c0.083,0.106,0.058,0.225,0.027,0.334c-0.774,2.826-3.758,5.205-7.801,6.221c-0.567,0.143-1.257,0.251-1.81,0.012
			c-0.354-0.154-0.562-0.413-0.742-0.66c-1.641-2.26-2.555-4.695-4.521-6.86c-0.647-0.711-2.992-2.973-1.238-3.558
			C31.452,19.937,34.733,21.297,35.671,21.563z"/>
		<path fill="#F04935" d="M18.54,16.499c-3.396-0.858-6.793-1.717-10.189-2.576c-0.192-0.048-0.403-0.108-0.488-0.229
			c-0.071-0.103-0.033-0.222,0.009-0.331c1.098-2.834,4.19-5.635,8.388-6.783c0.588-0.161,1.329-0.408,1.862-0.189
			c0.34,0.14,0.941,1.02,1.096,1.259c1.406,2.188,1.792,4.399,3.537,6.482c0.575,0.685,2.691,2.852,0.854,3.493
			C22.619,17.97,19.458,16.731,18.54,16.499z"/>
		<path fill="#F04935" d="M19.787,21.205c-3.049,0.92-6.099,1.84-9.147,2.76c-0.173,0.053-0.37,0.105-0.572,0.055
			c-0.17-0.042-0.297-0.147-0.411-0.248c-2.934-2.58-4.141-5.888-3.155-8.646c0.139-0.386,0.385-0.806,0.969-0.888
			c0.373-0.053,0.794,0.049,1.185,0.154c3.57,0.964,6.958,2.42,10.593,3.152c1.195,0.241,5.151,0.865,4.895,2.174
			C24.003,20.422,20.611,20.957,19.787,21.205z"/>
		<path fill="#F04935" d="M25.484,24.85c-0.203,2.411-0.405,4.822-0.608,7.233c-0.013,0.137-0.033,0.287-0.179,0.349
			c-0.123,0.052-0.303,0.028-0.47,0c-4.323-0.719-8.775-2.983-11.642-5.921c-0.401-0.411-0.796-0.908-0.646-1.288
			c0.096-0.242,0.397-0.375,0.688-0.488c2.669-1.033,5.847-1.539,8.267-2.81c0.796-0.418,3.224-1.952,4.673-0.669
			C26.347,21.946,25.539,24.198,25.484,24.85z"/>
		<path fill="#FFFFFF" d="M24.465,18.288c-0.089-0.631,2.449-1.508,4.065-0.73c1.616,0.778,1.515,1.899,0.34,2.576
			C27.697,20.811,24.764,20.416,24.465,18.288z"/>
		<path fill="#F04935" d="M19.71,5.951c0.545-0.722,8.322-0.896,8.541-0.399s-0.529,10.378-1.055,10.397
			c-0.523,0.019-1.2,1.357-2.604-0.289C23.188,14.016,19.096,6.765,19.71,5.951z"/>
		<path fill="#F04935" d="M25.946,32.74c-0.543-0.334,0.436-10.849,0.986-10.991s1.984-1.064,2.677,0.561
			c0.693,1.625,2.091,2.69,3.306,4.618c1.213,1.928,3.104,4.641,2.412,5.139C34.634,32.565,27.016,33.397,25.946,32.74z"/>
		<g>
			<defs>
				<path id="SVGID_3_" d="M28.549,13.111c0.38-2.334,0.761-4.668,1.141-7.003c0.021-0.132,0.054-0.277,0.209-0.339
					c0.132-0.052,0.315-0.029,0.486-0.003c4.42,0.659,8.866,2.813,11.622,5.629c0.386,0.395,0.759,0.873,0.576,1.241
					c-0.117,0.235-0.437,0.366-0.747,0.478c-2.833,1.022-6.154,1.538-8.746,2.788c-0.854,0.411-3.474,1.916-4.882,0.687
					C27.451,15.928,28.447,13.742,28.549,13.111z"/>
			</defs>
			<clipPath id="SVGID_4_">
				<use xlink:href="#SVGID_3_"  overflow="visible"/>
			</clipPath>
			<g clip-path="url(#SVGID_4_)">
				<path fill="#EF4343" d="M29.949,17.148c-0.979-1.191-0.205-2.565,0.193-3.861c0.363-1.185,0.705-2.375,1.034-3.569
					c0.169-0.612,0.242-1.6,0.588-2.149C31.6,6.986,31.759,6.86,32.24,7.193c0.364,0.121,0.724,0.255,1.077,0.401
					c1.111,0.444,2.191,0.968,3.233,1.553c1.14,0.64,2.247,1.352,3.271,2.165c0.347,0.276,1.35,0.806,0.933,1.386
					c-0.121,0.168-1.379,0.336-1.588,0.37c-2.007,0.317-7.632,2.527-8.967,4.058c-0.271,0.31,4.354-1.31,4.743-1.419
					c2.048-0.574,3.825-0.706,5.938-0.954c1.263-0.148,2.367-0.756,2.462-2.142c0.123-1.8-1.66-2.927-2.951-3.832
					c-1.776-1.245-3.68-2.299-5.691-3.123c-1.166-0.478-2.932-1.491-4.143-0.678c-1.37,0.921-1.534,3.914-1.893,5.349
					c-0.309,1.232-2.619,8.314,1.075,7.414C29.973,17.684,30.105,17.338,29.949,17.148L29.949,17.148z"/>
			</g>
		</g>
		<g>
			<defs>
				<path id="SVGID_5_" d="M34.2,16.542c3.085-0.878,6.169-1.757,9.255-2.636c0.175-0.05,0.374-0.1,0.575-0.047
					c0.169,0.045,0.294,0.151,0.405,0.251c2.87,2.608,3.987,5.92,2.921,8.656c-0.149,0.383-0.408,0.798-0.996,0.873
					c-0.376,0.048-0.795-0.059-1.185-0.169c-3.555-1.006-6.911-2.5-10.538-3.274c-1.191-0.254-5.142-0.926-4.848-2.228
					C29.948,17.269,33.365,16.779,34.2,16.542z"/>
			</defs>
			<clipPath id="SVGID_6_">
				<use xlink:href="#SVGID_5_"  overflow="visible"/>
			</clipPath>
			<g clip-path="url(#SVGID_6_)">
				<path fill="#EF4343" d="M30.426,18.239c2.269,0.08,4.948-0.292,7.171-0.762c1.287-0.272,2.512-0.739,3.764-1.128
					c0.488-0.151,1.813-0.667,2.263-0.561c0.711,0.168,0.88,0.838,1.12,1.487c0.337,0.905,0.936,2.725,0.662,3.714
					c-0.262,0.943-0.62,0.616-1.523,0.372c-0.681-0.184-1.832-0.436-2.491-0.685c-2.309-0.875-9.146-2.823-11.653-2.538
					c-0.804,0.092,0.195,0.574,0.813,0.991c1.845,1.246,7.806,2.635,9.882,3.404c1.467,0.543,3.327,1.795,4.949,1.661
					c3.238-0.267,2.447-4.739,1.841-6.775c-0.354-1.185-0.979-2.846-2.12-3.51c-1.271-0.74-3.161,0.05-4.402,0.467
					c-2.005,0.672-3.894,1.318-6.001,1.606c-1.648,0.225-3.353,0.361-4.658,1.46C29.684,17.743,30.063,18.226,30.426,18.239
					L30.426,18.239z"/>
			</g>
		</g>
		<g>
			<defs>
				<path id="SVGID_7_" d="M35.671,21.563c3.471,0.984,6.941,1.968,10.412,2.952c0.197,0.056,0.413,0.123,0.511,0.248
					c0.083,0.106,0.058,0.225,0.027,0.334c-0.774,2.826-3.758,5.205-7.801,6.221c-0.567,0.143-1.257,0.251-1.81,0.012
					c-0.354-0.154-0.562-0.413-0.742-0.66c-1.641-2.26-2.555-4.695-4.521-6.86c-0.647-0.711-2.992-2.973-1.238-3.558
					C31.452,19.937,34.733,21.297,35.671,21.563z"/>
			</defs>
			<clipPath id="SVGID_8_">
				<use xlink:href="#SVGID_7_"  overflow="visible"/>
			</clipPath>
			<g clip-path="url(#SVGID_8_)">
				<path fill="#EF4343" d="M32.314,20.594c0.023-0.068,0.047-0.136,0.071-0.204c0.074-0.212-0.088-0.441-0.261-0.544
					c-1.552-0.927-2.375,0.915-2.063,2.208c0.324,1.35,1.154,2.674,1.767,3.923c0.714,1.459,1.326,3.071,2.21,4.436
					c1.367,2.112,4.076,2.26,6.319,1.637c2.117-0.586,5.541-2.494,6.34-4.635c0.288-0.775,1.095-3.17,0.22-2.927
					c-1.563,0.433-3.993,3.511-5.379,4.332c-0.847,0.5-1.738,0.889-2.72,1.021c-1.483,0.199-2.351-0.146-3.13-1.402
					c-0.974-1.566-1.732-3.288-2.631-4.9c-0.402-0.721-1.475-2.029-0.938-2.792C32.173,20.671,32.269,20.719,32.314,20.594
					L32.314,20.594z"/>
			</g>
		</g>
		<g>
			<defs>
				<path id="SVGID_9_" d="M18.54,16.499c-3.396-0.858-6.793-1.717-10.189-2.576c-0.192-0.048-0.403-0.108-0.488-0.229
					c-0.071-0.103-0.033-0.222,0.009-0.331c1.098-2.834,4.19-5.635,8.388-6.783c0.588-0.161,1.329-0.408,1.862-0.189
					c0.34,0.14,0.941,1.02,1.096,1.259c1.406,2.188,1.792,4.399,3.537,6.482c0.575,0.685,2.691,2.852,0.854,3.493
					C22.619,17.97,19.458,16.731,18.54,16.499z"/>
			</defs>
			<clipPath id="SVGID_10_">
				<use xlink:href="#SVGID_9_"  overflow="visible"/>
			</clipPath>
			<g clip-path="url(#SVGID_10_)">
				<path fill="#EF4343" d="M17.912,6.215c-2.327-1.04-5.301,0.922-6.979,2.409c-1.248,1.107-4.561,4.392-2.477,5.979
					c1.274,0.971,3.409,1.19,4.923,1.501c2.135,0.438,4.034,1.254,6.039,2.063c1.305,0.526,2.79,1.119,4.174,0.494
					c1.122-0.507,1.738-1.531,1.291-2.698c-0.241-0.629-1.109-0.883-1.586-0.333c-1.547,1.79-4.886-0.183-6.665-0.767
					c-1.115-0.367-2.197-0.553-3.353-0.75c-0.539-0.092-2.828-0.512-3.173-1c-0.743-1.052,2.488-3.617,3.296-4.159
					c1.438-0.965,3.252-1.295,4.567-2.409C18.074,6.457,18.026,6.266,17.912,6.215L17.912,6.215z"/>
			</g>
		</g>
		<g>
			<defs>
				<path id="SVGID_11_" d="M19.787,21.205c-3.049,0.92-6.099,1.84-9.147,2.76c-0.173,0.053-0.37,0.105-0.572,0.055
					c-0.17-0.042-0.297-0.147-0.411-0.248c-2.934-2.58-4.141-5.888-3.155-8.646c0.139-0.386,0.385-0.806,0.969-0.888
					c0.373-0.053,0.794,0.049,1.185,0.154c3.57,0.964,6.958,2.42,10.593,3.152c1.195,0.241,5.151,0.865,4.895,2.174
					C24.003,20.422,20.611,20.957,19.787,21.205z"/>
			</defs>
			<clipPath id="SVGID_12_">
				<use xlink:href="#SVGID_11_"  overflow="visible"/>
			</clipPath>
			<g clip-path="url(#SVGID_12_)">
				<path fill="#EF4343" d="M8.961,14.256c-0.952-0.23-1.717-1.041-2.723-0.438c-0.958,0.574-0.95,2.1-0.974,3.061
					c-0.058,2.393,0.721,6.513,3.43,7.355c1.525,0.474,3.276,0.107,4.794-0.194c1.967-0.392,3.919-0.864,5.876-1.304
					c1.452-0.327,3.207-0.529,4.18-1.796c0.719-0.935,0.748-1.914-0.047-2.75c-0.305-0.322-0.509-0.098-0.673,0.335
					c-0.773,2.045-3.694,1.928-5.579,2.331c-2.16,0.462-4.402,1.164-6.619,1.241c-2.418,0.085-3.076-2.752-3.332-4.715
					c-0.06-0.46-0.188-1.091-0.083-1.555c0.156-0.697,0.164-0.694,0.631-0.923c0.437-0.215,1.598,0.088,2.053-0.246
					C10.082,14.521,9.196,14.313,8.961,14.256L8.961,14.256z"/>
			</g>
		</g>
		<g>
			<defs>
				<path id="SVGID_13_" d="M25.484,24.85c-0.203,2.411-0.405,4.822-0.608,7.233c-0.013,0.137-0.033,0.287-0.179,0.349
					c-0.123,0.052-0.303,0.028-0.47,0c-4.323-0.719-8.775-2.983-11.642-5.921c-0.401-0.411-0.796-0.908-0.646-1.288
					c0.096-0.242,0.397-0.375,0.688-0.488c2.669-1.033,5.847-1.539,8.267-2.81c0.796-0.418,3.224-1.952,4.673-0.669
					C26.347,21.946,25.539,24.198,25.484,24.85z"/>
			</defs>
			<clipPath id="SVGID_14_">
				<use xlink:href="#SVGID_13_"  overflow="visible"/>
			</clipPath>
			<g clip-path="url(#SVGID_14_)">
				<path fill="#EF4343" d="M24.156,21.376c1.218,0.207-0.263,5.267-0.401,6.01c-0.122,0.653-0.166,1.539-0.387,2.165
					c0.093,0.669-0.219,1.038-0.933,1.107c-0.436-0.205-0.847-0.451-1.233-0.736c-1.188-0.803-2.253-1.451-3.582-2.01
					c-0.772-0.324-1.547-0.621-2.252-1.082c-0.751-0.492-1.676-1.543-1.938-1.914c-0.02-0.027-0.038-0.054-0.058-0.081
					c-0.357-0.506-1.009-0.634-1.544-0.324c-0.049,0.029-0.098,0.057-0.147,0.086c-0.514,0.298-0.73,1.138-0.347,1.618
					c0.848,1.057,1.784,1.979,2.941,2.703c1.295,0.811,2.786,1.178,4.109,1.928c1.609,0.912,4.279,3.479,6.309,1.902
					c0.928-0.721,0.892-2.385,1.052-3.447c0.291-1.93,0.617-3.882,0.782-5.826c0.135-1.592-0.38-3.643-2.43-3.105
					C23.593,20.503,23.651,21.291,24.156,21.376L24.156,21.376z"/>
			</g>
		</g>
		<g>
			<defs>
				<path id="SVGID_15_" d="M19.71,5.951c0.545-0.722,8.322-0.896,8.541-0.399s-0.683,10.03-1.055,10.397
					c-0.576,0.571-1.2,1.357-2.604-0.289C23.188,14.016,19.096,6.765,19.71,5.951z"/>
			</defs>
			<clipPath id="SVGID_16_">
				<use xlink:href="#SVGID_15_"  overflow="visible"/>
			</clipPath>
			<g clip-path="url(#SVGID_16_)">
				<path fill="#EF4343" d="M22.651,5.031c0.814,0.514,1.703,0.528,2.635,0.725c0.596,0.126,1.855,0.281,2.109,0.97
					c0.123,0.335-0.278,1.118-0.357,1.468c-0.263,1.174-0.174,2.327-0.316,3.521c-0.189,1.598,0.431,3.183-1.346,4.013
					c-0.737,0.345-1.363,1.208-0.569,1.461c1.397,0.445,2.721-0.5,3.22-1.798c0.458-1.193,0.355-2.676,0.528-3.934
					c0.181-1.313,0.509-2.595,0.715-3.9c0.199-1.258,0.042-2.36-1.255-2.889c-1.468-0.598-4.087-0.857-5.372,0.199
					C22.583,4.915,22.585,4.99,22.651,5.031L22.651,5.031z"/>
			</g>
		</g>
		<g>
			<defs>
				<path id="SVGID_17_" d="M25.946,32.74c-0.543-0.334,0.436-10.849,0.986-10.991s1.984-1.064,2.677,0.561
					c0.693,1.625,2.091,2.69,3.306,4.618c1.213,1.928,3.104,4.641,2.412,5.139C34.634,32.565,27.016,33.397,25.946,32.74z"/>
			</defs>
			<clipPath id="SVGID_18_">
				<use xlink:href="#SVGID_17_"  overflow="visible"/>
			</clipPath>
			<g clip-path="url(#SVGID_18_)">
				<path fill="#EF4343" d="M28.704,21.425c-0.389-1.773-2.127-0.5-2.618,0.465c-1.194,2.345-1.723,5.308-1.594,7.922
					c0.093,1.889,0.831,3.41,2.868,3.672c1.999,0.255,6.562,0.064,7.824-1.689c0.25-0.348,0.274-0.928-0.204-1.129
					c-1.144-0.479-2.013-0.114-3.205,0.108c-0.935,0.175-4.109,0.992-4.841,0.006c-0.72-0.972,0.276-9.36,1.465-9.017
					C28.61,21.824,28.742,21.6,28.704,21.425L28.704,21.425z"/>
			</g>
		</g>
		<g opacity="0.41">
			<g>
				<path fill="#FFFFFF" d="M37.14,14.229c-0.262-5.902-8.47-8.013-13.255-7.332C18.13,7.716,11.129,12.078,11.54,18.61
					c0.101,1.597,0.737,3.505,2.274,4.292c1.397,0.715,3.117,0.412,4.179-0.743c0.837-0.91,0.988-2.248,1.467-3.345
					c0.438-1.006,1.058-1.836,1.914-2.535c1.823-1.486,4.276-2.161,6.597-2.242c2.622-0.091,4.966,1.298,7.53,1.59
					C36.375,15.727,37.181,15.167,37.14,14.229L37.14,14.229z"/>
			</g>
		</g>
		<g opacity="0.32">
			<path fill="#FFFFFF" d="M13.694,25.939c1.631-0.071,3.38-0.72,4.74-1.6c0.157-0.101,0.036-0.338-0.14-0.287
				c-1.56,0.449-3.203,0.996-4.663,1.702C13.536,25.802,13.6,25.944,13.694,25.939L13.694,25.939z"/>
		</g>
		<g opacity="0.34">
			<path fill="#FFFFFF" d="M15.114,27.39c0.687-0.213,1.309-0.564,1.908-0.951c0.597-0.383,1.237-0.789,1.673-1.355
				c0.08-0.105-0.007-0.298-0.155-0.236c-0.66,0.275-1.225,0.746-1.801,1.16c-0.577,0.414-1.158,0.824-1.662,1.326
				C15.05,27.358,15.081,27.399,15.114,27.39L15.114,27.39z"/>
		</g>
		<g opacity="0.43">
			<path fill="#FFFFFF" d="M22.546,24.677c-0.641,1.236-1.362,2.47-1.502,3.882c-0.017,0.176,0.235,0.304,0.322,0.113
				c0.575-1.26,0.792-2.65,1.287-3.94C22.681,24.662,22.583,24.606,22.546,24.677L22.546,24.677z"/>
		</g>
		<g>
			<path fill="#FFFFFF" d="M29.188,26.601c0.137,1.328,0.248,2.838,0.981,3.996c0.074,0.117,0.292,0.059,0.27-0.088
				c-0.204-1.342-0.829-2.605-1.122-3.934C29.3,26.503,29.18,26.527,29.188,26.601L29.188,26.601z"/>
		</g>
		<g opacity="0.32">
			<path fill="#FFFFFF" d="M30.453,26.636c0.332,1.044,0.725,2.169,1.433,3.025c0.05,0.061,0.171,0.021,0.136-0.064
				c-0.419-1.025-1.033-1.973-1.482-2.988C30.516,26.556,30.434,26.579,30.453,26.636L30.453,26.636z"/>
		</g>
		<g opacity="0.34">
			<path fill="#FFFFFF" d="M35.587,24.729c0.812,1.139,1.568,2.47,2.646,3.386c0.124,0.105,0.274-0.041,0.207-0.174
				c-0.636-1.25-1.764-2.308-2.678-3.36C35.676,24.48,35.51,24.623,35.587,24.729L35.587,24.729z"/>
		</g>
		<g opacity="0.32">
			<path fill="#FFFFFF" d="M37.401,24.329c0.813,0.904,1.977,1.787,3.154,2.15c0.127,0.04,0.228-0.153,0.12-0.232
				c-0.997-0.735-2.155-1.356-3.223-1.991C37.405,24.228,37.369,24.294,37.401,24.329L37.401,24.329z"/>
		</g>
		<g>
			<path fill="#FFFFFF" d="M39.357,24.336c0.605,0.324,1.199,0.65,1.835,0.911c0.074,0.03,0.12-0.063,0.057-0.107
				c-0.568-0.39-1.166-0.707-1.771-1.036C39.329,24.024,39.208,24.257,39.357,24.336L39.357,24.336z"/>
		</g>
		<g>
			<path fill="#FFFFFF" d="M38.747,17.526c0.777-0.498,2.017-0.522,2.922-0.657c0.754-0.111,1.525-0.196,2.257-0.413
				c0.091-0.027,0.093-0.186-0.012-0.193c-0.95-0.075-1.905,0.109-2.834,0.302c-0.819,0.171-1.764,0.305-2.339,0.954
				C38.737,17.523,38.743,17.529,38.747,17.526L38.747,17.526z"/>
		</g>
		<g opacity="0.32">
			<path fill="#FFFFFF" d="M40.095,18.42c0.813-0.014,1.718,0.147,2.515-0.042c0.125-0.03,0.084-0.19-0.013-0.223
				c-0.792-0.267-1.737-0.046-2.532,0.108C39.97,18.282,40.007,18.421,40.095,18.42L40.095,18.42z"/>
		</g>
		<g>
			<path fill="#FFFFFF" d="M31.92,13.714c0.34-0.447,0.733-0.86,1.146-1.244c0.405-0.377,0.892-0.716,1.212-1.169
				c0.083-0.115-0.002-0.279-0.154-0.236c-1.121,0.317-1.895,1.547-2.452,2.479C31.585,13.688,31.816,13.851,31.92,13.714
				L31.92,13.714z"/>
		</g>
		<g opacity="0.32">
			<path fill="#FFFFFF" d="M22.793,6.726c-0.115,0.578,0.038,1.089,0.239,1.633c0.229,0.625,0.379,1.28,0.673,1.878
				c0.118,0.243,0.438,0.062,0.446-0.146c0.029-0.618-0.183-1.188-0.44-1.742c-0.256-0.551-0.679-1.035-0.83-1.628
				C22.871,6.677,22.801,6.684,22.793,6.726L22.793,6.726z"/>
		</g>
		<g>
			<path fill="#FFFFFF" d="M16.613,9.169c0.654,1.186,1.58,2.499,2.621,3.385c0.097,0.083,0.213-0.032,0.161-0.135
				c-0.613-1.204-1.682-2.421-2.683-3.333C16.655,9.033,16.578,9.106,16.613,9.169L16.613,9.169z"/>
		</g>
		<g opacity="0.34">
			<path fill="#FFFFFF" d="M17.13,11.49c0.749,1.206,1.705,2.606,3.021,3.257c0.091,0.044,0.205-0.063,0.139-0.151
				c-0.884-1.158-2.142-2.056-3.13-3.132C17.145,11.447,17.119,11.471,17.13,11.49L17.13,11.49z"/>
		</g>
		<g opacity="0.34">
			<path fill="#FFFFFF" d="M9.309,18.689c1.572,0.465,3.645,0.646,5.241,0.23c0.158-0.041,0.144-0.295-0.019-0.319
				c-0.81-0.119-1.637-0.073-2.454-0.08c-0.917-0.008-1.836-0.079-2.753-0.04C9.199,18.486,9.199,18.656,9.309,18.689L9.309,18.689z
				"/>
		</g>
		<g>
			<path fill="#FFFFFF" d="M9.453,20.156c0.985,0.124,2.232,0.327,3.184-0.019c0.111-0.04,0.116-0.223-0.014-0.242
				c-0.485-0.07-0.996,0.011-1.485,0.031c-0.558,0.023-1.11,0.027-1.668,0.001C9.339,19.921,9.322,20.139,9.453,20.156L9.453,20.156
				z"/>
		</g>
	</g>
</g>
</svg>
