<?xml version="1.0" encoding="utf-8"?>
<!-- Generator: Adobe Illustrator 16.0.0, SVG Export Plug-In . SVG Version: 6.00 Build 0)  -->
<!DOCTYPE svg PUBLIC "-//W3C//DTD SVG 1.1//EN" "http://www.w3.org/Graphics/SVG/1.1/DTD/svg11.dtd">
<svg version="1.1" id="Layer_1" xmlns="http://www.w3.org/2000/svg" xmlns:xlink="http://www.w3.org/1999/xlink" x="0px" y="0px"
	 width="78.5px" height="133.75px" viewBox="0 0 78.5 133.75" enable-background="new 0 0 78.5 133.75" xml:space="preserve">
<g>
	<defs>
		<path id="SVGID_5_" d="M65.535,10.188h-20.2H32.674h-20.2c0,0-14.588,64.207-10.058,85.778c-0.028,0.198-0.034,0.402,0.004,0.615
			c1.06,5.802,4.394,18.71,13.806,25.73c3.823,2.853,4.619,5.116,4.537,6.6c-0.06,1.085,0.858,1.974,1.943,1.974h15.98h0.354h15.98
			c1.086,0,2.003-0.889,1.943-1.974c-0.081-1.483,0.715-3.747,4.538-6.6c7.901-5.894,11.511-15.924,13.096-22.428
			C81.173,78.286,65.535,10.188,65.535,10.188z"/>
	</defs>
	<use xlink:href="#SVGID_5_"  overflow="visible" fill="#CDDCF1"/>
	<clipPath id="SVGID_1_">
		<use xlink:href="#SVGID_5_"  overflow="visible"/>
	</clipPath>
	<g opacity="0.36" clip-path="url(#SVGID_1_)">
		<path fill="#CDDCF1" d="M8.214,10.043c-0.06-0.008-0.119-0.016-0.18-0.022c-0.123,0.486-0.246,0.973-0.369,1.459
			c3.955,0.53,7.991,0.198,11.982,0.138c5.861-0.09,11.73,0.062,17.593,0.117c11.675,0.111,23.459,0.355,35.126-0.048
			c2.685-0.093,2.598-4.17-0.086-4.162C60.574,7.56,48.866,7.789,37.163,8.053c-9.854,0.223-19.801,0.249-29.529,1.976
			c-0.957,0.17-0.512,1.601,0.431,1.442c0.06-0.01,0.119-0.02,0.179-0.029C8.937,11.325,8.911,10.13,8.214,10.043L8.214,10.043z"/>
	</g>
	<g opacity="0.36" clip-path="url(#SVGID_1_)">
		<path fill="#CDDCF1" d="M17.772,125.799c0.33,2.62,0.916,5.631,3.672,6.714c4.668,1.834,10.924,1.595,15.873,1.688
			c5.188,0.099,10.499-0.537,15.634-1.226c1.742-0.234,3.736-0.735,5.108-1.91c1.014-0.869,1.678-2.98,2.942-3.35
			c2.011-0.586,2.465-2.718,0.696-3.398c-2.08-0.801-4.158,0.405-5.311,2.085c-2.604,3.797-5.692,2.211-11.117,2.545
			c-4.57,0.282-8.842-0.2-15.07-0.134c-2.246,0.024-7.393,0.948-8.885-1.152c-0.809-1.138-1.186-1.826-2.479-2.471
			C18.414,124.979,17.7,125.223,17.772,125.799L17.772,125.799z"/>
	</g>
	<g opacity="0.36" clip-path="url(#SVGID_1_)">
		<path fill="#CDDCF1" d="M6.462,95.961c-0.957,3.481,0.627,6.722,1.742,9.992c1.368,4.013,3.371,7.45,6.317,10.512
			c6.62,6.878,15.493,9.113,24.679,8.981c4.579-0.065,9.164,0.088,13.686-0.74c4.135-0.757,7.516-3.51,10.423-6.373
			c6.523-6.424,9.782-16.435,8.841-25.933c-0.127-1.286-2.838-2.688-3.572-1.43c-1.412,2.424,0.635,7.971-0.041,10.667
			c-1.031,4.124-3.205,7.353-5.967,10.515c-2.313,2.649-4.799,5.165-7.877,6.905c-3.631,2.053-8.506,1.519-12.512,1.551
			c-4.223,0.034-8.402,0.298-12.561-0.621c-3.879-0.858-7.348-3.111-10.6-5.294c-3.199-2.148-5.509-5.578-7.223-8.96
			c-1.615-3.186-3.525-6.363-4.609-9.772C7.078,95.612,6.563,95.592,6.462,95.961L6.462,95.961z"/>
	</g>
</g>
<path fill="#CC2027" d="M13.726,20.101c-2.398,11.103-14.59,66.332-4.288,86.208c9.804,18.914,21.99,15.71,30.3,15.784
	c0.016,0,0.029,0.005,0.043,0.004c0.039-0.001,0.195-0.001,0.234,0c0.014,0.001,0.027-0.004,0.043-0.004
	c8.325-0.074,18.725,3.673,28.252-15.382c10.039-20.077-1.626-75.508-4.024-86.61H13.726z"/>
<g>
	<defs>
		<path id="SVGID_2_" d="M65.535,10.188h-20.2H32.674h-20.2c0,0-14.588,64.207-10.058,85.778c-0.028,0.198-0.034,0.402,0.004,0.615
			c1.06,5.802,4.394,18.71,13.806,25.73c3.823,2.853,4.619,5.116,4.537,6.6c-0.06,1.085,0.858,1.974,1.943,1.974h15.98h0.354h15.98
			c1.086,0,2.003-0.889,1.943-1.974c-0.081-1.483,0.715-3.747,4.538-6.6c7.901-5.894,11.511-15.924,13.096-22.428
			C81.173,78.286,65.535,10.188,65.535,10.188z"/>
	</defs>
	<clipPath id="SVGID_3_">
		<use xlink:href="#SVGID_2_"  overflow="visible"/>
	</clipPath>
	<g opacity="0.3" clip-path="url(#SVGID_3_)">
		<path fill="#DEDEDD" d="M36.563,2.266C31.606,2.011,7.815,2.151,6.424,5.898C3.858,12.809-4.072,23.798-5.833,30.961
			C-9.466,45.738-5.688,63.46-7.44,78.581c-1.626,14.038-1.531,37.284,3.014,51.035c2.201,6.658,23.748,3.106,28.138,8.548
			c3.733,4.628,9.815,9.438,16.067,9.26c12.313-0.353-3.617-23.232-5.426-32.676c-1.157-6.046-2.278-18.826-1.607-24.915
			c0.694-6.295,0.105-14.246,0.988-20.519c0.939-6.686,4.386-35.033,5.441-41.368C40.213,21.725,40.855,2.485,36.563,2.266
			L36.563,2.266z"/>
	</g>
	<g opacity="0.3" clip-path="url(#SVGID_3_)">
		<path fill="#DEDEDD" d="M25.312,1.462C20.354,1.207-3.437,1.349-4.828,5.095c-2.565,6.909-10.496,17.899-12.257,25.063
			c-3.633,14.777,0.145,32.499-1.607,47.619c-1.626,14.039-1.531,37.285,3.014,51.036c2.201,6.658,23.748,3.106,28.138,8.548
			c3.733,4.628,9.815,9.438,16.067,9.26c12.313-0.353-3.617-23.232-5.426-32.676c-1.157-6.046-2.278-18.826-1.607-24.915
			c0.694-6.295,0.105-14.246,0.987-20.519c0.94-6.686,4.387-35.033,5.442-41.368C28.96,20.921,29.604,1.682,25.312,1.462
			L25.312,1.462z"/>
	</g>
	<g opacity="0.3" clip-path="url(#SVGID_3_)">
		<path fill="#DEDEDD" d="M18.479,1.06c-4.956-0.254-28.748-0.113-30.139,3.634c-2.566,6.909-10.496,17.899-12.258,25.062
			c-3.633,14.778,0.145,32.5-1.607,47.62c-1.625,14.039-1.531,37.284,3.015,51.036c2.2,6.658,23.747,3.106,28.138,8.548
			c3.732,4.627,9.814,9.438,16.066,9.259c12.314-0.352-3.617-23.232-5.425-32.676c-1.157-6.045-2.278-18.825-1.607-24.915
			c0.694-6.294,0.104-14.246,0.987-20.519c0.939-6.685,4.387-35.033,5.442-41.367C22.129,20.52,22.772,1.28,18.479,1.06L18.479,1.06
			z"/>
	</g>
	<g opacity="0.05" clip-path="url(#SVGID_3_)">
		<path fill="#FFFFFF" d="M55.946,1.39c-3.779,2.561-5.465,5.657-4.916,9.679c0.775,5.681,2.928,13.181,3.153,18.915
			c0.237,6.042,0.726,12.067,1.242,18.093c0.553,6.457,0.364,12.84,0.52,19.308c0.28,11.735,1.472,23.156-0.669,34.828
			c-0.881,4.803-1.617,10.028-3.676,14.479c-0.543,1.172-1.18,2.317-1.783,3.459c0.407-0.438,0.814-0.876,1.221-1.313
			c-0.905,0.672-1.801,1.357-2.686,2.057c-2.828,3.037-4.213,6.563-3.156,10.706c0.984,3.854,4.716,6.582,8.646,6.582
			c4.383,0,7.07-2.833,8.646-6.582c0.051-0.123,5.763-5.57,7.076-8.706c2.275-5.437,3.318-11.212,4.386-16.98
			c2.388-12.898,1.726-25.535,1.155-38.528c-0.283-6.458,0.078-12.849-0.49-19.308c-0.604-6.881-0.996-13.749-1.932-20.597
			c-0.91-6.664-2.604-13.046-6.604-18.56C64.278,6.437,60.275-1.543,55.946,1.39L55.946,1.39z"/>
	</g>
	<g opacity="0.05" clip-path="url(#SVGID_3_)">
		<path fill="#FFFFFF" d="M63.382,2.395c-3.781,2.561-5.467,5.657-4.918,9.679c0.775,5.681,2.928,13.18,3.154,18.914
			c0.238,6.043,0.726,12.068,1.242,18.094c0.553,6.457,0.365,12.84,0.52,19.308c0.28,11.735,1.473,23.156-0.669,34.827
			c-0.882,4.804-1.617,10.029-3.677,14.479c-0.543,1.173-1.179,2.317-1.783,3.459c0.408-0.438,0.814-0.875,1.223-1.313
			c-0.906,0.672-1.802,1.357-2.686,2.057c-2.829,3.037-4.214,6.563-3.156,10.705c0.982,3.855,4.715,6.583,8.646,6.583
			c4.384,0,7.069-2.833,8.646-6.583c0.052-0.122,5.763-5.569,7.075-8.705c2.275-5.437,3.319-11.212,4.387-16.98
			c2.387-12.898,1.725-25.535,1.155-38.528c-0.284-6.458,0.078-12.849-0.489-19.308c-0.605-6.881-0.997-13.749-1.933-20.598
			c-0.911-6.664-2.604-13.045-6.604-18.56C71.714,7.441,67.71-0.538,63.382,2.395L63.382,2.395z"/>
	</g>
</g>
<g>
	<path fill="#CDDCF1" d="M16.47,129.683c0.086,0,0.086-0.132,0-0.132C16.386,129.551,16.386,129.683,16.47,129.683L16.47,129.683z"
		/>
</g>
<g opacity="0.34">
	<path fill="#FFFFFF" d="M22.167,12.528c1.051-0.156,2.129,0.373,3.086-0.211c0.185-0.113,0.18-0.374,0-0.488
		c-0.975-0.617-2.319-0.292-3.289,0.218C21.677,12.197,21.892,12.569,22.167,12.528L22.167,12.528z"/>
</g>
<g opacity="0.34">
	<path fill="#FFFFFF" d="M30.882,12.876c4.664,0.902,9.357,1.028,14.096,1.048c5.626,0.023,11.518,0.452,17.104-0.196
		c1.609-0.187,1.613-2.321,0-2.505c-5.078-0.58-10.439-0.119-15.548-0.001c-5.254,0.121-10.479,0.243-15.651,1.255
		C30.684,12.515,30.683,12.837,30.882,12.876L30.882,12.876z"/>
</g>
<g opacity="0.18">
	<path fill="#FFFFFF" d="M33.493,126.238c5.779,2.471,14.797,4.341,20.712,1.613c1.486-0.686,1.103-3.181-0.456-3.494
		c-3.119-0.628-6.357,0.017-9.521,0.207c-3.548,0.215-7.093,0.2-10.612,0.744C33.196,125.373,33.101,126.07,33.493,126.238
		L33.493,126.238z"/>
</g>
<g>
	<path fill="#FFFFFF" d="M40.983,125.638c0.053,0,0.053-0.08,0-0.08C40.932,125.558,40.932,125.638,40.983,125.638L40.983,125.638z"
		/>
</g>
<g opacity="0.4">
	<path fill="#FFFFFF" d="M42.427,127.169c1.42,1.826,4.834,1.676,6.857,1.396c2.816-0.39,5.781-1.175,7.951-3.102
		c1.823-1.618-0.666-4.905-2.625-3.402c-1.734,1.329-3.53,2.23-5.631,2.847c-2.062,0.605-4.148,0.488-6.199,0.924
		C42.127,125.969,42.089,126.733,42.427,127.169L42.427,127.169z"/>
</g>
<g opacity="0.4">
	<path fill="#FFFFFF" d="M46.208,13.407c4.354,0.454,10.705,2.188,14.719-0.1c0.375-0.214,0.295-0.8-0.119-0.912
		c-2.025-0.547-4.213-0.166-6.293-0.094c-2.779,0.097-5.537,0.194-8.307,0.446C45.781,12.787,45.786,13.363,46.208,13.407
		L46.208,13.407z"/>
</g>
<g>
	<path fill="#FFFFFF" d="M22.599,126c-0.228,3.83,5.556,4.389,7.733,2.208c0.214-0.215,0.222-0.586,0-0.8
		c-0.854-0.822-1.79-0.922-2.894-1.192c-0.631-0.154-1.25-0.104-1.879-0.307c-0.496-0.16-1.117-0.463-1.601-0.69
		C23.325,124.921,22.642,125.279,22.599,126L22.599,126z"/>
</g>
<g>
	<path fill="#FFFFFF" d="M54.898,14.226c1.376,0.289,2.751,0.47,4.156,0.518c1.312,0.044,2.577,0.168,3.732-0.542
		c0.397-0.244,0.382-0.794,0-1.041c-1.148-0.744-2.417-0.6-3.732-0.524c-1.397,0.079-2.775,0.279-4.156,0.5
		C54.343,13.225,54.371,14.114,54.898,14.226L54.898,14.226z"/>
</g>
<g>
	<defs>
		<path id="SVGID_4_" d="M13.726,20.101c-2.398,11.103-14.59,66.332-4.288,86.208c9.804,18.914,21.99,15.71,30.3,15.784
			c0.016,0,0.029,0.005,0.043,0.004c0.039-0.001,0.195-0.001,0.234,0c0.014,0.001,0.027-0.004,0.043-0.004
			c8.325-0.074,18.725,3.673,28.252-15.382c10.039-20.077-1.626-75.508-4.024-86.61H13.726z"/>
	</defs>
	<clipPath id="SVGID_6_">
		<use xlink:href="#SVGID_4_"  overflow="visible"/>
	</clipPath>
	<g opacity="0.14" clip-path="url(#SVGID_6_)">
		<g>
			<path fill="#97374B" d="M52.799,9.577c-1.47,6.505-3.825,4.871-2.975,11.739c1.433,11.56,2.909,31.58,3.015,43.199
				c0.093,10.282,0.27,14.667-1.429,30.513c-0.526,4.912-2.188,18.715-7.782,28.287c-4.408,7.544,9.49,16.716,15.616,9.09
				c3.124-3.888,6.767-7.923,8.81-12.495c2.332-5.222,2.986-10.824,4.486-16.303c3.197-11.667,3.641-24.171,3.64-36.226
				c-0.001-12.489,0.313-25.251-2.319-37.532c-1.232-5.751-3.457-11.147-7.174-15.739c-1.455-1.797-4.536-4.121-5.211-5.668
				C59.811,4.631,53.647,5.818,52.799,9.577L52.799,9.577z"/>
		</g>
	</g>
	<g opacity="0.14" clip-path="url(#SVGID_6_)">
		<g>
			<path fill="#97374B" d="M59.175,10.381c-1.469,6.505-3.824,4.872-2.975,11.739c1.432,11.561,2.909,31.581,3.014,43.2
				c0.094,10.282,0.27,14.667-1.428,30.513c-0.526,4.912-2.188,18.715-7.781,28.286c-4.409,7.544,9.489,16.717,15.615,9.091
				c3.124-3.889,6.768-7.923,8.811-12.496c2.332-5.221,2.985-10.824,4.486-16.302c3.196-11.668,3.641-24.171,3.639-36.227
				c-0.002-12.488,0.313-25.25-2.318-37.531c-1.233-5.751-3.458-11.148-7.176-15.739c-1.455-1.798-4.535-4.121-5.21-5.668
				C66.187,5.436,60.024,6.623,59.175,10.381L59.175,10.381z"/>
		</g>
	</g>
	<g opacity="0.14" clip-path="url(#SVGID_6_)">
		<g>
			<path fill="#923149" d="M34.956,5.898c-4.66,0.689-28.254,6.78-29.537,10.596C3.424,22.429-4.81,35.877-6.034,42.012
				c-2.413,12.09-1.982,31.717-4.42,43.803c-2.192,10.873,19.156,54.861,43.915,47.793c3.165-0.903,4.466-3.855,3.979-6.896
				c-0.004-0.026,0.037,0.034,0.048,0.009c0.108-0.239,3.515-0.703,3.495-1.122c-0.063-1.42,0.072-6.405,0-7.836
				c-0.928-18.478-1.994-35.897,0.61-47.067c1.806-7.749,6.222-46.311,2.202-64.796H34.956z"/>
		</g>
	</g>
	<g opacity="0.14" clip-path="url(#SVGID_6_)">
		<g>
			<path fill="#923149" d="M21.292,5.497C16.634,6.186-6.962,12.276-8.244,16.092c-1.995,5.936-10.228,19.384-11.452,25.518
				c-2.414,12.09-1.984,31.718-4.421,43.803c-2.192,10.873,19.157,54.861,43.915,47.794c3.164-0.903,4.465-3.855,3.979-6.896
				c-0.005-0.027,0.036,0.033,0.048,0.009c0.108-0.24,3.514-0.704,3.495-1.122c-0.063-1.421,0.071-6.406,0-7.837
				c-0.927-18.478-1.993-35.896,0.61-47.067c1.807-7.749,6.221-46.31,2.203-64.795H21.292z"/>
		</g>
	</g>
	<g opacity="0.14" clip-path="url(#SVGID_6_)">
		<g>
			<path fill="#923149" d="M10.845,5.095c-4.66,0.689-28.254,6.78-29.537,10.595c-1.995,5.936-10.229,19.384-11.453,25.519
				c-2.414,12.09-1.983,31.717-4.42,43.803c-2.193,10.873,19.156,54.861,43.914,47.793c3.166-0.903,4.467-3.855,3.98-6.896
				c-0.004-0.026,0.036,0.034,0.048,0.009c0.108-0.239,3.514-0.703,3.495-1.122c-0.063-1.42,0.072-6.406,0-7.836
				c-0.928-18.478-1.994-35.897,0.61-47.067c1.806-7.749,6.222-46.311,2.202-64.796H10.845z"/>
		</g>
	</g>
</g>
<g opacity="0.21">
	<g>
		<path fill="#C44D68" d="M46.208,115.501c4.002,0.032,6.516-0.305,9.72-2.999c2.725-2.292,4.507-6.632,5.849-9.817
			c2.807-6.669,5.054-14.706,5.127-21.894c0.039-3.823-1.564-33.468-1.768-37.735c-0.222-4.643-0.975-9.251-2.398-13.674
			c-1.75-5.429-7.201-8.878-12.885-7.315c-6.716,1.848-5.477,6.298-4.248,12.913c1.677,9.027,1.719,15.907,2.813,22.102
			c1.302,7.369,1.317,14.641,1.898,22.111c0.433,5.557,0.319,11.126-1.003,16.555c-0.676,2.776-1.811,5.229-3.301,7.655
			c-0.9,1.467-1.598,2.905-2.116,4.562c-0.452,1.446,0.062,2.844-0.159,4.295C43.49,113.887,44.396,115.486,46.208,115.501
			L46.208,115.501z"/>
	</g>
</g>
<g>
	<path fill="#FFFFFF" d="M54.155,115.425c3.814-2.92,5.295-6.839,6.924-11.232c2.408-6.491,3.762-13.394,4.982-20.192
		c1.082-6.029,1.394-12.146,1.002-18.255c-0.35-5.426,0.731-14.33-3.618-18.266c-2.013-1.821-5.97-1.343-6.549,1.729
		c-0.462,2.449-0.056,3.973,0.593,6.347c0.739,2.705,1.027,5.55,1.504,8.308c1.039,6.013,1.702,11.781,1.486,17.897
		c-0.369,10.477-2.049,23.189-7.716,32.273C52.254,114.851,53.323,116.063,54.155,115.425L54.155,115.425z"/>
</g>
</svg>
