<?xml version="1.0" encoding="utf-8"?>
<!-- Generator: Adobe Illustrator 16.0.0, SVG Export Plug-In . SVG Version: 6.00 Build 0)  -->
<!DOCTYPE svg PUBLIC "-//W3C//DTD SVG 1.1//EN" "http://www.w3.org/Graphics/SVG/1.1/DTD/svg11.dtd">
<svg version="1.1" id="Layer_1" xmlns="http://www.w3.org/2000/svg" xmlns:xlink="http://www.w3.org/1999/xlink" x="0px" y="0px"
	 width="42.71px" height="52.577px" viewBox="0 0 42.71 52.577" enable-background="new 0 0 42.71 52.577" xml:space="preserve">
<g>
	<g>
		<path fill="#4A7436" d="M18.355,2.073c1.303,0.765,2.507,2.076,3.436,3.254c0.478,0.606,0.937,1.236,1.326,1.902
			c0.442,0.758,0.739,1.532,1.508,2.023c0.886,0.565,1.88-0.139,1.803-1.133c-0.133-1.723-1.874-3.604-3.118-4.695
			c-1.425-1.248-2.922-1.757-4.781-1.813C18.297,1.605,18.117,1.935,18.355,2.073L18.355,2.073z"/>
	</g>
	<g>
		<path fill="#53843C" d="M18.232,5.056c1.121,0.725,2.253,1.557,3.334,2.356c1.004,0.743,1.604,2.031,2.653,2.647
			c0.79,0.465,1.702,0.074,1.859-0.844c0.285-1.667-1.395-3.039-2.713-3.723c-1.59-0.826-3.164-0.827-4.863-1.16
			C18.108,4.257,17.91,4.847,18.232,5.056L18.232,5.056z"/>
	</g>
	<g>
		<defs>
			<path id="SVGID_1_" d="M18.355,2.073c1.303,0.765,2.507,2.076,3.436,3.254c0.478,0.606,0.937,1.236,1.326,1.902
				c0.442,0.758,0.739,1.532,1.508,2.023c0.886,0.565,1.88-0.139,1.803-1.133c-0.133-1.723-1.874-3.604-3.118-4.695
				c-1.425-1.248-2.922-1.757-4.781-1.813C18.297,1.605,18.117,1.935,18.355,2.073L18.355,2.073z"/>
		</defs>
		<clipPath id="SVGID_2_">
			<use xlink:href="#SVGID_1_"  overflow="visible"/>
		</clipPath>
		<g opacity="0.21" clip-path="url(#SVGID_2_)">
			<path fill="#FFFFFF" d="M23.376,4.023c0.165-1.421-2.146-2.315-3.079-2.967c-1.061-0.742-2.732-2.348-3.489-0.611
				c-0.091,0.209,0.044,0.444,0.239,0.528c1.186,0.508,2.498,0.602,3.653,1.184c0.856,0.434,1.551,2.09,2.565,1.984
				C23.325,4.136,23.37,4.079,23.376,4.023L23.376,4.023z"/>
		</g>
		<g opacity="0.19" clip-path="url(#SVGID_2_)">
			<path fill="#53843C" d="M21.982,5.206c0.723-0.84-1.384-2.622-2.037-3.127c-0.87-0.674-2.016-1.455-3.042-1.853
				c-0.141-0.055-0.32,0.075-0.281,0.231c0.283,1.146,1.523,1.911,2.287,2.742c0.285,0.311,1.517,2.153,2.083,1.495L21.982,5.206z"
				/>
		</g>
	</g>
	<g>
		<defs>
			<path id="SVGID_3_" d="M18.232,5.056c1.121,0.725,2.253,1.557,3.334,2.356c1.004,0.743,1.604,2.031,2.653,2.647
				c0.79,0.465,1.702,0.074,1.859-0.844c0.285-1.667-1.395-3.039-2.713-3.723c-1.59-0.826-3.164-0.827-4.863-1.16
				C18.108,4.257,17.91,4.847,18.232,5.056L18.232,5.056z"/>
		</defs>
		<clipPath id="SVGID_4_">
			<use xlink:href="#SVGID_3_"  overflow="visible"/>
		</clipPath>
		<g opacity="0.21" clip-path="url(#SVGID_4_)">
			<path fill="#FFFFFF" d="M21.922,4.657c-0.546-0.365-1.174-0.588-1.743-0.924c-0.424-0.25-0.83-0.422-1.315-0.52
				c-0.615-0.125-2.332-0.449-2.499,0.537c-0.158,0.934,1.317,1.01,1.888,1.037c1.174,0.053,2.349,0.684,3.521,0.525
				C22.083,5.271,22.182,4.831,21.922,4.657L21.922,4.657z"/>
		</g>
		<g opacity="0.19" clip-path="url(#SVGID_4_)">
			<path fill="#53843C" d="M22.17,8.64c-0.273-1.453-1.525-2.132-2.569-3.164c-0.868-0.858-3.666-1.191-4.97-0.913
				c-0.224,0.048-0.402,0.308-0.278,0.53c0.569,1.026,3.843,0.277,4.735,0.988c1.028,0.818,1.771,1.906,2.77,2.755
				C21.993,8.95,22.201,8.802,22.17,8.64L22.17,8.64z"/>
		</g>
	</g>
	<g>
		<defs>
			<path id="SVGID_5_" d="M22.93,1.744c-0.314,1.073,0.315,2.358,0.503,3.415c0.241,1.356-0.037,2.668,0.073,4.026
				c0.073,0.89,1.252,1.219,1.877,0.69c1.488-1.26,1.501-3.459,0.952-5.191c-0.377-1.188-1.476-3.42-3.022-3.256
				C23.152,1.446,22.976,1.587,22.93,1.744L22.93,1.744z"/>
		</defs>
		<use xlink:href="#SVGID_5_"  overflow="visible" fill="#53843C"/>
		<clipPath id="SVGID_6_">
			<use xlink:href="#SVGID_5_"  overflow="visible"/>
		</clipPath>
		<g opacity="0.21" clip-path="url(#SVGID_6_)">
			<path fill="#FFFFFF" d="M25.569,9.443c1.853,0.141,1.493-3.409,1.279-4.468c-0.367-1.816-1.537-4.096-3.317-4.872
				c-0.401-0.175-0.685,0.338-0.459,0.646c0.571,0.784,1.293,1.392,1.745,2.273c0.485,0.947,0.753,2.062,0.693,3.127
				C25.488,6.544,24.651,9.374,25.569,9.443L25.569,9.443z"/>
		</g>
		<g opacity="0.19" clip-path="url(#SVGID_6_)">
			<path fill="#53843C" d="M23.284,3.841c0.769-1.145-0.221-3.033-1.321-3.584c-0.504-0.252-0.916,0.373-0.748,0.808
				c0.191,0.494,0.511,0.947,0.727,1.437c0.204,0.461,0.281,0.975,0.613,1.369C22.741,4.093,23.117,4.089,23.284,3.841L23.284,3.841
				z"/>
		</g>
	</g>
	<g>
		<path fill="#4A7436" d="M28.028,3.381c0.063,1.059-0.513,2.429-0.908,3.386c-0.461,1.115-1.17,2.137-1.376,3.337
			c-0.2,1.17,1.331,1.866,2.177,1.153c1.183-0.998,1.824-2.715,2.068-4.208c0.268-1.64-0.226-2.769-1.164-4.036
			C28.529,2.614,28.004,2.976,28.028,3.381L28.028,3.381z"/>
	</g>
	<g>
		<path fill="#53843C" d="M31.373,2.037c-0.828,2.198-1.984,4.059-3.457,5.882c-0.41,0.506-0.832,1.021-1.279,1.496
			c-0.351,0.37-0.838,0.707-1.105,1.145c-0.491,0.805-0.19,1.824,0.783,2.053c2.247,0.527,4.237-2.857,5.159-4.423
			c1.095-1.858,2.238-4.146,0.98-6.194C32.202,1.585,31.565,1.526,31.373,2.037L31.373,2.037z"/>
	</g>
	<g>
		<path fill="#53843C" d="M37.085,6.498c-0.706,0.707-1.762,0.924-2.688,1.218c-0.907,0.287-1.821,0.551-2.729,0.844
			c-1.062,0.342-2.128,0.674-3.183,1.04c-1.062,0.368-1.854,0.552-2.092,1.755c-0.072,0.369,0.162,0.699,0.42,0.924
			c0.93,0.809,2.068,0.154,3.081-0.189c1.192-0.404,2.375-0.849,3.559-1.281c2.013-0.734,3.278-1.793,4.423-3.58
			C38.192,6.737,37.543,6.04,37.085,6.498L37.085,6.498z"/>
	</g>
	<g>
		<defs>
			<path id="SVGID_7_" d="M28.028,3.381c0.063,1.059-0.513,2.429-0.908,3.386c-0.461,1.115-1.17,2.137-1.376,3.337
				c-0.2,1.17,1.331,1.866,2.177,1.153c1.183-0.998,1.824-2.715,2.068-4.208c0.268-1.64-0.226-2.769-1.164-4.036
				C28.529,2.614,28.004,2.976,28.028,3.381L28.028,3.381z"/>
		</defs>
		<clipPath id="SVGID_8_">
			<use xlink:href="#SVGID_7_"  overflow="visible"/>
		</clipPath>
		<g opacity="0.21" clip-path="url(#SVGID_8_)">
			<path fill="#FFFFFF" d="M29.756,6.538c0.351-1.018,0.621-1.822,0.199-2.875c-0.293-0.73-1.064-1.75-1.914-1.803
				c-0.108-0.006-0.219,0.09-0.192,0.206c0.146,0.646,0.643,1.235,0.899,1.854c0.327,0.786,0.839,1.725,0.858,2.582
				C29.609,6.583,29.726,6.628,29.756,6.538L29.756,6.538z"/>
		</g>
		<g opacity="0.19" clip-path="url(#SVGID_8_)">
			<path fill="#53843C" d="M26.623,9.845c0.517-1.476,0.944-2.976,1.491-4.444c0.381-1.021,1.27-2.729,0.391-3.69
				c-0.122-0.134-0.369-0.229-0.541-0.121c-0.605,0.383-0.73,0.919-0.928,1.58c-0.255,0.852-0.57,1.678-0.864,2.516
				c-0.439,1.253-1.15,3.15-0.077,4.25C26.25,10.095,26.541,10.079,26.623,9.845L26.623,9.845z"/>
		</g>
	</g>
	<g>
		<defs>
			<path id="SVGID_9_" d="M31.373,2.037c-0.828,2.198-1.984,4.059-3.457,5.882c-0.41,0.506-0.832,1.021-1.279,1.496
				c-0.351,0.37-0.838,0.707-1.105,1.145c-0.491,0.805-0.19,1.824,0.783,2.053c2.247,0.527,4.237-2.857,5.159-4.423
				c1.095-1.858,2.238-4.146,0.98-6.194C32.202,1.585,31.565,1.526,31.373,2.037L31.373,2.037z"/>
		</defs>
		<clipPath id="SVGID_10_">
			<use xlink:href="#SVGID_9_"  overflow="visible"/>
		</clipPath>
		<g opacity="0.21" clip-path="url(#SVGID_10_)">
			<path fill="#FFFFFF" d="M31.902,7.099c2.132-1.046,1.354-5.395,0.012-6.744c-0.163-0.164-0.46-0.101-0.487,0.15
				c-0.126,1.152,0.49,2.277,0.484,3.455c-0.004,0.98-0.472,1.785-0.59,2.725C31.282,6.993,31.625,7.233,31.902,7.099L31.902,7.099z
				"/>
		</g>
		<g opacity="0.19" clip-path="url(#SVGID_10_)">
			<path fill="#53843C" d="M29.662,6.277c0.723-0.958,1.37-1.977,1.886-3.063c0.346-0.729,1.01-2.017,0.369-2.731
				c-0.091-0.102-0.207-0.112-0.329-0.073c-0.851,0.271-1.017,1.609-1.223,2.359c-0.31,1.125-0.634,2.244-0.994,3.354
				C29.312,6.301,29.545,6.431,29.662,6.277L29.662,6.277z"/>
		</g>
	</g>
	<g>
		<defs>
			<path id="SVGID_11_" d="M37.085,6.498c-0.706,0.707-1.762,0.924-2.688,1.218c-0.907,0.287-1.821,0.551-2.729,0.844
				c-1.062,0.342-2.128,0.674-3.183,1.04c-1.062,0.368-1.854,0.552-2.092,1.755c-0.072,0.369,0.162,0.699,0.42,0.924
				c0.93,0.809,2.068,0.154,3.081-0.189c1.192-0.404,2.375-0.849,3.559-1.281c2.013-0.734,3.278-1.793,4.423-3.58
				C38.192,6.737,37.543,6.04,37.085,6.498L37.085,6.498z"/>
		</defs>
		<clipPath id="SVGID_12_">
			<use xlink:href="#SVGID_11_"  overflow="visible"/>
		</clipPath>
		<g opacity="0.21" clip-path="url(#SVGID_12_)">
			<path fill="#FFFFFF" d="M29.145,11.186c2.204,0.878,4.688-0.099,6.562-1.306c1.013-0.652,1.896-1.442,2.663-2.371
				c0.663-0.803,1.522-1.799,1.137-2.885c-0.102-0.286-0.447-0.332-0.692-0.251c-0.857,0.284-1.224,1.335-1.746,2.003
				c-0.654,0.837-1.454,1.58-2.319,2.197c-1.702,1.215-3.727,1.689-5.606,2.531C29.106,11.12,29.11,11.172,29.145,11.186
				L29.145,11.186z"/>
		</g>
	</g>
	<g>
		<defs>
			<path id="SVGID_13_" d="M36.323,1.724c-1.736,1.793-3.41,3.67-5.19,5.419c-0.823,0.81-1.689,1.57-2.656,2.206
				c-0.882,0.58-2.02,0.859-2.494,1.878c-0.093,0.198-0.038,0.493,0.11,0.65c1.857,1.966,5.119-1.141,6.39-2.467
				c2.04-2.13,3.634-4.315,4.715-7.065C37.388,1.857,36.721,1.313,36.323,1.724L36.323,1.724z"/>
		</defs>
		<use xlink:href="#SVGID_13_"  overflow="visible" fill="#598D3E"/>
		<clipPath id="SVGID_14_">
			<use xlink:href="#SVGID_13_"  overflow="visible"/>
		</clipPath>
		<g opacity="0.21" clip-path="url(#SVGID_14_)">
			<path fill="#FFFFFF" d="M32.832,8.317c1.419-0.187,2.647-2.21,3.285-3.339c0.638-1.128,1.679-3.054,1.008-4.338
				c-0.086-0.165-0.306-0.188-0.419-0.038C36.263,1.187,36.257,1.81,36.046,2.5c-0.25,0.823-0.619,1.604-1.074,2.333
				c-0.387,0.621-0.827,1.215-1.275,1.792C33.3,7.134,32.839,7.56,32.715,8.209C32.703,8.275,32.772,8.325,32.832,8.317
				L32.832,8.317z"/>
		</g>
		<g opacity="0.19" clip-path="url(#SVGID_14_)">
			<path fill="#53843C" d="M32.077,6.249c1.371-0.339,2.321-1.273,3.218-2.324c0.883-1.035,1.974-2.488,2.103-3.883
				c0.053-0.566-0.705-1.07-1.154-0.611c-0.917,0.936-1.467,2.287-2.222,3.365c-0.746,1.066-1.614,2.021-2.127,3.23
				C31.847,6.138,31.956,6.279,32.077,6.249L32.077,6.249z"/>
		</g>
	</g>
	<g>
		<defs>
			<path id="SVGID_15_" d="M40.671,10.038c-0.176,0.271-0.743,0.576-1.009,0.777c-0.521,0.393-1.058,0.541-1.706,0.58
				c-1.252,0.073-2.522-0.215-3.736-0.483c-1.776-0.394-5.755-1.759-6.608,0.679c-0.31,0.883,0.447,2.027,1.462,1.773
				c2.669-0.673,5.495,0.614,8.204,0.547c1.271-0.031,2.604-0.308,3.595-1.16c0.961-0.829,0.886-1.574,0.543-2.646
				C41.316,9.792,40.834,9.788,40.671,10.038L40.671,10.038z"/>
		</defs>
		<use xlink:href="#SVGID_15_"  overflow="visible" fill="#4A7436"/>
		<clipPath id="SVGID_16_">
			<use xlink:href="#SVGID_15_"  overflow="visible"/>
		</clipPath>
		<g opacity="0.21" clip-path="url(#SVGID_16_)">
			<path fill="#FFFFFF" d="M36.758,13.76c1.415,0.654,3.123,0.565,4.214-0.692c0.857-0.989,1.9-3.166,0.896-4.324
				c-0.242-0.279-0.633-0.109-0.703,0.216c-0.266,1.243-0.341,2.425-1.331,3.388c-0.485,0.473-1.002,0.591-1.649,0.717
				c-0.531,0.104-0.938,0.325-1.433,0.533C36.677,13.628,36.694,13.729,36.758,13.76L36.758,13.76z"/>
		</g>
		<g opacity="0.19" clip-path="url(#SVGID_16_)">
			<path fill="#53843C" d="M33.255,10.54c0.883,1.571,2.738,1.646,4.395,1.597c1.604-0.048,4.525-0.563,4.697-2.599
				c0.019-0.213-0.149-0.475-0.386-0.473c-1.348,0.01-2.634,0.859-3.995,1.014c-0.799,0.09-1.6,0.111-2.4,0.17
				c-0.474,0.035-1.453,0.373-1.848-0.004C33.512,10.046,33.088,10.242,33.255,10.54L33.255,10.54z"/>
		</g>
	</g>
	<g>
		<defs>
			<path id="SVGID_17_" d="M40.301,15.801c0.319-2.216-2.854-2.722-4.389-2.962c-1.017-0.16-2.053-0.258-3.032-0.592
				c-0.801-0.273-1.987-1.039-2.811-0.477c-0.453,0.309-0.521,1.121-0.311,1.587c0.191,0.423,0.676,0.773,1.052,1.012
				c0.87,0.552,1.925,0.777,2.926,0.96c1.031,0.188,2.072,0.229,3.108,0.369c0.995,0.134,2.018,0.738,3.025,0.563
				C40.104,16.222,40.269,16.028,40.301,15.801L40.301,15.801z"/>
		</defs>
		<use xlink:href="#SVGID_17_"  overflow="visible" fill="#53843C"/>
		<clipPath id="SVGID_18_">
			<use xlink:href="#SVGID_17_"  overflow="visible"/>
		</clipPath>
		<g opacity="0.21" clip-path="url(#SVGID_18_)">
			<path fill="#FFFFFF" d="M34.412,15.108c1.215,0.813,2.421,1.201,3.813,1.627c0.611,0.188,1.23,0.361,1.729,0.775
				c0.389,0.323,0.48,0.565,0.991,0.646c0.137,0.021,0.328-0.054,0.396-0.18c1.369-2.532-5.569-3.21-6.864-3.147
				C34.338,14.835,34.308,15.038,34.412,15.108L34.412,15.108z"/>
		</g>
		<g opacity="0.19" clip-path="url(#SVGID_18_)">
			<path fill="#53843C" d="M37.559,14.143c0.729,0.36,1.441,1.259,1.958,1.87c0.497,0.588,0.955,1.268,1.558,1.754
				c0.181,0.145,0.417,0.025,0.504-0.154c0.483-0.999-0.053-2.253-0.779-2.98c-0.384-0.384-0.833-0.693-1.336-0.904
				c-0.604-0.251-1.138-0.164-1.769-0.162C37.352,13.566,37.248,13.989,37.559,14.143L37.559,14.143z"/>
		</g>
	</g>
	<g>
		<defs>
			<path id="SVGID_19_" d="M2.814,38.905c-0.273-4.18-0.592-11.494,0.392-15.564c1.127-4.664,1.871-8.355,5.183-11.826
				c4.709-4.937,13.794-5.552,19.906-2.521c1.671,0.827,3.19,1.928,4.662,3.071c1.107,0.86,2.659,2.185,3.491,3.313
				c0.918,1.244,2.051,4.326,2.115,5.871c0.238,5.633-0.592,6.52-2.495,10.318c-1.904,3.797-4.907,6.982-8.372,9.439
				c-2.312,1.641-2.947,1.924-5.725,3.914c-1.774,1.27-4.436,3.195-6.41,4.123c-2.664,1.252-4.688,1.633-6.457,1.496
				c-2.098-0.16-3.851-1.188-4.633-3.287C3.364,44.284,3.007,42.06,2.814,38.905z"/>
		</defs>
		<use xlink:href="#SVGID_19_"  overflow="visible" fill="#CC2027"/>
		<clipPath id="SVGID_20_">
			<use xlink:href="#SVGID_19_"  overflow="visible"/>
		</clipPath>
		<g opacity="0.16" clip-path="url(#SVGID_20_)">
			<path fill="#FFFFFF" d="M4.816,51.468c1.213,1.766,3.994,2.141,5.975,1.957c2.541-0.236,5.009-1.48,7.127-2.826
				c4.288-2.725,7.371-6.572,11.105-9.936c3.601-3.246,7.704-6.096,10.07-10.449c1.218-2.24,1.894-4.651,1.868-7.215
				c-0.028-2.737-0.949-5.379-2.093-7.844c-1.192-2.571-3.105-4.618-5.141-6.542c-1.902-1.798-3.931-3.899-6.697-4.104
				c-1.233-0.092-2.051,1.363-1.239,2.339c2.588,3.113,6.434,5.207,8.588,8.706c1.125,1.827,0.977,3.762,0.979,5.816
				c0.001,2.043-0.016,3.858-0.93,5.734c-1.721,3.529-5.161,5.916-8.055,8.408c-3.239,2.791-5.915,6.197-9.279,8.842
				c-1.898,1.49-4.004,2.717-5.96,4.131c-0.911,0.66-1.881,1.324-2.929,1.748c-1.006,0.404-2.057,0.404-3.117,0.496
				C4.713,50.761,4.639,51.212,4.816,51.468L4.816,51.468z"/>
		</g>
		<g opacity="0.27" clip-path="url(#SVGID_20_)">
			<path fill="#CC2027" d="M6.101,49.366c-0.189-1.848-0.727-3.625-0.785-5.508c-0.061-1.979,0.197-3.982,0.54-5.926
				c0.731-4.141,1.499-8.291,2.391-12.399c0.776-3.577,1.577-7.587,3.68-10.646c0.898-1.306,1.962-2.401,3.226-3.36
				c1.287-0.977,2.554-2.064,4.092-2.662c1.81-0.702,3.685-0.645,5.585-0.607c1.056,0.02,1.973,0.063,3.021,0.205
				c1.063,0.143,2.061,0.056,3.108,0.091c0.561,0.019,0.912-0.594,0.557-1.052c-0.627-0.809-1.097-1.41-1.989-1.969
				c-0.938-0.586-1.98-0.843-3.012-1.21c-2.031-0.724-4.48-0.56-6.576-0.196c-2.012,0.35-4.267,0.825-6.124,1.629
				c-1.981,0.859-3.731,2.582-5.148,4.175c-3.102,3.486-4.385,7.988-5.425,12.437c-1.103,4.713-1.974,9.576-2.379,14.402
				c-0.22,2.607-0.347,5.371,0.28,7.936c0.502,2.055,1.63,5.24,4.015,5.674C5.75,50.485,6.154,49.884,6.101,49.366L6.101,49.366z"/>
		</g>
	</g>
	<g>
		<defs>
			<path id="SVGID_21_" d="M2.814,38.905c-0.273-4.18-0.592-11.494,0.392-15.564c1.127-4.664,1.871-8.355,5.183-11.826
				c4.709-4.937,13.794-5.552,19.906-2.521c1.671,0.827,3.19,1.928,4.662,3.071c1.107,0.86,2.659,2.185,3.491,3.313
				c0.918,1.244,2.051,4.326,2.115,5.871c0.238,5.633-0.592,6.52-2.495,10.318c-1.904,3.797-4.907,6.982-8.372,9.439
				c-2.312,1.641-2.947,1.924-5.725,3.914c-1.774,1.27-4.436,3.195-6.41,4.123c-2.664,1.252-4.688,1.633-6.457,1.496
				c-2.098-0.16-3.851-1.188-4.633-3.287C3.364,44.284,3.007,42.06,2.814,38.905z"/>
		</defs>
		<clipPath id="SVGID_22_">
			<use xlink:href="#SVGID_21_"  overflow="visible"/>
		</clipPath>
		<path opacity="0.08" clip-path="url(#SVGID_22_)" fill="#CC2027" d="M29.381,36.669c-1.754-0.555-3.502-1.154-5.175-1.922
			c-2.81-1.291-5.191-3.24-7.067-5.689c-3.535-4.617-5.193-11.375-3-16.924c1.212-3.066,4.254-5.557,7.71-5.148
			c1.972,0.233,2.408-2.453,0.759-3.229C18.803,1.965,14.721,3.46,12.02,6.449c-0.407,0.45-0.773,0.933-1.108,1.433
			c0.112-0.326,0.23-0.652,0.36-0.975c1.157-2.885-3.191-5.326-4.879-2.596c-1.909,3.088-3.693,6.168-4.33,9.793
			c-0.038,0.217-0.071,0.434-0.1,0.651c-0.882,0.329-1.563,1.064-1.56,2.208c0.005,1.967,0.036,3.922,0.26,5.846
			c-0.844,0.379-1.486,1.115-1.473,2.136c0.048,3.702,0.803,7.308,2.372,10.526c-0.045,0.137-0.082,0.281-0.108,0.434
			c-0.114,0.654-0.129,1.299-0.062,1.934c-0.303,0.807-0.359,1.746-0.19,2.596c0.279,1.4,0.99,2.684,1.876,3.803
			c-0.14,0.127-0.27,0.273-0.388,0.439c-0.791,1.115-0.634,3.057,0.646,3.799c0.61,0.354,1.149,0.783,1.616,1.287
			c0.347,0.713,0.8,1.373,1.364,1.955c0.898,0.926,2.212,1.293,3.372,0.717c0.373,0.271,0.75,0.537,1.136,0.791
			c1.795,1.184,4.033-0.098,4.46-1.809c0.1-0.092,0.192-0.189,0.277-0.291c0.475,0.164,0.951,0.32,1.429,0.463
			c1.451,0.438,3.058-0.15,3.618-1.637c0.161-0.426,0.204-0.881,0.146-1.324c0.241,0.068,0.482,0.137,0.722,0.203
			c1.467,0.406,3.063-0.131,3.635-1.645c0.179-0.471,0.207-1.004,0.11-1.516c1.263-0.227,2.303-0.98,2.708-2.127
			c0.498-0.178,0.978-0.439,1.433-0.803c0.597,0.086,1.196,0.145,1.801,0.164c1.599,0.057,3.05-1.23,2.737-2.928
			C33.47,37.636,31.309,37.278,29.381,36.669z"/>
		<path opacity="0.15" clip-path="url(#SVGID_22_)" fill="#CC2027" d="M22.99,38.782c-1.883-0.592-3.759-1.232-5.555-2.053
			c-3.017-1.379-5.573-3.463-7.586-6.084C6.056,25.707,4.28,18.478,6.638,12.538c1.305-3.283,4.572-5.949,8.282-5.515
			c2.117,0.248,2.588-2.626,0.816-3.456c-4.084-1.915-8.468-0.313-11.37,2.889C3.929,6.938,3.536,7.453,3.176,7.99
			C3.297,7.64,3.424,7.292,3.564,6.946c1.244-3.088-3.423-5.697-5.237-2.775c-2.053,3.307-3.97,6.604-4.655,10.482
			c-0.041,0.232-0.077,0.465-0.108,0.697c-0.946,0.353-1.678,1.141-1.676,2.363c0.005,2.105,0.037,4.199,0.276,6.256
			c-0.907,0.406-1.598,1.194-1.584,2.287c0.049,3.963,0.857,7.818,2.541,11.262c-0.048,0.148-0.088,0.303-0.117,0.465
			c-0.123,0.699-0.14,1.391-0.066,2.068c-0.326,0.863-0.388,1.871-0.207,2.779c0.3,1.498,1.063,2.871,2.012,4.068
			c-0.149,0.137-0.289,0.291-0.416,0.469c-0.851,1.195-0.683,3.273,0.69,4.066c0.655,0.377,1.234,0.838,1.735,1.375
			c0.371,0.764,0.857,1.471,1.463,2.092c0.965,0.99,2.375,1.383,3.621,0.766c0.4,0.289,0.805,0.574,1.218,0.846
			c1.928,1.266,4.331-0.107,4.79-1.938c0.108-0.1,0.208-0.203,0.298-0.313c0.51,0.176,1.021,0.342,1.535,0.494
			c1.558,0.467,3.282-0.162,3.886-1.752c0.173-0.457,0.22-0.945,0.158-1.42c0.258,0.074,0.517,0.146,0.774,0.217
			c1.574,0.436,3.289-0.139,3.904-1.76c0.191-0.506,0.223-1.076,0.119-1.623c1.355-0.242,2.474-1.051,2.909-2.277
			c0.534-0.191,1.05-0.473,1.539-0.861c0.64,0.092,1.284,0.154,1.934,0.176c1.716,0.059,3.275-1.32,2.94-3.135
			C27.379,39.815,25.059,39.433,22.99,38.782z"/>
		<path opacity="0.15" clip-path="url(#SVGID_22_)" fill="#CC2027" d="M22.574,43.571c-1.963-0.199-3.931-0.449-5.854-0.891
			c-3.232-0.74-6.157-2.266-8.658-4.426c-4.712-4.07-7.912-10.793-6.801-17.086c0.613-3.479,1.868-8.511,5.589-8.834
			C8.973,12.15,8.47,9.722,6.568,9.267c-4.387-1.05-6.565,2.684-8.762,6.404c-0.331,0.561-0.611,1.145-0.855,1.742
			c0.048-0.367,0.102-0.733,0.168-1.101c0.596-3.275-4.503-4.888-5.689-1.659c-1.342,3.652-2.554,7.269-2.442,11.207
			c0.007,0.234,0.019,0.469,0.035,0.703c-0.856,0.537-1.413,1.457-1.164,2.654c0.43,2.061,0.884,4.104,1.533,6.07
			c-0.806,0.58-1.322,1.492-1.089,2.561c0.848,3.869,2.419,7.484,4.764,10.516c-0.018,0.154-0.025,0.314-0.021,0.48
			c0.021,0.709,0.145,1.389,0.353,2.039c-0.146,0.91-0.002,1.91,0.358,2.762c0.597,1.408,1.62,2.598,2.792,3.58
			c-0.118,0.162-0.225,0.344-0.313,0.543c-0.592,1.342-0.008,3.342,1.497,3.842c0.718,0.238,1.378,0.572,1.978,0.996
			c0.518,0.674,1.137,1.268,1.854,1.754c1.146,0.775,2.606,0.875,3.702,0.02c0.45,0.203,0.903,0.398,1.363,0.582
			c2.143,0.85,4.221-0.98,4.3-2.865c0.086-0.119,0.162-0.24,0.229-0.367c0.535,0.07,1.07,0.129,1.604,0.176
			c1.62,0.141,3.182-0.822,3.452-2.502c0.077-0.482,0.023-0.969-0.133-1.422c0.269,0.02,0.536,0.039,0.803,0.057
			c1.631,0.107,3.193-0.803,3.468-2.514c0.086-0.533,0.002-1.098-0.211-1.613c1.279-0.512,2.211-1.529,2.39-2.818
			c0.485-0.295,0.934-0.674,1.334-1.152c0.646-0.041,1.289-0.109,1.929-0.219c1.693-0.291,2.941-1.955,2.247-3.666
			C27.083,43.696,24.733,43.79,22.574,43.571z"/>
		<path opacity="0.15" clip-path="url(#SVGID_22_)" fill="#CC2027" d="M20.973,45.622c-1.97,0.127-3.951,0.205-5.922,0.088
			c-3.311-0.197-6.446-1.221-9.269-2.939c-5.318-3.238-9.583-9.34-9.524-15.73c0.032-3.533,0.44-8.703,4.058-9.635
			c2.064-0.531,1.168-2.844-0.783-2.979c-4.5-0.313-6.033,3.728-7.587,7.76c-0.233,0.608-0.415,1.229-0.557,1.86
			c-0.014-0.369-0.021-0.74-0.016-1.113c0.048-3.329-5.246-4.08-5.885-0.699c-0.722,3.824-1.321,7.59-0.563,11.455
			c0.046,0.23,0.096,0.461,0.15,0.689c-0.756,0.67-1.154,1.668-0.711,2.809c0.764,1.963,1.549,3.902,2.514,5.734
			c-0.699,0.707-1.06,1.691-0.652,2.705c1.474,3.678,3.619,6.984,6.431,9.588c0.009,0.156,0.027,0.314,0.059,0.477
			c0.137,0.697,0.371,1.348,0.684,1.953c0.007,0.922,0.313,1.885,0.809,2.666c0.82,1.289,2.026,2.295,3.345,3.07
			c-0.091,0.18-0.165,0.375-0.219,0.586c-0.363,1.422,0.543,3.299,2.109,3.543c0.747,0.117,1.453,0.338,2.114,0.658
			c0.622,0.578,1.33,1.064,2.118,1.424c1.258,0.576,2.715,0.436,3.654-0.592c0.478,0.125,0.957,0.246,1.44,0.35
			c2.254,0.486,4.002-1.662,3.77-3.535c0.065-0.131,0.12-0.264,0.165-0.398c0.539-0.02,1.076-0.051,1.609-0.092
			c1.622-0.127,3.004-1.336,2.993-3.037c-0.003-0.486-0.137-0.959-0.364-1.379c0.268-0.025,0.535-0.051,0.801-0.078
			c1.626-0.162,3.018-1.316,3.006-3.049c-0.003-0.541-0.18-1.084-0.474-1.559c1.177-0.715,1.928-1.871,1.892-3.172
			c0.431-0.371,0.811-0.818,1.126-1.357c0.63-0.146,1.254-0.32,1.867-0.533c1.621-0.564,2.579-2.412,1.612-3.986
			C25.44,45.003,23.138,45.483,20.973,45.622z"/>
	</g>
	<path opacity="0.13" fill="#FFFFFF" d="M33.101,16.036c-2.012-4.135-7.617-4.512-11.433-3.035c-3.949,1.528-6.843,5.479-7.904,9.48
		c-0.591,2.227-0.816,4.486-0.81,6.785c0,0.193,0.003,0.387,0.006,0.58c-0.181,0.908-0.304,1.82-0.373,2.74
		c-0.062,0.42-0.119,0.84-0.168,1.262c-0.242,2.07-0.942,5.238,0.748,6.854c0.987,0.943,2.428,1.07,3.587,0.377
		c0.481-0.289,0.911-0.719,1.308-1.184c0.721-0.344,1.375-0.895,2.011-1.344c0.946-0.666,1.881-1.354,2.801-2.057
		c3.175-2.426,6.587-5.043,8.74-8.473C33.709,24.688,34.916,19.767,33.101,16.036z"/>
	<path opacity="0.1" fill="#FFFFFF" d="M31.718,17.657c-1.423-2.926-5.388-3.191-8.087-2.147c-2.794,1.081-4.84,3.876-5.591,6.706
		c-0.418,1.575-0.578,3.174-0.573,4.799c0.001,0.137,0.003,0.273,0.004,0.412c-0.127,0.641-0.215,1.287-0.264,1.938
		c-0.043,0.297-0.084,0.594-0.118,0.893c-0.172,1.465-0.667,3.705,0.528,4.848c0.699,0.668,1.718,0.758,2.537,0.268
		c0.341-0.205,0.646-0.508,0.926-0.838c0.51-0.244,0.973-0.633,1.422-0.949c0.67-0.473,1.331-0.959,1.982-1.455
		c2.245-1.717,4.659-3.568,6.183-5.994C32.149,23.777,33.002,20.296,31.718,17.657z"/>
	<path opacity="0.1" fill="#FFFFFF" d="M29.862,19.592c-0.856-1.76-3.242-1.921-4.867-1.292c-1.681,0.65-2.912,2.332-3.364,4.036
		c-0.251,0.947-0.348,1.909-0.345,2.888c0,0.082,0.001,0.164,0.002,0.247c1.02,6.849,7.024,0.683,7.941-0.776
		C30.121,23.274,30.634,21.18,29.862,19.592z"/>
	<g>
		<path opacity="0.52" fill="#D22927" d="M4.458,42.819c0.087-0.439,0.514-0.725,0.953-0.639c0.439,0.088,0.725,0.514,0.638,0.953
			c-0.086,0.439-1.058,1.168-1.058,1.168S4.371,43.259,4.458,42.819z"/>
		<path fill="#C44127" d="M4.796,42.962c0.047-0.236,0.277-0.391,0.514-0.344c0.237,0.047,0.392,0.277,0.345,0.514
			s-0.57,0.631-0.57,0.631S4.75,43.2,4.796,42.962z"/>
		<path opacity="0.25" fill="#FFFFFF" d="M5.174,43.085c0.017-0.086,0.1-0.143,0.186-0.125s0.142,0.1,0.125,0.186
			c-0.018,0.086-0.207,0.229-0.207,0.229S5.158,43.171,5.174,43.085z"/>
	</g>
	<g>
		<path opacity="0.52" fill="#D22927" d="M6.472,47.177c0.146-0.424,0.607-0.648,1.031-0.502c0.423,0.146,0.648,0.607,0.502,1.031
			s-1.207,1.012-1.207,1.012S6.327,47.601,6.472,47.177z"/>
		<path fill="#C44127" d="M6.789,47.364c0.079-0.229,0.328-0.35,0.556-0.27c0.229,0.078,0.35,0.328,0.271,0.555
			c-0.078,0.229-0.65,0.547-0.65,0.547S6.709,47.593,6.789,47.364z"/>
		<path opacity="0.18" fill="#FFFFFF" d="M7.146,47.538c0.028-0.084,0.118-0.127,0.201-0.098c0.082,0.027,0.126,0.117,0.098,0.201
			c-0.028,0.082-0.235,0.197-0.235,0.197S7.118,47.62,7.146,47.538z"/>
	</g>
	<g>
		<path opacity="0.52" fill="#D22927" d="M11.586,45.53c0.263-0.363,0.77-0.445,1.133-0.184c0.362,0.264,0.444,0.77,0.182,1.133
			s-1.449,0.621-1.449,0.621S11.325,45.892,11.586,45.53z"/>
		<path fill="#C44127" d="M11.834,45.802c0.142-0.195,0.415-0.24,0.611-0.098c0.195,0.141,0.239,0.414,0.098,0.609
			s-0.781,0.334-0.781,0.334S11.694,45.997,11.834,45.802z"/>
		<path opacity="0.18" fill="#FFFFFF" d="M12.126,46.069c0.052-0.07,0.15-0.086,0.221-0.035c0.071,0.051,0.087,0.15,0.036,0.221
			s-0.282,0.121-0.282,0.121S12.076,46.142,12.126,46.069z"/>
	</g>
	<g>
		<path opacity="0.52" fill="#D22927" d="M13.179,47.538c0.262-0.361,0.77-0.443,1.132-0.182c0.363,0.262,0.444,0.77,0.183,1.133
			c-0.263,0.363-1.449,0.619-1.449,0.619S12.917,47.901,13.179,47.538z"/>
		<path fill="#C44127" d="M13.427,47.812c0.142-0.197,0.415-0.24,0.61-0.1c0.196,0.143,0.24,0.416,0.099,0.611
			s-0.781,0.334-0.781,0.334S13.286,48.007,13.427,47.812z"/>
		<path opacity="0.18" fill="#FFFFFF" d="M13.719,48.079c0.051-0.07,0.15-0.086,0.221-0.035s0.087,0.15,0.035,0.221
			c-0.051,0.07-0.282,0.121-0.282,0.121S13.667,48.149,13.719,48.079z"/>
	</g>
	<g>
		<path opacity="0.52" fill="#D22927" d="M6.757,43.597c0.262-0.363,0.769-0.445,1.132-0.184c0.363,0.264,0.444,0.77,0.182,1.133
			c-0.262,0.363-1.448,0.621-1.448,0.621S6.495,43.96,6.757,43.597z"/>
		<path fill="#C44127" d="M7.005,43.868c0.142-0.195,0.415-0.24,0.61-0.098c0.195,0.141,0.239,0.414,0.098,0.609
			c-0.141,0.195-0.78,0.334-0.78,0.334S6.864,44.063,7.005,43.868z"/>
		<path opacity="0.18" fill="#FFFFFF" d="M7.297,44.138c0.051-0.072,0.149-0.088,0.221-0.037c0.07,0.051,0.087,0.15,0.035,0.221
			c-0.051,0.072-0.282,0.121-0.282,0.121S7.246,44.208,7.297,44.138z"/>
	</g>
	<g>
		<path opacity="0.52" fill="#D22927" d="M9.715,40.716c0.111-0.434,0.554-0.693,0.987-0.582c0.434,0.113,0.694,0.555,0.582,0.988
			c-0.111,0.434-1.123,1.105-1.123,1.105S9.603,41.149,9.715,40.716z"/>
		<path fill="#C44127" d="M10.045,40.88c0.06-0.234,0.299-0.375,0.532-0.314c0.234,0.061,0.374,0.299,0.314,0.533
			c-0.061,0.232-0.606,0.596-0.606,0.596S9.985,41.112,10.045,40.88z"/>
		<path opacity="0.18" fill="#FFFFFF" d="M10.415,41.022c0.022-0.084,0.108-0.135,0.193-0.113c0.084,0.021,0.135,0.109,0.113,0.193
			s-0.219,0.215-0.219,0.215S10.393,41.108,10.415,41.022z"/>
	</g>
	<g>
		<path opacity="0.52" fill="#D22927" d="M6.195,37.075c0.111-0.434,0.554-0.695,0.987-0.582c0.434,0.111,0.694,0.553,0.582,0.986
			c-0.111,0.434-1.123,1.105-1.123,1.105S6.083,37.509,6.195,37.075z"/>
		<path fill="#C44127" d="M6.525,37.237c0.061-0.234,0.299-0.375,0.532-0.314c0.234,0.061,0.375,0.299,0.314,0.533
			s-0.605,0.596-0.605,0.596S6.464,37.472,6.525,37.237z"/>
		<path opacity="0.18" fill="#FFFFFF" d="M6.895,37.382c0.021-0.086,0.107-0.137,0.192-0.115c0.084,0.023,0.136,0.109,0.113,0.193
			c-0.021,0.084-0.219,0.215-0.219,0.215S6.873,37.466,6.895,37.382z"/>
	</g>
	<g>
		<path opacity="0.52" fill="#D22927" d="M6.042,33.825c0.112-0.434,0.555-0.695,0.988-0.582c0.434,0.111,0.694,0.553,0.582,0.986
			c-0.111,0.434-1.123,1.107-1.123,1.107S5.93,34.259,6.042,33.825z"/>
		<path fill="#C44127" d="M6.373,33.987c0.061-0.234,0.299-0.375,0.532-0.314c0.234,0.061,0.375,0.299,0.314,0.533
			s-0.605,0.596-0.605,0.596S6.312,34.222,6.373,33.987z"/>
		<path opacity="0.15" fill="#FFFFFF" d="M6.742,34.132c0.022-0.086,0.108-0.137,0.193-0.113c0.084,0.021,0.135,0.107,0.113,0.191
			S6.83,34.427,6.83,34.427S6.72,34.216,6.742,34.132z"/>
	</g>
	<g>
		<path opacity="0.52" fill="#D22927" d="M8.438,33.903c0.111-0.434,0.554-0.695,0.987-0.582c0.434,0.111,0.694,0.553,0.583,0.988
			c-0.112,0.432-1.124,1.105-1.124,1.105S8.326,34.337,8.438,33.903z"/>
		<path fill="#C44127" d="M8.768,34.065c0.061-0.234,0.299-0.375,0.532-0.314c0.234,0.061,0.375,0.299,0.314,0.533
			S9.009,34.88,9.009,34.88S8.708,34.3,8.768,34.065z"/>
		<path opacity="0.15" fill="#FFFFFF" d="M9.138,34.21c0.021-0.086,0.107-0.137,0.192-0.113c0.084,0.021,0.136,0.107,0.113,0.191
			c-0.021,0.084-0.219,0.217-0.219,0.217S9.116,34.294,9.138,34.21z"/>
	</g>
	<g>
		<path opacity="0.52" fill="#D22927" d="M9.16,37.216c0.112-0.434,0.555-0.695,0.988-0.582c0.434,0.111,0.694,0.555,0.582,0.988
			c-0.111,0.434-1.123,1.105-1.123,1.105S9.048,37.649,9.16,37.216z"/>
		<path fill="#C44127" d="M9.491,37.378c0.061-0.232,0.299-0.373,0.532-0.314c0.234,0.061,0.374,0.301,0.314,0.533
			c-0.061,0.234-0.605,0.596-0.605,0.596S9.43,37.612,9.491,37.378z"/>
		<path opacity="0.18" fill="#FFFFFF" d="M9.86,37.522c0.022-0.084,0.108-0.137,0.193-0.113c0.084,0.021,0.135,0.107,0.113,0.191
			c-0.021,0.086-0.219,0.217-0.219,0.217S9.838,37.606,9.86,37.522z"/>
	</g>
	<g>
		<path opacity="0.52" fill="#D22927" d="M4.902,30.522c0.112-0.434,0.555-0.693,0.988-0.582s0.694,0.555,0.582,0.988
			s-1.123,1.105-1.123,1.105S4.79,30.956,4.902,30.522z"/>
		<path fill="#C44127" d="M5.232,30.687c0.061-0.234,0.299-0.375,0.533-0.314c0.233,0.061,0.374,0.299,0.313,0.533
			c-0.061,0.232-0.605,0.596-0.605,0.596S5.171,30.919,5.232,30.687z"/>
		<path opacity="0.15" fill="#FFFFFF" d="M5.602,30.829c0.021-0.084,0.108-0.135,0.192-0.113c0.085,0.021,0.136,0.107,0.114,0.193
			c-0.022,0.084-0.22,0.215-0.22,0.215S5.581,30.913,5.602,30.829z"/>
	</g>
	<g>
		<path opacity="0.52" fill="#D22927" d="M4.132,23.522c0.112-0.433,0.555-0.693,0.988-0.582c0.434,0.112,0.694,0.555,0.582,0.988
			S4.58,25.034,4.58,25.034S4.021,23.956,4.132,23.522z"/>
		<path fill="#C44127" d="M4.462,23.686c0.061-0.233,0.3-0.374,0.533-0.313s0.374,0.299,0.313,0.532s-0.605,0.597-0.605,0.597
			S4.403,23.919,4.462,23.686z"/>
		<path opacity="0.15" fill="#FFFFFF" d="M4.833,23.829c0.021-0.084,0.108-0.135,0.192-0.113c0.085,0.021,0.136,0.108,0.114,0.193
			c-0.022,0.084-0.22,0.215-0.22,0.215S4.811,23.914,4.833,23.829z"/>
	</g>
	<g>
		<path opacity="0.52" fill="#D22927" d="M13.851,33.595c0.112-0.434,0.555-0.693,0.988-0.582s0.694,0.555,0.582,0.988
			c-0.111,0.434-1.123,1.105-1.123,1.105S13.74,34.028,13.851,33.595z"/>
		<path fill="#C44127" d="M14.182,33.757c0.061-0.232,0.299-0.373,0.532-0.313c0.234,0.061,0.375,0.299,0.314,0.531
			c-0.061,0.234-0.605,0.598-0.605,0.598S14.122,33.991,14.182,33.757z"/>
		<path opacity="0.17" fill="#FFFFFF" d="M14.551,33.901c0.022-0.084,0.108-0.135,0.193-0.113c0.084,0.021,0.135,0.107,0.113,0.193
			c-0.021,0.084-0.219,0.215-0.219,0.215S14.53,33.985,14.551,33.901z"/>
	</g>
	<g>
		<path opacity="0.52" fill="#D22927" d="M12.208,36.247c0.112-0.434,0.555-0.693,0.988-0.582s0.694,0.555,0.582,0.988
			s-1.123,1.105-1.123,1.105S12.095,36.681,12.208,36.247z"/>
		<path fill="#C44127" d="M12.538,36.409c0.061-0.232,0.3-0.373,0.533-0.313s0.374,0.299,0.313,0.531
			c-0.06,0.234-0.605,0.598-0.605,0.598S12.477,36.644,12.538,36.409z"/>
		<path opacity="0.18" fill="#FFFFFF" d="M12.908,36.554c0.021-0.084,0.108-0.135,0.192-0.113c0.085,0.021,0.136,0.107,0.114,0.191
			c-0.022,0.086-0.22,0.217-0.22,0.217S12.886,36.638,12.908,36.554z"/>
	</g>
	<g>
		<path opacity="0.52" fill="#D22927" d="M6.967,40.581c0.111-0.434,0.554-0.693,0.987-0.582c0.434,0.113,0.694,0.555,0.583,0.988
			c-0.112,0.434-1.124,1.105-1.124,1.105S6.855,41.015,6.967,40.581z"/>
		<path fill="#C44127" d="M7.297,40.745c0.061-0.234,0.299-0.375,0.532-0.314c0.234,0.061,0.375,0.299,0.314,0.533
			c-0.061,0.232-0.605,0.596-0.605,0.596S7.237,40.978,7.297,40.745z"/>
		<path opacity="0.18" fill="#FFFFFF" d="M7.667,40.888c0.022-0.084,0.108-0.135,0.193-0.113c0.084,0.021,0.135,0.107,0.113,0.193
			c-0.021,0.084-0.219,0.215-0.219,0.215S7.645,40.972,7.667,40.888z"/>
	</g>
	<g>
		<path opacity="0.52" fill="#D22927" d="M17.317,25.656c0.112-0.434,0.555-0.694,0.988-0.583c0.434,0.113,0.694,0.555,0.582,0.988
			s-1.123,1.105-1.123,1.105S17.205,26.089,17.317,25.656z"/>
		<path fill="#C44127" d="M17.647,25.819c0.061-0.234,0.299-0.375,0.533-0.314c0.233,0.061,0.374,0.299,0.313,0.533
			c-0.061,0.232-0.605,0.596-0.605,0.596S17.586,26.052,17.647,25.819z"/>
		<path opacity="0.18" fill="#FFFFFF" d="M18.017,25.962c0.021-0.084,0.108-0.135,0.192-0.113c0.085,0.021,0.136,0.109,0.114,0.193
			c-0.022,0.084-0.22,0.215-0.22,0.215S17.995,26.048,18.017,25.962z"/>
	</g>
	<g>
		<path opacity="0.52" fill="#D22927" d="M14.571,26.284c0.112-0.434,0.555-0.695,0.988-0.583s0.694,0.554,0.582,0.987
			c-0.111,0.434-1.123,1.105-1.123,1.105S14.459,26.718,14.571,26.284z"/>
		<path fill="#C44127" d="M14.902,26.446c0.061-0.234,0.299-0.375,0.532-0.314s0.375,0.299,0.314,0.533s-0.606,0.596-0.606,0.596
			S14.841,26.681,14.902,26.446z"/>
		<path opacity="0.17" fill="#FFFFFF" d="M15.271,26.589c0.022-0.084,0.108-0.135,0.193-0.113c0.084,0.021,0.135,0.109,0.113,0.193
			s-0.219,0.215-0.219,0.215S15.25,26.675,15.271,26.589z"/>
	</g>
	<g>
		<path opacity="0.52" fill="#D22927" d="M20.384,22.416c0.217-0.392,0.71-0.534,1.103-0.317c0.392,0.216,0.534,0.709,0.317,1.102
			c-0.216,0.393-1.363,0.791-1.363,0.791S20.168,22.808,20.384,22.416z"/>
		<path fill="#C44127" d="M20.664,22.655c0.117-0.211,0.383-0.287,0.595-0.171c0.211,0.116,0.288,0.383,0.171,0.595
			c-0.116,0.211-0.734,0.426-0.734,0.426S20.547,22.867,20.664,22.655z"/>
		<path opacity="0.29" fill="#FFFFFF" d="M20.986,22.888c0.043-0.077,0.139-0.104,0.216-0.063c0.076,0.042,0.104,0.139,0.062,0.215
			s-0.266,0.154-0.266,0.154S20.944,22.964,20.986,22.888z"/>
	</g>
	<g>
		<path opacity="0.52" fill="#D22927" d="M24.096,16.418c0.217-0.392,0.71-0.534,1.103-0.317c0.392,0.216,0.534,0.709,0.317,1.102
			c-0.216,0.392-1.362,0.791-1.362,0.791S23.88,16.81,24.096,16.418z"/>
		<path fill="#C44127" d="M24.376,16.657c0.116-0.211,0.382-0.287,0.594-0.171c0.211,0.116,0.288,0.383,0.171,0.594
			c-0.116,0.212-0.734,0.427-0.734,0.427S24.259,16.869,24.376,16.657z"/>
		<path opacity="0.21" fill="#FFFFFF" d="M24.699,16.889c0.042-0.076,0.138-0.104,0.215-0.062c0.076,0.042,0.104,0.139,0.062,0.215
			s-0.266,0.154-0.266,0.154S24.657,16.966,24.699,16.889z"/>
	</g>
	<g>
		<path opacity="0.52" fill="#D22927" d="M26.658,18.265c0.217-0.393,0.71-0.535,1.102-0.318c0.393,0.217,0.534,0.709,0.318,1.102
			c-0.217,0.393-1.363,0.791-1.363,0.791S26.441,18.656,26.658,18.265z"/>
		<path fill="#C44127" d="M26.937,18.504c0.117-0.212,0.383-0.288,0.594-0.171c0.212,0.116,0.289,0.383,0.172,0.594
			s-0.735,0.426-0.735,0.426S26.821,18.716,26.937,18.504z"/>
		<path opacity="0.21" fill="#FFFFFF" d="M27.259,18.735c0.042-0.076,0.139-0.104,0.215-0.063c0.077,0.043,0.104,0.139,0.063,0.215
			c-0.042,0.077-0.267,0.154-0.267,0.154S27.217,18.812,27.259,18.735z"/>
	</g>
	<g>
		<path opacity="0.52" fill="#D22927" d="M21.292,17.894c0.216-0.393,0.709-0.535,1.102-0.318c0.392,0.217,0.534,0.709,0.318,1.102
			c-0.217,0.393-1.363,0.791-1.363,0.791S21.075,18.285,21.292,17.894z"/>
		<path fill="#C44127" d="M21.571,18.133c0.116-0.212,0.383-0.288,0.594-0.171c0.212,0.116,0.288,0.383,0.172,0.594
			c-0.117,0.211-0.735,0.427-0.735,0.427S21.454,18.345,21.571,18.133z"/>
		<path opacity="0.21" fill="#FFFFFF" d="M21.893,18.364c0.042-0.076,0.139-0.104,0.215-0.063c0.076,0.043,0.104,0.139,0.063,0.215
			c-0.043,0.076-0.267,0.154-0.267,0.154S21.851,18.44,21.893,18.364z"/>
	</g>
	<g>
		<path opacity="0.52" fill="#D22927" d="M17.768,21.607c0.216-0.392,0.709-0.534,1.102-0.317c0.392,0.216,0.534,0.709,0.317,1.102
			c-0.216,0.392-1.362,0.791-1.362,0.791S17.551,21.999,17.768,21.607z"/>
		<path fill="#C44127" d="M18.047,21.847c0.116-0.211,0.382-0.287,0.594-0.171c0.211,0.116,0.288,0.383,0.172,0.594
			c-0.117,0.212-0.735,0.427-0.735,0.427S17.93,22.059,18.047,21.847z"/>
		<path opacity="0.29" fill="#FFFFFF" d="M18.37,22.079c0.042-0.077,0.139-0.105,0.215-0.063c0.076,0.042,0.104,0.139,0.062,0.215
			c-0.042,0.076-0.266,0.154-0.266,0.154S18.327,22.155,18.37,22.079z"/>
	</g>
	<g>
		<path opacity="0.52" fill="#D22927" d="M29.675,14.889c0.074-0.442,0.493-0.739,0.935-0.665c0.441,0.075,0.739,0.494,0.664,0.936
			c-0.074,0.441-1.024,1.197-1.024,1.197S29.6,15.33,29.675,14.889z"/>
		<path fill="#C44127" d="M30.018,15.022c0.04-0.238,0.266-0.398,0.504-0.358s0.398,0.267,0.358,0.505
			c-0.04,0.237-0.553,0.645-0.553,0.645S29.978,15.261,30.018,15.022z"/>
		<path opacity="0.21" fill="#FFFFFF" d="M30.399,15.134c0.015-0.086,0.096-0.144,0.183-0.129c0.086,0.014,0.144,0.096,0.129,0.182
			s-0.199,0.234-0.199,0.234S30.384,15.22,30.399,15.134z"/>
	</g>
	<g>
		<path opacity="0.52" fill="#D22927" d="M31.222,12.879c0.074-0.441,0.493-0.739,0.935-0.664s0.739,0.493,0.664,0.935
			c-0.074,0.441-1.024,1.197-1.024,1.197S31.148,13.321,31.222,12.879z"/>
		<path fill="#C44127" d="M31.565,13.013c0.04-0.238,0.266-0.398,0.504-0.357c0.238,0.039,0.398,0.266,0.358,0.504
			s-0.553,0.645-0.553,0.645S31.525,13.251,31.565,13.013z"/>
		<path opacity="0.21" fill="#FFFFFF" d="M31.946,13.124c0.015-0.086,0.096-0.144,0.183-0.129c0.086,0.015,0.144,0.096,0.129,0.182
			c-0.015,0.087-0.199,0.234-0.199,0.234S31.931,13.211,31.946,13.124z"/>
	</g>
	<g>
		<path opacity="0.52" fill="#D22927" d="M26.715,15.204c0.074-0.441,0.493-0.738,0.935-0.664c0.441,0.075,0.738,0.493,0.664,0.936
			c-0.074,0.441-1.024,1.197-1.024,1.197S26.64,15.646,26.715,15.204z"/>
		<path fill="#C44127" d="M27.058,15.339c0.04-0.238,0.266-0.398,0.504-0.358s0.398,0.266,0.358,0.504
			c-0.041,0.238-0.553,0.646-0.553,0.646S27.018,15.577,27.058,15.339z"/>
		<path opacity="0.21" fill="#FFFFFF" d="M27.439,15.45c0.015-0.086,0.096-0.145,0.182-0.129c0.087,0.014,0.145,0.096,0.13,0.182
			s-0.2,0.234-0.2,0.234S27.424,15.536,27.439,15.45z"/>
	</g>
	<g>
		<path opacity="0.52" fill="#D22927" d="M27.815,12.764c0.075-0.441,0.493-0.739,0.935-0.665c0.442,0.076,0.739,0.494,0.665,0.936
			c-0.075,0.441-1.025,1.197-1.025,1.197S27.741,13.206,27.815,12.764z"/>
		<path fill="#C44127" d="M28.159,12.897c0.04-0.238,0.266-0.398,0.504-0.357c0.237,0.039,0.398,0.266,0.357,0.504
			c-0.04,0.238-0.552,0.645-0.552,0.645S28.118,13.136,28.159,12.897z"/>
		<path opacity="0.21" fill="#FFFFFF" d="M28.539,13.009c0.015-0.086,0.097-0.144,0.183-0.129s0.145,0.096,0.13,0.182
			c-0.015,0.087-0.2,0.234-0.2,0.234S28.524,13.096,28.539,13.009z"/>
	</g>
	<g>
		<path opacity="0.52" fill="#D22927" d="M30.148,18.367c0.075-0.442,0.493-0.739,0.935-0.665c0.442,0.075,0.739,0.494,0.665,0.936
			c-0.075,0.441-1.025,1.197-1.025,1.197S30.074,18.809,30.148,18.367z"/>
		<path fill="#C44127" d="M30.491,18.501c0.041-0.238,0.267-0.398,0.505-0.358c0.237,0.04,0.398,0.267,0.357,0.505
			c-0.04,0.237-0.553,0.645-0.553,0.645S30.451,18.739,30.491,18.501z"/>
		<path opacity="0.21" fill="#FFFFFF" d="M30.872,18.612c0.015-0.086,0.097-0.144,0.183-0.129c0.086,0.014,0.145,0.096,0.13,0.182
			s-0.2,0.234-0.2,0.234S30.857,18.698,30.872,18.612z"/>
	</g>
	<g>
		<path opacity="0.52" fill="#D22927" d="M28.259,9.962c0.379-0.238,0.879-0.123,1.117,0.256s0.123,0.88-0.256,1.118
			c-0.38,0.237-1.576,0.03-1.576,0.03S27.879,10.2,28.259,9.962z"/>
		<path fill="#C44127" d="M28.387,10.308c0.204-0.129,0.475-0.066,0.603,0.137c0.128,0.205,0.066,0.475-0.139,0.604
			c-0.204,0.129-0.85,0.017-0.85,0.017S28.182,10.435,28.387,10.308z"/>
		<path opacity="0.29" fill="#FFFFFF" d="M28.557,10.665c0.073-0.046,0.171-0.023,0.218,0.051c0.046,0.074,0.023,0.172-0.05,0.218
			c-0.074,0.046-0.308,0.006-0.308,0.006S28.483,10.712,28.557,10.665z"/>
	</g>
	<g>
		<path opacity="0.52" fill="#D22927" d="M22.737,10.524c0.364-0.261,0.871-0.176,1.131,0.188c0.261,0.364,0.176,0.871-0.188,1.132
			c-0.365,0.26-1.571,0.124-1.571,0.124S22.373,10.784,22.737,10.524z"/>
		<path fill="#C44127" d="M22.885,10.86c0.196-0.14,0.47-0.094,0.61,0.103c0.14,0.196,0.094,0.47-0.103,0.61
			c-0.196,0.14-0.847,0.066-0.847,0.066S22.689,11.001,22.885,10.86z"/>
		<path opacity="0.29" fill="#FFFFFF" d="M23.076,11.209c0.071-0.052,0.17-0.034,0.221,0.036c0.051,0.072,0.034,0.17-0.036,0.221
			c-0.071,0.051-0.307,0.025-0.307,0.025S23.005,11.259,23.076,11.209z"/>
	</g>
	<g>
		<path opacity="0.52" fill="#D22927" d="M20.497,7.917c0.364-0.261,0.871-0.176,1.131,0.189c0.261,0.363,0.176,0.87-0.189,1.131
			c-0.364,0.26-1.57,0.125-1.57,0.125S20.132,8.177,20.497,7.917z"/>
		<path fill="#C44127" d="M20.645,8.253c0.196-0.14,0.47-0.094,0.609,0.103c0.141,0.196,0.095,0.47-0.102,0.61
			c-0.196,0.14-0.847,0.066-0.847,0.066S20.449,8.394,20.645,8.253z"/>
		<path opacity="0.17" fill="#FFFFFF" d="M20.835,8.601c0.071-0.051,0.17-0.033,0.221,0.037c0.051,0.072,0.034,0.17-0.036,0.221
			c-0.071,0.051-0.307,0.025-0.307,0.025S20.764,8.652,20.835,8.601z"/>
	</g>
	<g>
		<path opacity="0.52" fill="#D22927" d="M15.587,11.467c0.364-0.261,0.87-0.175,1.131,0.188c0.26,0.365,0.175,0.871-0.189,1.132
			s-1.571,0.124-1.571,0.124S15.222,11.728,15.587,11.467z"/>
		<path fill="#C44127" d="M15.735,11.804c0.197-0.141,0.47-0.095,0.61,0.102c0.141,0.197,0.095,0.471-0.103,0.61
			c-0.196,0.14-0.847,0.067-0.847,0.067S15.539,11.944,15.735,11.804z"/>
		<path opacity="0.17" fill="#FFFFFF" d="M15.926,12.151c0.071-0.051,0.17-0.034,0.221,0.037s0.034,0.17-0.037,0.221
			s-0.307,0.024-0.307,0.024S15.855,12.202,15.926,12.151z"/>
	</g>
	<g>
		<path opacity="0.52" fill="#D22927" d="M24.549,12.372c0.364-0.26,0.87-0.176,1.131,0.189c0.26,0.364,0.175,0.871-0.189,1.131
			s-1.571,0.125-1.571,0.125S24.184,12.632,24.549,12.372z"/>
		<path fill="#C44127" d="M24.697,12.71c0.197-0.141,0.47-0.096,0.61,0.102c0.141,0.196,0.095,0.469-0.102,0.609
			c-0.197,0.141-0.848,0.067-0.848,0.067S24.5,12.85,24.697,12.71z"/>
		<path opacity="0.29" fill="#FFFFFF" d="M24.888,13.058c0.071-0.051,0.17-0.035,0.221,0.036s0.034,0.17-0.037,0.221
			s-0.307,0.024-0.307,0.024S24.817,13.108,24.888,13.058z"/>
	</g>
	<g>
		<path opacity="0.52" fill="#D22927" d="M25.5,9.47c0.364-0.261,0.871-0.176,1.131,0.188c0.261,0.364,0.176,0.871-0.189,1.132
			c-0.364,0.26-1.57,0.124-1.57,0.124S25.135,9.729,25.5,9.47z"/>
		<path fill="#C44127" d="M25.648,9.806c0.196-0.14,0.47-0.094,0.609,0.103c0.141,0.196,0.095,0.47-0.102,0.61
			c-0.196,0.14-0.848,0.066-0.848,0.066S25.451,9.946,25.648,9.806z"/>
		<path opacity="0.29" fill="#FFFFFF" d="M25.838,10.153c0.071-0.051,0.17-0.033,0.221,0.037c0.051,0.072,0.034,0.17-0.037,0.221
			c-0.07,0.051-0.307,0.025-0.307,0.025S25.767,10.204,25.838,10.153z"/>
	</g>
	<g>
		<path opacity="0.52" fill="#D22927" d="M18.734,12.002c0.364-0.261,0.87-0.175,1.131,0.188c0.26,0.365,0.175,0.871-0.189,1.131
			c-0.364,0.261-1.571,0.125-1.571,0.125S18.369,12.262,18.734,12.002z"/>
		<path fill="#C44127" d="M18.882,12.339c0.196-0.141,0.469-0.095,0.609,0.102c0.141,0.197,0.095,0.471-0.102,0.61
			c-0.197,0.14-0.848,0.067-0.848,0.067S18.685,12.479,18.882,12.339z"/>
		<path opacity="0.17" fill="#FFFFFF" d="M19.073,12.687c0.071-0.051,0.17-0.034,0.221,0.037c0.051,0.07,0.034,0.17-0.037,0.221
			s-0.307,0.023-0.307,0.023S19.001,12.737,19.073,12.687z"/>
	</g>
	<g>
		<path opacity="0.52" fill="#D22927" d="M23.759,26.782c0.217-0.393,0.71-0.535,1.103-0.318c0.392,0.217,0.534,0.709,0.317,1.102
			c-0.216,0.393-1.363,0.791-1.363,0.791S23.543,27.173,23.759,26.782z"/>
		<path fill="#C44127" d="M24.039,27.021c0.117-0.211,0.383-0.287,0.595-0.17c0.211,0.115,0.288,0.383,0.171,0.594
			c-0.116,0.211-0.734,0.426-0.734,0.426S23.922,27.233,24.039,27.021z"/>
		<path opacity="0.21" fill="#FFFFFF" d="M24.362,27.253c0.042-0.076,0.138-0.105,0.215-0.063c0.076,0.043,0.104,0.139,0.062,0.215
			s-0.266,0.154-0.266,0.154S24.319,27.329,24.362,27.253z"/>
	</g>
	<g>
		<path opacity="0.52" fill="#D22927" d="M24.751,28.731c0.216-0.393,0.709-0.533,1.102-0.318c0.392,0.217,0.534,0.711,0.318,1.102
			c-0.217,0.393-1.363,0.793-1.363,0.793S24.535,29.124,24.751,28.731z"/>
		<path fill="#C44127" d="M25.031,28.972c0.116-0.211,0.383-0.289,0.594-0.172c0.212,0.117,0.288,0.383,0.172,0.594
			c-0.117,0.213-0.735,0.428-0.735,0.428S24.914,29.183,25.031,28.972z"/>
		<path opacity="0.21" fill="#FFFFFF" d="M25.353,29.202c0.042-0.076,0.139-0.104,0.215-0.061c0.076,0.041,0.104,0.139,0.062,0.215
			c-0.042,0.076-0.266,0.154-0.266,0.154S25.311,29.28,25.353,29.202z"/>
	</g>
	<g>
		<path opacity="0.52" fill="#D22927" d="M23.124,32.421c0.217-0.393,0.71-0.535,1.102-0.318c0.393,0.217,0.535,0.709,0.318,1.102
			s-1.363,0.791-1.363,0.791S22.907,32.813,23.124,32.421z"/>
		<path fill="#C44127" d="M23.403,32.661c0.117-0.213,0.383-0.289,0.595-0.172c0.211,0.117,0.288,0.383,0.171,0.594
			c-0.116,0.211-0.734,0.426-0.734,0.426S23.287,32.872,23.403,32.661z"/>
		<path opacity="0.29" fill="#FFFFFF" d="M23.725,32.892c0.043-0.076,0.139-0.104,0.215-0.063c0.077,0.043,0.104,0.139,0.063,0.215
			c-0.042,0.078-0.266,0.154-0.266,0.154S23.683,32.968,23.725,32.892z"/>
	</g>
	<g>
		<path opacity="0.52" fill="#D22927" d="M20.344,27.841c0.217-0.393,0.71-0.535,1.102-0.318c0.393,0.217,0.535,0.711,0.318,1.102
			c-0.217,0.393-1.363,0.791-1.363,0.791S20.127,28.233,20.344,27.841z"/>
		<path fill="#C44127" d="M20.624,28.081c0.117-0.211,0.383-0.289,0.595-0.172c0.211,0.117,0.288,0.383,0.171,0.594
			c-0.116,0.211-0.735,0.428-0.735,0.428S20.507,28.292,20.624,28.081z"/>
		<path opacity="0.29" fill="#FFFFFF" d="M20.946,28.312c0.043-0.076,0.139-0.104,0.215-0.063c0.077,0.043,0.104,0.139,0.063,0.217
			c-0.043,0.076-0.266,0.154-0.266,0.154S20.904,28.388,20.946,28.312z"/>
	</g>
	<g>
		<path opacity="0.52" fill="#D22927" d="M21.849,29.468c0.217-0.393,0.71-0.535,1.102-0.318c0.393,0.217,0.535,0.709,0.318,1.102
			s-1.363,0.791-1.363,0.791S21.632,29.858,21.849,29.468z"/>
		<path fill="#C44127" d="M22.128,29.706c0.117-0.211,0.383-0.287,0.595-0.17c0.211,0.115,0.288,0.383,0.171,0.594
			c-0.116,0.211-0.734,0.426-0.734,0.426S22.012,29.919,22.128,29.706z"/>
		<path opacity="0.29" fill="#FFFFFF" d="M22.451,29.938c0.043-0.076,0.139-0.105,0.215-0.063c0.077,0.043,0.104,0.139,0.063,0.215
			s-0.266,0.154-0.266,0.154S22.409,30.015,22.451,29.938z"/>
	</g>
	<g>
		<path opacity="0.52" fill="#D22927" d="M15.697,20.103c0.111-0.434,0.554-0.693,0.987-0.582c0.434,0.112,0.694,0.555,0.583,0.988
			c-0.112,0.434-1.123,1.105-1.123,1.105S15.584,20.536,15.697,20.103z"/>
		<path fill="#C44127" d="M16.027,20.266c0.061-0.233,0.299-0.374,0.532-0.313c0.234,0.061,0.375,0.299,0.314,0.532
			s-0.605,0.597-0.605,0.597S15.966,20.499,16.027,20.266z"/>
		<path opacity="0.29" fill="#FFFFFF" d="M16.397,20.409c0.021-0.084,0.107-0.135,0.192-0.113s0.136,0.107,0.113,0.192
			c-0.021,0.085-0.219,0.216-0.219,0.216S16.375,20.494,16.397,20.409z"/>
	</g>
	<g>
		<path opacity="0.52" fill="#D22927" d="M18.038,14.989c0.238-0.379,0.739-0.493,1.118-0.255c0.379,0.239,0.492,0.739,0.254,1.118
			s-1.406,0.712-1.406,0.712S17.798,15.368,18.038,14.989z"/>
		<path fill="#C44127" d="M18.302,15.244c0.129-0.204,0.398-0.266,0.604-0.137c0.204,0.128,0.266,0.398,0.137,0.603
			c-0.129,0.205-0.759,0.384-0.759,0.384S18.173,15.448,18.302,15.244z"/>
		<path opacity="0.17" fill="#FFFFFF" d="M18.611,15.493c0.047-0.074,0.145-0.096,0.218-0.049c0.074,0.047,0.097,0.145,0.05,0.218
			c-0.046,0.074-0.274,0.139-0.274,0.139S18.564,15.567,18.611,15.493z"/>
	</g>
	<g>
		<path opacity="0.52" fill="#D22927" d="M15.662,16.88c0.238-0.379,0.739-0.492,1.118-0.254c0.379,0.239,0.492,0.74,0.254,1.119
			c-0.239,0.379-1.406,0.711-1.406,0.711S15.422,17.259,15.662,16.88z"/>
		<path fill="#C44127" d="M15.926,17.136c0.129-0.204,0.398-0.266,0.604-0.137c0.204,0.129,0.266,0.398,0.137,0.604
			c-0.129,0.204-0.759,0.383-0.759,0.383S15.797,17.341,15.926,17.136z"/>
		<path opacity="0.17" fill="#FFFFFF" d="M16.235,17.386c0.047-0.074,0.145-0.096,0.218-0.05c0.074,0.046,0.097,0.144,0.05,0.218
			s-0.274,0.139-0.274,0.139S16.188,17.46,16.235,17.386z"/>
	</g>
	<g>
		<path opacity="0.52" fill="#D22927" d="M20.789,14.671c0.239-0.379,0.74-0.492,1.119-0.254c0.379,0.239,0.492,0.74,0.254,1.119
			c-0.239,0.379-1.406,0.711-1.406,0.711S20.55,15.05,20.789,14.671z"/>
		<path fill="#C44127" d="M21.054,14.927c0.129-0.204,0.398-0.266,0.603-0.137c0.205,0.129,0.266,0.398,0.138,0.604
			c-0.129,0.203-0.759,0.383-0.759,0.383S20.925,15.132,21.054,14.927z"/>
		<path opacity="0.29" fill="#FFFFFF" d="M21.363,15.177c0.046-0.074,0.144-0.097,0.218-0.05c0.074,0.046,0.097,0.144,0.05,0.218
			s-0.274,0.139-0.274,0.139S21.316,15.251,21.363,15.177z"/>
	</g>
	<g>
		<path opacity="0.52" fill="#D22927" d="M18.558,17.527c0.238-0.379,0.739-0.493,1.118-0.254c0.379,0.238,0.492,0.739,0.254,1.118
			c-0.239,0.379-1.406,0.711-1.406,0.711S18.319,17.906,18.558,17.527z"/>
		<path fill="#C44127" d="M18.823,17.782c0.129-0.204,0.398-0.266,0.603-0.137c0.205,0.129,0.266,0.398,0.138,0.604
			c-0.129,0.204-0.759,0.383-0.759,0.383S18.694,17.987,18.823,17.782z"/>
		<path opacity="0.29" fill="#FFFFFF" d="M19.131,18.032c0.047-0.074,0.145-0.096,0.218-0.05c0.074,0.047,0.097,0.144,0.05,0.218
			s-0.274,0.139-0.274,0.139S19.084,18.106,19.131,18.032z"/>
	</g>
	<g>
		<path opacity="0.52" fill="#D22927" d="M14.922,14.47c0.238-0.379,0.739-0.492,1.118-0.254s0.493,0.738,0.254,1.118
			c-0.238,0.379-1.406,0.711-1.406,0.711S14.684,14.849,14.922,14.47z"/>
		<path fill="#C44127" d="M15.188,14.726c0.128-0.205,0.398-0.266,0.603-0.138c0.204,0.129,0.266,0.399,0.137,0.603
			c-0.128,0.205-0.758,0.385-0.758,0.385S15.059,14.929,15.188,14.726z"/>
		<path opacity="0.17" fill="#FFFFFF" d="M15.496,14.975c0.047-0.074,0.145-0.097,0.219-0.05c0.073,0.047,0.096,0.145,0.05,0.219
			c-0.047,0.073-0.274,0.139-0.274,0.139S15.45,15.048,15.496,14.975z"/>
	</g>
	<g>
		<path opacity="0.52" fill="#D22927" d="M16.784,9.161c0.369-0.254,0.874-0.158,1.127,0.211c0.252,0.37,0.157,0.875-0.212,1.127
			c-0.37,0.253-1.573,0.094-1.573,0.094S16.414,9.413,16.784,9.161z"/>
		<path fill="#C44127" d="M16.925,9.501c0.199-0.137,0.471-0.086,0.607,0.113c0.136,0.199,0.085,0.473-0.114,0.608
			s-0.849,0.05-0.849,0.05S16.725,9.637,16.925,9.501z"/>
		<path opacity="0.17" fill="#FFFFFF" d="M17.109,9.853c0.072-0.05,0.17-0.031,0.22,0.041c0.049,0.072,0.03,0.17-0.042,0.22
			c-0.071,0.05-0.307,0.019-0.307,0.019S17.037,9.901,17.109,9.853z"/>
	</g>
	<g>
		<path opacity="0.52" fill="#D22927" d="M13.241,10.104c0.369-0.252,0.874-0.158,1.127,0.212c0.252,0.37,0.157,0.874-0.212,1.127
			c-0.37,0.253-1.573,0.093-1.573,0.093S12.871,10.357,13.241,10.104z"/>
		<path fill="#C44127" d="M13.381,10.444c0.2-0.137,0.472-0.085,0.608,0.114c0.136,0.2,0.085,0.472-0.114,0.608
			c-0.199,0.136-0.849,0.05-0.849,0.05S13.182,10.581,13.381,10.444z"/>
		<path opacity="0.17" fill="#FFFFFF" d="M13.566,10.796c0.072-0.049,0.17-0.031,0.22,0.041c0.049,0.072,0.03,0.171-0.042,0.221
			c-0.071,0.049-0.307,0.018-0.307,0.018S13.494,10.845,13.566,10.796z"/>
	</g>
	<g>
		<path opacity="0.52" fill="#D22927" d="M12.927,13.434c0.369-0.253,0.874-0.158,1.127,0.212c0.252,0.369,0.157,0.874-0.212,1.127
			c-0.37,0.252-1.573,0.094-1.573,0.094S12.557,13.687,12.927,13.434z"/>
		<path fill="#C44127" d="M13.068,13.773c0.2-0.136,0.472-0.085,0.608,0.114c0.136,0.199,0.085,0.471-0.114,0.607
			s-0.849,0.051-0.849,0.051S12.869,13.909,13.068,13.773z"/>
		<path opacity="0.17" fill="#FFFFFF" d="M13.252,14.125c0.072-0.05,0.17-0.03,0.22,0.042c0.049,0.071,0.03,0.17-0.042,0.219
			c-0.071,0.049-0.307,0.019-0.307,0.019S13.18,14.175,13.252,14.125z"/>
	</g>
	<g>
		<path opacity="0.52" fill="#D22927" d="M10.821,28.433c0.112-0.434,0.555-0.693,0.988-0.582c0.434,0.113,0.693,0.555,0.582,0.988
			c-0.112,0.434-1.123,1.105-1.123,1.105S10.708,28.866,10.821,28.433z"/>
		<path fill="#C44127" d="M11.151,28.597c0.061-0.234,0.299-0.375,0.533-0.314c0.233,0.061,0.374,0.299,0.313,0.533
			c-0.061,0.232-0.605,0.596-0.605,0.596S11.09,28.829,11.151,28.597z"/>
		<path opacity="0.15" fill="#FFFFFF" d="M11.521,28.739c0.021-0.084,0.107-0.135,0.192-0.113s0.136,0.107,0.113,0.193
			c-0.021,0.084-0.219,0.215-0.219,0.215S11.499,28.825,11.521,28.739z"/>
	</g>
	<g>
		<path opacity="0.52" fill="#D22927" d="M7.584,30.292c0.112-0.434,0.555-0.693,0.988-0.582c0.434,0.113,0.694,0.555,0.582,0.988
			c-0.111,0.434-1.123,1.105-1.123,1.105S7.473,30.726,7.584,30.292z"/>
		<path fill="#C44127" d="M7.915,30.456c0.062-0.234,0.3-0.375,0.533-0.314c0.234,0.061,0.375,0.299,0.314,0.533
			c-0.061,0.232-0.606,0.596-0.606,0.596S7.855,30.688,7.915,30.456z"/>
		<path opacity="0.15" fill="#FFFFFF" d="M8.285,30.599c0.022-0.084,0.108-0.135,0.192-0.113c0.085,0.021,0.136,0.107,0.114,0.193
			c-0.022,0.084-0.22,0.215-0.22,0.215S8.263,30.685,8.285,30.599z"/>
	</g>
	<g>
		<path opacity="0.52" fill="#D22927" d="M7.017,26.868c0.112-0.434,0.555-0.695,0.988-0.582c0.434,0.111,0.694,0.555,0.582,0.988
			c-0.111,0.434-1.123,1.105-1.123,1.105S6.906,27.302,7.017,26.868z"/>
		<path fill="#C44127" d="M7.348,27.03c0.061-0.232,0.299-0.373,0.532-0.313c0.234,0.059,0.375,0.297,0.314,0.531
			s-0.605,0.596-0.605,0.596S7.288,27.265,7.348,27.03z"/>
		<path opacity="0.15" fill="#FFFFFF" d="M7.717,27.175c0.022-0.086,0.108-0.137,0.193-0.113c0.084,0.021,0.135,0.107,0.113,0.191
			c-0.021,0.086-0.219,0.217-0.219,0.217S7.696,27.259,7.717,27.175z"/>
	</g>
	<g>
		<path opacity="0.52" fill="#D22927" d="M13.856,24.013c0.112-0.434,0.555-0.694,0.988-0.582c0.434,0.111,0.694,0.554,0.582,0.988
			c-0.112,0.434-1.123,1.105-1.123,1.105S13.745,24.446,13.856,24.013z"/>
		<path fill="#C44127" d="M14.186,24.175c0.061-0.233,0.299-0.374,0.533-0.313c0.233,0.061,0.374,0.299,0.313,0.532
			c-0.061,0.234-0.605,0.597-0.605,0.597S14.126,24.409,14.186,24.175z"/>
		<path opacity="0.17" fill="#FFFFFF" d="M14.556,24.319c0.022-0.085,0.108-0.136,0.192-0.113c0.085,0.021,0.136,0.107,0.114,0.192
			c-0.022,0.085-0.22,0.216-0.22,0.216S14.535,24.403,14.556,24.319z"/>
	</g>
	<g>
		<path opacity="0.52" fill="#D22927" d="M11.504,25.69c0.112-0.434,0.555-0.694,0.988-0.582c0.434,0.111,0.694,0.555,0.582,0.988
			s-1.123,1.105-1.123,1.105S11.392,26.124,11.504,25.69z"/>
		<path fill="#C44127" d="M11.834,25.853c0.061-0.233,0.299-0.374,0.533-0.313c0.233,0.061,0.374,0.3,0.313,0.532
			c-0.06,0.234-0.605,0.596-0.605,0.596S11.774,26.087,11.834,25.853z"/>
		<path opacity="0.15" fill="#FFFFFF" d="M12.205,25.997c0.021-0.084,0.108-0.137,0.192-0.113c0.085,0.021,0.136,0.107,0.114,0.191
			c-0.022,0.086-0.22,0.217-0.22,0.217S12.183,26.081,12.205,25.997z"/>
	</g>
	<g>
		<path opacity="0.52" fill="#D22927" d="M12.698,17.12c0.112-0.434,0.555-0.693,0.988-0.582c0.434,0.112,0.694,0.555,0.582,0.988
			s-1.123,1.105-1.123,1.105S12.586,17.554,12.698,17.12z"/>
		<path fill="#C44127" d="M13.028,17.283c0.061-0.233,0.299-0.374,0.533-0.313c0.233,0.061,0.374,0.299,0.313,0.532
			s-0.605,0.597-0.605,0.597S12.968,17.517,13.028,17.283z"/>
		<path opacity="0.17" fill="#FFFFFF" d="M13.398,17.427c0.021-0.084,0.108-0.135,0.192-0.113c0.085,0.021,0.136,0.107,0.114,0.193
			c-0.022,0.084-0.22,0.215-0.22,0.215S13.376,17.512,13.398,17.427z"/>
	</g>
	<g>
		<path opacity="0.52" fill="#D22927" d="M10.594,19.315c0.111-0.434,0.554-0.694,0.987-0.582c0.434,0.111,0.694,0.555,0.583,0.988
			c-0.112,0.434-1.123,1.105-1.123,1.105S10.482,19.749,10.594,19.315z"/>
		<path fill="#C44127" d="M10.924,19.478c0.061-0.232,0.299-0.373,0.532-0.313c0.234,0.061,0.375,0.3,0.314,0.532
			c-0.061,0.234-0.605,0.597-0.605,0.597S10.864,19.712,10.924,19.478z"/>
		<path opacity="0.15" fill="#FFFFFF" d="M11.294,19.622c0.021-0.084,0.107-0.136,0.192-0.113c0.085,0.021,0.136,0.107,0.113,0.191
			c-0.021,0.086-0.219,0.217-0.219,0.217S11.272,19.706,11.294,19.622z"/>
	</g>
	<g>
		<path opacity="0.52" fill="#D22927" d="M7.98,19.919c0.112-0.434,0.555-0.693,0.988-0.582s0.694,0.555,0.582,0.988
			s-1.123,1.105-1.123,1.105S7.868,20.353,7.98,19.919z"/>
		<path fill="#C44127" d="M8.31,20.082c0.061-0.233,0.299-0.374,0.533-0.313c0.233,0.06,0.374,0.299,0.313,0.532
			s-0.605,0.597-0.605,0.597S8.25,20.315,8.31,20.082z"/>
		<path opacity="0.15" fill="#FFFFFF" d="M8.68,20.226c0.021-0.084,0.108-0.135,0.192-0.113c0.085,0.021,0.136,0.107,0.114,0.192
			c-0.022,0.085-0.22,0.216-0.22,0.216S8.659,20.31,8.68,20.226z"/>
	</g>
	<g>
		<path opacity="0.52" fill="#D22927" d="M10.392,12.479c0.111-0.434,0.554-0.695,0.987-0.582c0.434,0.111,0.694,0.554,0.582,0.987
			c-0.111,0.434-1.123,1.105-1.123,1.105S10.28,12.913,10.392,12.479z"/>
		<path fill="#C44127" d="M10.722,12.642c0.061-0.234,0.299-0.375,0.532-0.314c0.234,0.061,0.375,0.299,0.314,0.533
			s-0.605,0.596-0.605,0.596S10.662,12.876,10.722,12.642z"/>
		<path opacity="0.17" fill="#FFFFFF" d="M11.091,12.785c0.022-0.085,0.108-0.136,0.193-0.113c0.084,0.022,0.135,0.108,0.113,0.192
			c-0.021,0.085-0.219,0.216-0.219,0.216S11.07,12.87,11.091,12.785z"/>
	</g>
	<g>
		<path opacity="0.52" fill="#D22927" d="M8.219,14.345c0.112-0.434,0.555-0.695,0.988-0.583s0.694,0.554,0.582,0.987
			s-1.123,1.106-1.123,1.106S8.107,14.778,8.219,14.345z"/>
		<path fill="#C44127" d="M8.549,14.507c0.061-0.234,0.299-0.375,0.533-0.314c0.233,0.061,0.374,0.299,0.313,0.533
			c-0.061,0.233-0.605,0.596-0.605,0.596S8.489,14.74,8.549,14.507z"/>
		<path opacity="0.15" fill="#FFFFFF" d="M8.919,14.65c0.021-0.085,0.108-0.136,0.192-0.113c0.085,0.021,0.136,0.108,0.114,0.192
			c-0.022,0.084-0.22,0.216-0.22,0.216S8.897,14.735,8.919,14.65z"/>
	</g>
	<g>
		<path opacity="0.52" fill="#D22927" d="M9.647,16.138c0.111-0.434,0.554-0.693,0.987-0.582c0.434,0.112,0.694,0.555,0.582,0.988
			c-0.111,0.434-1.123,1.105-1.123,1.105S9.535,16.571,9.647,16.138z"/>
		<path fill="#C44127" d="M9.977,16.301c0.061-0.233,0.299-0.374,0.532-0.313c0.234,0.061,0.375,0.299,0.314,0.532
			s-0.605,0.597-0.605,0.597S9.917,16.534,9.977,16.301z"/>
		<path opacity="0.15" fill="#FFFFFF" d="M10.346,16.444c0.022-0.084,0.108-0.135,0.193-0.113c0.084,0.021,0.135,0.107,0.113,0.193
			c-0.021,0.084-0.219,0.215-0.219,0.215S10.325,16.529,10.346,16.444z"/>
	</g>
	<g>
		<path opacity="0.52" fill="#D22927" d="M9.454,22.854c0.112-0.434,0.555-0.694,0.988-0.583c0.434,0.112,0.693,0.555,0.582,0.988
			c-0.112,0.434-1.123,1.105-1.123,1.105S9.341,23.287,9.454,22.854z"/>
		<path fill="#C44127" d="M9.784,23.017c0.061-0.234,0.299-0.375,0.533-0.314c0.233,0.061,0.374,0.299,0.313,0.532
			s-0.605,0.597-0.605,0.597S9.723,23.249,9.784,23.017z"/>
		<path opacity="0.15" fill="#FFFFFF" d="M10.154,23.159c0.021-0.084,0.107-0.135,0.192-0.113s0.136,0.108,0.113,0.193
			c-0.021,0.084-0.219,0.215-0.219,0.215S10.131,23.244,10.154,23.159z"/>
	</g>
	<g>
		<path opacity="0.52" fill="#D22927" d="M8.854,25.911c0.112-0.434,0.555-0.694,0.988-0.582c0.434,0.111,0.694,0.555,0.582,0.988
			c-0.111,0.434-1.123,1.105-1.123,1.105S8.743,26.345,8.854,25.911z"/>
		<path fill="#C44127" d="M9.185,26.073c0.06-0.232,0.299-0.374,0.532-0.313c0.233,0.062,0.374,0.3,0.314,0.532
			c-0.061,0.234-0.606,0.598-0.606,0.598S9.125,26.308,9.185,26.073z"/>
		<path opacity="0.15" fill="#FFFFFF" d="M9.554,26.218c0.022-0.084,0.108-0.135,0.192-0.113c0.085,0.021,0.136,0.107,0.114,0.191
			c-0.022,0.086-0.22,0.217-0.22,0.217S9.533,26.302,9.554,26.218z"/>
	</g>
	<g>
		<path opacity="0.52" fill="#D22927" d="M3.288,27.386c0.112-0.434,0.554-0.695,0.988-0.584c0.434,0.113,0.693,0.555,0.582,0.988
			c-0.112,0.434-1.123,1.105-1.123,1.105S3.175,27.819,3.288,27.386z"/>
		<path fill="#C44127" d="M3.618,27.548c0.061-0.234,0.299-0.375,0.533-0.314c0.233,0.061,0.374,0.299,0.313,0.533
			s-0.605,0.596-0.605,0.596S3.557,27.782,3.618,27.548z"/>
		<path opacity="0.15" fill="#FFFFFF" d="M3.988,27.69c0.021-0.084,0.107-0.135,0.192-0.113s0.136,0.109,0.113,0.193
			c-0.021,0.084-0.219,0.215-0.219,0.215S3.965,27.776,3.988,27.69z"/>
	</g>
	<g>
		<path opacity="0.52" fill="#D22927" d="M6.375,24.106c0.112-0.434,0.555-0.693,0.988-0.582c0.434,0.112,0.694,0.555,0.582,0.988
			s-1.123,1.105-1.123,1.105S6.262,24.54,6.375,24.106z"/>
		<path fill="#C44127" d="M6.705,24.27c0.061-0.233,0.299-0.374,0.533-0.313c0.233,0.061,0.374,0.299,0.313,0.532
			s-0.605,0.597-0.605,0.597S6.644,24.503,6.705,24.27z"/>
		<path opacity="0.15" fill="#FFFFFF" d="M7.075,24.413c0.021-0.084,0.107-0.135,0.192-0.113s0.136,0.107,0.113,0.192
			c-0.021,0.085-0.219,0.216-0.219,0.216S7.052,24.497,7.075,24.413z"/>
	</g>
	<g>
		<path opacity="0.52" fill="#D22927" d="M6.086,17.751c0.023-0.447,0.405-0.791,0.853-0.767s0.791,0.405,0.767,0.853
			c-0.023,0.447-0.881,1.307-0.881,1.307S6.063,18.198,6.086,17.751z"/>
		<path fill="#C44127" d="M6.443,17.845c0.013-0.24,0.219-0.426,0.459-0.413c0.241,0.013,0.427,0.219,0.414,0.46
			S6.84,18.597,6.84,18.597S6.429,18.087,6.443,17.845z"/>
		<path opacity="0.15" fill="#FFFFFF" d="M6.833,17.913c0.005-0.088,0.079-0.154,0.166-0.15c0.088,0.005,0.154,0.08,0.149,0.167
			c-0.004,0.087-0.172,0.255-0.172,0.255S6.829,18,6.833,17.913z"/>
	</g>
	<g>
		<path opacity="0.52" fill="#D22927" d="M22.23,37.144c0.251-0.369,0.756-0.467,1.126-0.215s0.467,0.758,0.215,1.127
			c-0.252,0.371-1.431,0.662-1.431,0.662S21.977,37.515,22.23,37.144z"/>
		<path fill="#C44127" d="M22.486,37.409c0.136-0.201,0.407-0.252,0.607-0.117c0.199,0.137,0.251,0.408,0.115,0.607
			c-0.136,0.201-0.771,0.357-0.771,0.357S22.349,37.608,22.486,37.409z"/>
		<path opacity="0.29" fill="#FFFFFF" d="M22.785,37.669c0.05-0.072,0.147-0.092,0.22-0.043c0.072,0.051,0.091,0.148,0.042,0.221
			s-0.279,0.129-0.279,0.129S22.736,37.741,22.785,37.669z"/>
	</g>
	<g>
		<path opacity="0.52" fill="#D22927" d="M18.946,38.979c0.252-0.369,0.757-0.467,1.127-0.215s0.466,0.758,0.214,1.127
			c-0.251,0.371-1.43,0.662-1.43,0.662S18.694,39.351,18.946,38.979z"/>
		<path fill="#C44127" d="M19.202,39.245c0.136-0.201,0.408-0.252,0.607-0.117c0.2,0.137,0.252,0.408,0.116,0.607
			c-0.136,0.201-0.771,0.357-0.771,0.357S19.066,39.444,19.202,39.245z"/>
		<path opacity="0.17" fill="#FFFFFF" d="M19.501,39.505c0.049-0.072,0.147-0.092,0.22-0.043c0.072,0.051,0.091,0.148,0.042,0.221
			s-0.279,0.129-0.279,0.129S19.453,39.577,19.501,39.505z"/>
	</g>
	<g>
		<path opacity="0.52" fill="#D22927" d="M28.621,36.646c0.252-0.371,0.756-0.467,1.126-0.215c0.371,0.252,0.467,0.756,0.215,1.127
			c-0.252,0.369-1.431,0.66-1.431,0.66S28.369,37.015,28.621,36.646z"/>
		<path fill="#C44127" d="M28.876,36.909c0.136-0.199,0.408-0.252,0.607-0.115c0.2,0.135,0.252,0.408,0.116,0.607
			c-0.137,0.199-0.771,0.357-0.771,0.357S28.741,37.108,28.876,36.909z"/>
		<path opacity="0.21" fill="#FFFFFF" d="M29.176,37.169c0.049-0.072,0.147-0.09,0.22-0.041s0.091,0.146,0.042,0.219
			c-0.05,0.072-0.279,0.129-0.279,0.129S29.126,37.241,29.176,37.169z"/>
	</g>
	<g>
		<path opacity="0.52" fill="#D22927" d="M26.746,38.616c0.252-0.369,0.756-0.467,1.127-0.215c0.37,0.252,0.466,0.758,0.214,1.127
			c-0.252,0.371-1.431,0.662-1.431,0.662S26.494,38.987,26.746,38.616z"/>
		<path fill="#C44127" d="M27.001,38.882c0.136-0.201,0.408-0.252,0.607-0.117c0.2,0.137,0.252,0.408,0.116,0.607
			c-0.136,0.201-0.771,0.357-0.771,0.357S26.866,39.081,27.001,38.882z"/>
		<path opacity="0.29" fill="#FFFFFF" d="M27.301,39.142c0.049-0.072,0.147-0.092,0.22-0.043c0.072,0.051,0.091,0.148,0.042,0.221
			c-0.05,0.072-0.279,0.129-0.279,0.129S27.251,39.214,27.301,39.142z"/>
	</g>
	<g>
		<path opacity="0.52" fill="#D22927" d="M32.041,31.806c0.252-0.371,0.756-0.467,1.126-0.215s0.467,0.756,0.215,1.127
			c-0.252,0.369-1.431,0.66-1.431,0.66S31.789,32.175,32.041,31.806z"/>
		<path fill="#C44127" d="M32.296,32.069c0.136-0.199,0.407-0.252,0.607-0.115c0.199,0.137,0.251,0.408,0.115,0.607
			s-0.771,0.357-0.771,0.357S32.161,32.269,32.296,32.069z"/>
		<path opacity="0.21" fill="#FFFFFF" d="M32.596,32.329c0.049-0.072,0.147-0.09,0.219-0.041c0.073,0.049,0.092,0.146,0.042,0.221
			c-0.049,0.072-0.278,0.129-0.278,0.129S32.546,32.401,32.596,32.329z"/>
	</g>
	<g>
		<path opacity="0.52" fill="#D22927" d="M30.578,34.788c0.252-0.371,0.756-0.467,1.126-0.215c0.371,0.252,0.467,0.756,0.215,1.127
			c-0.252,0.369-1.431,0.66-1.431,0.66S30.326,35.157,30.578,34.788z"/>
		<path fill="#C44127" d="M30.833,35.052c0.136-0.199,0.408-0.252,0.607-0.115c0.2,0.135,0.252,0.408,0.116,0.607
			c-0.137,0.199-0.771,0.357-0.771,0.357S30.698,35.251,30.833,35.052z"/>
		<path opacity="0.21" fill="#FFFFFF" d="M31.133,35.312c0.049-0.072,0.147-0.09,0.22-0.041s0.091,0.146,0.042,0.219
			c-0.05,0.072-0.279,0.129-0.279,0.129S31.083,35.384,31.133,35.312z"/>
	</g>
	<g>
		<path opacity="0.52" fill="#D22927" d="M34.044,29.325c0.251-0.371,0.756-0.467,1.126-0.215s0.467,0.756,0.215,1.127
			c-0.252,0.369-1.431,0.662-1.431,0.662S33.792,29.696,34.044,29.325z"/>
		<path fill="#C44127" d="M34.3,29.589c0.136-0.199,0.407-0.25,0.607-0.115c0.199,0.137,0.251,0.408,0.115,0.607
			s-0.771,0.357-0.771,0.357S34.165,29.79,34.3,29.589z"/>
		<path opacity="0.21" fill="#FFFFFF" d="M34.599,29.851c0.05-0.072,0.147-0.092,0.22-0.043s0.092,0.148,0.042,0.221
			c-0.049,0.072-0.278,0.129-0.278,0.129S34.55,29.923,34.599,29.851z"/>
	</g>
	<g>
		<path opacity="0.52" fill="#D22927" d="M28.517,33.522c0.252-0.371,0.756-0.467,1.126-0.215s0.467,0.756,0.215,1.127
			c-0.252,0.369-1.431,0.662-1.431,0.662S28.265,33.892,28.517,33.522z"/>
		<path fill="#C44127" d="M28.773,33.786c0.136-0.199,0.407-0.25,0.607-0.115c0.199,0.137,0.251,0.408,0.115,0.607
			s-0.771,0.357-0.771,0.357S28.637,33.987,28.773,33.786z"/>
		<path opacity="0.21" fill="#FFFFFF" d="M29.073,34.048c0.049-0.074,0.147-0.092,0.22-0.043s0.091,0.148,0.041,0.221
			c-0.049,0.072-0.278,0.129-0.278,0.129S29.023,34.118,29.073,34.048z"/>
	</g>
	<g>
		<path opacity="0.52" fill="#D22927" d="M34.98,25.653c0.086-0.439,0.513-0.726,0.952-0.64s0.726,0.512,0.64,0.952
			c-0.086,0.439-1.055,1.17-1.055,1.17S34.895,26.093,34.98,25.653z"/>
		<path fill="#C44127" d="M35.32,25.796c0.047-0.236,0.276-0.391,0.513-0.345c0.237,0.046,0.392,0.276,0.346,0.513
			c-0.047,0.238-0.569,0.633-0.569,0.633S35.274,26.034,35.32,25.796z"/>
		<path opacity="0.21" fill="#FFFFFF" d="M35.698,25.919c0.017-0.086,0.1-0.143,0.186-0.125c0.086,0.016,0.142,0.1,0.125,0.184
			c-0.017,0.086-0.206,0.23-0.206,0.23S35.681,26.003,35.698,25.919z"/>
	</g>
	<g>
		<path opacity="0.52" fill="#D22927" d="M32.666,27.597c0.086-0.439,0.512-0.727,0.951-0.641s0.727,0.512,0.641,0.951
			s-1.056,1.172-1.056,1.172S32.58,28.036,32.666,27.597z"/>
		<path fill="#C44127" d="M33.004,27.739c0.047-0.236,0.276-0.393,0.514-0.346c0.236,0.047,0.392,0.275,0.345,0.514
			c-0.046,0.236-0.568,0.631-0.568,0.631S32.958,27.976,33.004,27.739z"/>
		<path opacity="0.21" fill="#FFFFFF" d="M33.382,27.86c0.017-0.086,0.1-0.143,0.186-0.125s0.142,0.1,0.125,0.186
			s-0.206,0.229-0.206,0.229S33.366,27.946,33.382,27.86z"/>
	</g>
	<g>
		<path opacity="0.52" fill="#D22927" d="M34.362,16.442c-0.147-0.422,0.076-0.885,0.499-1.032s0.885,0.075,1.032,0.499
			c0.148,0.422-0.319,1.543-0.319,1.543S34.509,16.866,34.362,16.442z"/>
		<path fill="#C44127" d="M34.727,16.396c-0.079-0.229,0.041-0.479,0.269-0.558c0.229-0.079,0.478,0.041,0.558,0.269
			c0.079,0.229-0.173,0.832-0.173,0.832S34.807,16.623,34.727,16.396z"/>
		<path opacity="0.21" fill="#FFFFFF" d="M35.115,16.31c-0.029-0.083,0.015-0.174,0.097-0.201c0.083-0.029,0.173,0.014,0.202,0.097
			c0.028,0.083-0.063,0.301-0.063,0.301S35.143,16.392,35.115,16.31z"/>
	</g>
	<g>
		<path opacity="0.52" fill="#D22927" d="M32.576,18.144c-0.147-0.423,0.075-0.885,0.498-1.033c0.423-0.147,0.886,0.076,1.033,0.498
			c0.147,0.424-0.32,1.544-0.32,1.544S32.723,18.566,32.576,18.144z"/>
		<path fill="#C44127" d="M32.94,18.095c-0.079-0.228,0.041-0.477,0.27-0.557c0.228-0.079,0.477,0.041,0.557,0.27
			c0.079,0.228-0.173,0.832-0.173,0.832S33.02,18.323,32.94,18.095z"/>
		<path opacity="0.21" fill="#FFFFFF" d="M33.328,18.01c-0.028-0.083,0.015-0.173,0.098-0.202c0.082-0.028,0.172,0.016,0.201,0.098
			c0.028,0.082-0.063,0.301-0.063,0.301S33.357,18.093,33.328,18.01z"/>
	</g>
	<g>
		<path opacity="0.52" fill="#D22927" d="M32.265,15.786c-0.147-0.423,0.075-0.885,0.498-1.033c0.423-0.146,0.886,0.076,1.033,0.498
			c0.147,0.424-0.32,1.544-0.32,1.544S32.413,16.209,32.265,15.786z"/>
		<path fill="#C44127" d="M32.63,15.737c-0.08-0.228,0.04-0.477,0.269-0.557c0.228-0.079,0.478,0.041,0.557,0.27
			c0.08,0.228-0.173,0.832-0.173,0.832S32.709,15.966,32.63,15.737z"/>
		<path opacity="0.21" fill="#FFFFFF" d="M33.017,15.652c-0.028-0.083,0.015-0.173,0.098-0.202c0.082-0.028,0.173,0.016,0.201,0.098
			c0.029,0.082-0.063,0.301-0.063,0.301S33.046,15.735,33.017,15.652z"/>
	</g>
	<g>
		<path opacity="0.52" fill="#D22927" d="M20.078,32.235c0.252-0.369,0.756-0.465,1.127-0.213c0.37,0.252,0.466,0.756,0.214,1.125
			c-0.252,0.371-1.43,0.662-1.43,0.662S19.826,32.606,20.078,32.235z"/>
		<path fill="#C44127" d="M20.333,32.501c0.136-0.199,0.408-0.252,0.607-0.115c0.2,0.135,0.252,0.408,0.116,0.607
			s-0.771,0.355-0.771,0.355S20.198,32.7,20.333,32.501z"/>
		<path opacity="0.29" fill="#FFFFFF" d="M20.633,32.761c0.049-0.072,0.147-0.09,0.22-0.041s0.091,0.146,0.042,0.219
			c-0.05,0.072-0.279,0.129-0.279,0.129S20.583,32.833,20.633,32.761z"/>
	</g>
	<g>
		<path opacity="0.52" fill="#D22927" d="M17.266,34.972c0.252-0.371,0.757-0.467,1.127-0.215s0.466,0.756,0.215,1.127
			c-0.252,0.369-1.431,0.66-1.431,0.66S17.014,35.341,17.266,34.972z"/>
		<path fill="#C44127" d="M17.522,35.235c0.137-0.199,0.408-0.252,0.607-0.115c0.2,0.135,0.252,0.408,0.116,0.607
			s-0.771,0.357-0.771,0.357S17.386,35.435,17.522,35.235z"/>
		<path opacity="0.17" fill="#FFFFFF" d="M17.822,35.495c0.049-0.072,0.147-0.09,0.22-0.041s0.091,0.146,0.042,0.219
			s-0.279,0.129-0.279,0.129S17.773,35.567,17.822,35.495z"/>
	</g>
	<g>
		<path opacity="0.52" fill="#D22927" d="M17.729,30.638c0.252-0.369,0.756-0.467,1.127-0.215c0.37,0.252,0.466,0.756,0.214,1.127
			s-1.431,0.662-1.431,0.662S17.477,31.009,17.729,30.638z"/>
		<path fill="#C44127" d="M17.985,30.903c0.136-0.201,0.408-0.252,0.607-0.117c0.199,0.137,0.252,0.408,0.115,0.607
			c-0.135,0.201-0.771,0.357-0.771,0.357S17.849,31.103,17.985,30.903z"/>
		<path opacity="0.29" fill="#FFFFFF" d="M18.285,31.163c0.049-0.072,0.147-0.092,0.22-0.043c0.072,0.051,0.091,0.148,0.042,0.221
			c-0.05,0.072-0.279,0.129-0.279,0.129S18.235,31.235,18.285,31.163z"/>
	</g>
	<g>
		<path opacity="0.52" fill="#D22927" d="M17.424,28.372c0.252-0.369,0.756-0.465,1.126-0.213c0.371,0.25,0.467,0.756,0.215,1.125
			c-0.252,0.371-1.431,0.662-1.431,0.662S17.172,28.743,17.424,28.372z"/>
		<path fill="#C44127" d="M17.68,28.638c0.136-0.199,0.407-0.252,0.607-0.115c0.199,0.135,0.251,0.406,0.115,0.607
			c-0.136,0.199-0.771,0.355-0.771,0.355S17.544,28.837,17.68,28.638z"/>
		<path opacity="0.29" fill="#FFFFFF" d="M17.98,28.897c0.049-0.072,0.147-0.092,0.22-0.041c0.072,0.049,0.091,0.146,0.042,0.219
			c-0.05,0.072-0.279,0.129-0.279,0.129S17.93,28.97,17.98,28.897z"/>
	</g>
	<g>
		<path opacity="0.52" fill="#D22927" d="M12.612,21.681c0.252-0.371,0.757-0.467,1.127-0.215s0.467,0.756,0.215,1.126
			s-1.431,0.661-1.431,0.661S12.361,22.05,12.612,21.681z"/>
		<path fill="#C44127" d="M12.869,21.944c0.136-0.199,0.407-0.251,0.607-0.115c0.199,0.136,0.251,0.408,0.115,0.607
			s-0.771,0.356-0.771,0.356S12.733,22.145,12.869,21.944z"/>
		<path opacity="0.17" fill="#FFFFFF" d="M13.167,22.204c0.05-0.072,0.147-0.09,0.22-0.041s0.091,0.147,0.042,0.22
			c-0.049,0.071-0.279,0.129-0.279,0.129S13.119,22.276,13.167,22.204z"/>
	</g>
	<g>
		<path opacity="0.52" fill="#D22927" d="M13.908,29.31c0.252-0.371,0.757-0.467,1.127-0.215s0.466,0.756,0.215,1.127
			c-0.252,0.369-1.431,0.662-1.431,0.662S13.656,29.681,13.908,29.31z"/>
		<path fill="#C44127" d="M14.164,29.573c0.137-0.199,0.408-0.25,0.608-0.115c0.199,0.137,0.251,0.408,0.115,0.607
			s-0.771,0.357-0.771,0.357S14.028,29.774,14.164,29.573z"/>
		<path opacity="0.17" fill="#FFFFFF" d="M14.463,29.835c0.049-0.072,0.147-0.092,0.22-0.043s0.091,0.148,0.042,0.221
			s-0.279,0.129-0.279,0.129S14.415,29.907,14.463,29.835z"/>
	</g>
	<g>
		<path opacity="0.52" fill="#D22927" d="M11.515,31.214c0.252-0.371,0.756-0.467,1.126-0.215c0.371,0.252,0.467,0.756,0.215,1.127
			s-1.431,0.662-1.431,0.662S11.263,31.585,11.515,31.214z"/>
		<path fill="#C44127" d="M11.771,31.478c0.136-0.199,0.408-0.25,0.607-0.115c0.2,0.137,0.252,0.408,0.116,0.607
			c-0.136,0.201-0.771,0.357-0.771,0.357S11.635,31.679,11.771,31.478z"/>
		<path opacity="0.15" fill="#FFFFFF" d="M12.071,31.739c0.049-0.072,0.147-0.092,0.22-0.043s0.091,0.148,0.042,0.221
			c-0.05,0.072-0.279,0.129-0.279,0.129S12.021,31.812,12.071,31.739z"/>
	</g>
	<g>
		<path opacity="0.52" fill="#D22927" d="M25.827,32.62c0.252-0.369,0.757-0.465,1.127-0.215c0.37,0.252,0.467,0.758,0.215,1.127
			c-0.252,0.371-1.431,0.662-1.431,0.662S25.576,32.991,25.827,32.62z"/>
		<path fill="#C44127" d="M26.083,32.886c0.136-0.199,0.407-0.252,0.606-0.115c0.2,0.135,0.252,0.406,0.116,0.607
			c-0.136,0.199-0.771,0.355-0.771,0.355S25.947,33.085,26.083,32.886z"/>
		<path opacity="0.21" fill="#FFFFFF" d="M26.382,33.146c0.05-0.072,0.147-0.092,0.22-0.041c0.072,0.049,0.091,0.146,0.042,0.219
			s-0.278,0.129-0.278,0.129S26.333,33.218,26.382,33.146z"/>
	</g>
	<g>
		<path opacity="0.52" fill="#D22927" d="M25.391,35.655c0.252-0.371,0.757-0.467,1.127-0.215s0.466,0.756,0.215,1.127
			c-0.252,0.369-1.431,0.66-1.431,0.66S25.139,36.024,25.391,35.655z"/>
		<path fill="#C44127" d="M25.647,35.919c0.136-0.199,0.408-0.252,0.608-0.115c0.199,0.135,0.251,0.408,0.115,0.607
			s-0.771,0.357-0.771,0.357S25.511,36.118,25.647,35.919z"/>
		<path opacity="0.29" fill="#FFFFFF" d="M25.947,36.179c0.049-0.072,0.147-0.09,0.22-0.041s0.091,0.148,0.042,0.219
			c-0.049,0.074-0.279,0.131-0.279,0.131S25.898,36.251,25.947,36.179z"/>
	</g>
	<g>
		<path opacity="0.52" fill="#D22927" d="M24.308,38.329c0.252-0.371,0.756-0.467,1.127-0.215c0.37,0.252,0.466,0.756,0.214,1.127
			c-0.252,0.369-1.431,0.662-1.431,0.662S24.056,38.698,24.308,38.329z"/>
		<path fill="#C44127" d="M24.564,38.593c0.136-0.199,0.408-0.25,0.607-0.115c0.2,0.137,0.252,0.408,0.116,0.607
			s-0.771,0.357-0.771,0.357S24.428,38.794,24.564,38.593z"/>
		<path opacity="0.29" fill="#FFFFFF" d="M24.864,38.854c0.049-0.072,0.147-0.092,0.22-0.043s0.091,0.148,0.042,0.221
			c-0.05,0.072-0.279,0.129-0.279,0.129S24.815,38.927,24.864,38.854z"/>
	</g>
	<g>
		<path opacity="0.52" fill="#D22927" d="M20.719,35.007c0.252-0.371,0.757-0.467,1.127-0.215s0.466,0.756,0.215,1.127
			c-0.252,0.369-1.431,0.66-1.431,0.66S20.468,35.376,20.719,35.007z"/>
		<path fill="#C44127" d="M20.975,35.271c0.136-0.199,0.408-0.252,0.607-0.115c0.2,0.135,0.252,0.408,0.116,0.607
			s-0.771,0.357-0.771,0.357S20.839,35.47,20.975,35.271z"/>
		<path opacity="0.29" fill="#FFFFFF" d="M21.275,35.53c0.049-0.072,0.147-0.09,0.22-0.041s0.091,0.146,0.042,0.219
			s-0.279,0.131-0.279,0.131S21.226,35.603,21.275,35.53z"/>
	</g>
	<g>
		<path opacity="0.52" fill="#D22927" d="M30.114,27.519c0.252-0.371,0.756-0.467,1.127-0.215c0.37,0.252,0.466,0.756,0.214,1.127
			s-1.431,0.662-1.431,0.662S29.862,27.89,30.114,27.519z"/>
		<path fill="#C44127" d="M30.37,27.782c0.136-0.199,0.408-0.25,0.607-0.115c0.199,0.137,0.252,0.408,0.115,0.607
			c-0.136,0.199-0.771,0.357-0.771,0.357S30.234,27.983,30.37,27.782z"/>
		<path opacity="0.21" fill="#FFFFFF" d="M30.669,28.044c0.049-0.072,0.147-0.092,0.22-0.043s0.091,0.148,0.042,0.221
			c-0.05,0.072-0.279,0.129-0.279,0.129S30.62,28.116,30.669,28.044z"/>
	</g>
	<g>
		<path opacity="0.52" fill="#D22927" d="M29.582,30.386c0.252-0.371,0.757-0.467,1.127-0.215s0.467,0.756,0.215,1.127
			c-0.252,0.369-1.431,0.66-1.431,0.66S29.331,30.755,29.582,30.386z"/>
		<path fill="#C44127" d="M29.838,30.649c0.136-0.199,0.407-0.252,0.607-0.115c0.199,0.135,0.251,0.408,0.115,0.607
			s-0.771,0.357-0.771,0.357S29.703,30.849,29.838,30.649z"/>
		<path opacity="0.21" fill="#FFFFFF" d="M30.137,30.909c0.049-0.072,0.147-0.09,0.22-0.041s0.091,0.146,0.042,0.219
			s-0.279,0.131-0.279,0.131S30.088,30.981,30.137,30.909z"/>
	</g>
	<g>
		<path opacity="0.52" fill="#D22927" d="M27.674,29.032c0.252-0.371,0.756-0.467,1.126-0.215c0.371,0.252,0.467,0.756,0.215,1.125
			c-0.252,0.371-1.431,0.662-1.431,0.662S27.422,29.401,27.674,29.032z"/>
		<path fill="#C44127" d="M27.93,29.296c0.136-0.199,0.408-0.252,0.607-0.115c0.2,0.135,0.252,0.408,0.115,0.607
			c-0.136,0.199-0.771,0.355-0.771,0.355S27.794,29.495,27.93,29.296z"/>
		<path opacity="0.21" fill="#FFFFFF" d="M28.23,29.556c0.049-0.072,0.147-0.09,0.22-0.041s0.091,0.146,0.042,0.219
			c-0.05,0.072-0.279,0.129-0.279,0.129S28.18,29.628,28.23,29.556z"/>
	</g>
	<g>
		<path opacity="0.52" fill="#D22927" d="M28.171,21.377c0.252-0.37,0.757-0.466,1.127-0.215c0.37,0.252,0.467,0.757,0.215,1.127
			s-1.431,0.661-1.431,0.661S27.92,21.747,28.171,21.377z"/>
		<path fill="#C44127" d="M28.428,21.642c0.136-0.199,0.407-0.252,0.606-0.115c0.2,0.135,0.252,0.407,0.116,0.607
			c-0.136,0.199-0.771,0.355-0.771,0.355S28.292,21.841,28.428,21.642z"/>
		<path opacity="0.21" fill="#FFFFFF" d="M28.727,21.901c0.05-0.072,0.147-0.091,0.22-0.041c0.072,0.049,0.092,0.146,0.042,0.219
			c-0.049,0.072-0.279,0.129-0.279,0.129S28.678,21.974,28.727,21.901z"/>
	</g>
	<g>
		<path opacity="0.52" fill="#D22927" d="M25.19,21.175c0.252-0.371,0.756-0.467,1.126-0.215s0.467,0.756,0.215,1.127
			c-0.252,0.369-1.431,0.66-1.431,0.66S24.938,21.544,25.19,21.175z"/>
		<path fill="#C44127" d="M25.446,21.438c0.136-0.199,0.407-0.251,0.607-0.115c0.199,0.136,0.251,0.408,0.115,0.607
			s-0.771,0.357-0.771,0.357S25.31,21.639,25.446,21.438z"/>
		<path opacity="0.21" fill="#FFFFFF" d="M25.745,21.699c0.05-0.072,0.148-0.091,0.22-0.042c0.072,0.049,0.092,0.147,0.042,0.22
			c-0.049,0.072-0.279,0.13-0.279,0.13S25.696,21.771,25.745,21.699z"/>
	</g>
	<g>
		<path opacity="0.52" fill="#D22927" d="M22.905,20.313c0.252-0.37,0.757-0.466,1.127-0.215c0.37,0.252,0.466,0.757,0.214,1.127
			c-0.251,0.371-1.43,0.662-1.43,0.662S22.653,20.685,22.905,20.313z"/>
		<path fill="#C44127" d="M23.161,20.579c0.136-0.2,0.408-0.252,0.607-0.116c0.2,0.136,0.252,0.407,0.116,0.607
			s-0.771,0.356-0.771,0.356S23.025,20.778,23.161,20.579z"/>
		<path opacity="0.21" fill="#FFFFFF" d="M23.46,20.839c0.049-0.072,0.147-0.092,0.22-0.042c0.072,0.049,0.091,0.147,0.042,0.22
			s-0.279,0.129-0.279,0.129S23.412,20.911,23.46,20.839z"/>
	</g>
	<g>
		<path opacity="0.52" fill="#D22927" d="M21.807,24.595c0.252-0.37,0.757-0.467,1.127-0.215s0.467,0.757,0.215,1.127
			c-0.252,0.371-1.431,0.662-1.431,0.662S21.555,24.966,21.807,24.595z"/>
		<path fill="#C44127" d="M22.064,24.859c0.136-0.2,0.407-0.251,0.607-0.115c0.199,0.136,0.251,0.407,0.115,0.606
			c-0.136,0.2-0.771,0.357-0.771,0.357S21.928,25.06,22.064,24.859z"/>
		<path opacity="0.29" fill="#FFFFFF" d="M22.363,25.12c0.049-0.072,0.147-0.092,0.22-0.043c0.072,0.05,0.091,0.148,0.042,0.221
			s-0.279,0.129-0.279,0.129S22.314,25.192,22.363,25.12z"/>
	</g>
	<g>
		<path opacity="0.52" fill="#D22927" d="M27.557,24.767c0.252-0.37,0.757-0.467,1.127-0.215s0.466,0.757,0.215,1.127
			c-0.252,0.371-1.431,0.662-1.431,0.662S27.305,25.138,27.557,24.767z"/>
		<path fill="#C44127" d="M27.813,25.032c0.137-0.2,0.408-0.252,0.607-0.116c0.2,0.136,0.252,0.407,0.116,0.607
			s-0.771,0.356-0.771,0.356S27.677,25.231,27.813,25.032z"/>
		<path opacity="0.21" fill="#FFFFFF" d="M28.113,25.292c0.049-0.072,0.147-0.092,0.22-0.043c0.072,0.05,0.091,0.148,0.042,0.221
			s-0.279,0.129-0.279,0.129S28.064,25.364,28.113,25.292z"/>
	</g>
	<g>
		<path opacity="0.52" fill="#D22927" d="M31.156,24.126c0.251-0.371,0.756-0.467,1.126-0.215s0.467,0.756,0.215,1.127
			c-0.252,0.37-1.431,0.661-1.431,0.661S30.904,24.496,31.156,24.126z"/>
		<path fill="#C44127" d="M31.412,24.391c0.136-0.2,0.407-0.252,0.607-0.116c0.199,0.137,0.251,0.408,0.115,0.607
			c-0.136,0.2-0.771,0.357-0.771,0.357S31.276,24.591,31.412,24.391z"/>
		<path opacity="0.21" fill="#FFFFFF" d="M31.71,24.65c0.05-0.071,0.147-0.091,0.22-0.042s0.092,0.148,0.042,0.221
			c-0.049,0.072-0.278,0.129-0.278,0.129S31.662,24.723,31.71,24.65z"/>
	</g>
	<g>
		<path opacity="0.52" fill="#D22927" d="M24.886,23.622c0.252-0.369,0.756-0.466,1.127-0.214c0.37,0.252,0.466,0.757,0.214,1.126
			c-0.252,0.371-1.43,0.662-1.43,0.662S24.634,23.993,24.886,23.622z"/>
		<path fill="#C44127" d="M25.142,23.888c0.136-0.2,0.408-0.252,0.607-0.116c0.2,0.136,0.252,0.407,0.116,0.607
			s-0.771,0.356-0.771,0.356S25.006,24.087,25.142,23.888z"/>
		<path opacity="0.21" fill="#FFFFFF" d="M25.442,24.147c0.049-0.072,0.147-0.091,0.22-0.042c0.072,0.05,0.091,0.147,0.042,0.22
			c-0.05,0.072-0.279,0.129-0.279,0.129S25.393,24.22,25.442,24.147z"/>
	</g>
	<g>
		<path opacity="0.52" fill="#D22927" d="M33.024,21.347c0.064-0.443,0.476-0.751,0.919-0.688c0.443,0.064,0.751,0.477,0.687,0.92
			S33.633,22.8,33.633,22.8S32.96,21.789,33.024,21.347z"/>
		<path fill="#C44127" d="M33.371,21.472c0.034-0.238,0.256-0.404,0.495-0.369c0.239,0.034,0.404,0.256,0.37,0.494
			c-0.035,0.24-0.537,0.659-0.537,0.659S33.335,21.711,33.371,21.472z"/>
		<path opacity="0.21" fill="#FFFFFF" d="M33.753,21.575c0.013-0.087,0.093-0.146,0.18-0.135c0.086,0.013,0.146,0.094,0.134,0.18
			s-0.194,0.238-0.194,0.238S33.741,21.661,33.753,21.575z"/>
	</g>
	<g>
		<path opacity="0.52" fill="#D22927" d="M35.732,21.765c0.064-0.443,0.476-0.75,0.919-0.686s0.75,0.475,0.687,0.918
			c-0.064,0.443-0.997,1.222-0.997,1.222S35.667,22.208,35.732,21.765z"/>
		<path fill="#C44127" d="M36.078,21.891c0.035-0.239,0.257-0.404,0.496-0.37c0.238,0.035,0.404,0.257,0.37,0.496
			c-0.035,0.238-0.537,0.658-0.537,0.658S36.043,22.13,36.078,21.891z"/>
		<path opacity="0.21" fill="#FFFFFF" d="M36.461,21.993c0.013-0.086,0.093-0.146,0.179-0.133c0.087,0.012,0.146,0.092,0.134,0.179
			c-0.012,0.087-0.194,0.238-0.194,0.238S36.449,22.08,36.461,21.993z"/>
	</g>
	<g>
		<path opacity="0.52" fill="#D22927" d="M30.434,21.147c0.064-0.443,0.476-0.751,0.919-0.688c0.442,0.064,0.75,0.477,0.686,0.92
			c-0.063,0.443-0.996,1.221-0.996,1.221S30.37,21.59,30.434,21.147z"/>
		<path fill="#C44127" d="M30.78,21.272c0.035-0.238,0.257-0.404,0.495-0.369c0.239,0.033,0.405,0.256,0.37,0.494
			c-0.034,0.24-0.537,0.659-0.537,0.659S30.746,21.512,30.78,21.272z"/>
		<path opacity="0.21" fill="#FFFFFF" d="M31.163,21.376c0.013-0.087,0.093-0.146,0.18-0.135c0.087,0.013,0.146,0.094,0.134,0.18
			s-0.194,0.238-0.194,0.238S31.151,21.462,31.163,21.376z"/>
	</g>
	<g>
		<path opacity="0.52" fill="#D22927" d="M23.543,41.146c0.267-0.391,0.755-0.523,1.091-0.295c0.337,0.229,0.394,0.732,0.127,1.123
			c-0.266,0.393-1.412,0.768-1.412,0.768S23.277,41.538,23.543,41.146z"/>
		<path fill="#C44127" d="M23.77,41.396c0.144-0.211,0.406-0.283,0.588-0.16c0.182,0.125,0.212,0.395,0.068,0.607
			c-0.144,0.211-0.762,0.414-0.762,0.414S23.626,41.606,23.77,41.396z"/>
		<path opacity="0.17" fill="#FFFFFF" d="M24.038,41.638c0.053-0.076,0.147-0.102,0.213-0.059c0.065,0.045,0.077,0.143,0.025,0.219
			C24.223,41.876,24,41.948,24,41.948S23.986,41.714,24.038,41.638z"/>
	</g>
	<g>
		<path opacity="0.52" fill="#D22927" d="M16.249,38.437c0.225-0.389,0.721-0.52,1.108-0.295c0.387,0.225,0.519,0.723,0.294,1.109
			c-0.226,0.387-1.381,0.762-1.381,0.762S16.023,38.823,16.249,38.437z"/>
		<path fill="#C44127" d="M16.522,38.681c0.121-0.207,0.389-0.279,0.598-0.158s0.28,0.391,0.158,0.598
			c-0.121,0.209-0.743,0.412-0.743,0.412S16.401,38.89,16.522,38.681z"/>
		<path opacity="0.17" fill="#FFFFFF" d="M16.839,38.919c0.044-0.074,0.141-0.1,0.217-0.057c0.075,0.045,0.101,0.141,0.057,0.217
			s-0.269,0.148-0.269,0.148S16.795,38.995,16.839,38.919z"/>
	</g>
	<g>
		<path opacity="0.52" fill="#D22927" d="M13.712,39.026c0.225-0.387,0.721-0.52,1.108-0.293c0.387,0.225,0.519,0.721,0.293,1.107
			c-0.225,0.387-1.38,0.762-1.38,0.762S13.487,39.413,13.712,39.026z"/>
		<path fill="#C44127" d="M13.986,39.272c0.121-0.209,0.39-0.279,0.598-0.158c0.209,0.121,0.28,0.389,0.159,0.598
			c-0.122,0.209-0.744,0.41-0.744,0.41S13.865,39.481,13.986,39.272z"/>
		<path opacity="0.18" fill="#FFFFFF" d="M14.303,39.511c0.044-0.076,0.141-0.102,0.216-0.057c0.076,0.043,0.102,0.141,0.058,0.215
			c-0.044,0.076-0.269,0.148-0.269,0.148S14.259,39.585,14.303,39.511z"/>
	</g>
	<g>
		<path opacity="0.52" fill="#D22927" d="M13.871,41.808c0.225-0.387,0.722-0.518,1.108-0.293c0.388,0.225,0.519,0.721,0.294,1.107
			c-0.225,0.389-1.38,0.762-1.38,0.762S13.646,42.196,13.871,41.808z"/>
		<path fill="#C44127" d="M14.145,42.054c0.121-0.209,0.389-0.279,0.598-0.158c0.208,0.121,0.279,0.389,0.158,0.598
			s-0.744,0.41-0.744,0.41S14.023,42.263,14.145,42.054z"/>
		<path opacity="0.18" fill="#FFFFFF" d="M14.461,42.292c0.044-0.076,0.141-0.102,0.217-0.057c0.075,0.043,0.101,0.141,0.057,0.215
			c-0.043,0.076-0.269,0.148-0.269,0.148S14.417,42.368,14.461,42.292z"/>
	</g>
	<g>
		<path opacity="0.52" fill="#D22927" d="M14.654,44.575c0.226-0.389,0.722-0.52,1.108-0.295c0.388,0.225,0.52,0.721,0.294,1.109
			c-0.225,0.387-1.38,0.76-1.38,0.76S14.429,44.962,14.654,44.575z"/>
		<path fill="#C44127" d="M14.928,44.819c0.121-0.209,0.389-0.279,0.598-0.158s0.279,0.389,0.158,0.598s-0.744,0.41-0.744,0.41
			S14.807,45.028,14.928,44.819z"/>
		<path opacity="0.18" fill="#FFFFFF" d="M15.246,45.058c0.044-0.074,0.141-0.1,0.216-0.057c0.076,0.045,0.102,0.141,0.058,0.217
			c-0.044,0.074-0.27,0.148-0.27,0.148S15.202,45.134,15.246,45.058z"/>
	</g>
	<g>
		<path opacity="0.52" fill="#D22927" d="M9.707,43.634c0.225-0.387,0.722-0.52,1.108-0.293c0.388,0.225,0.519,0.721,0.294,1.107
			s-1.38,0.762-1.38,0.762S9.482,44.021,9.707,43.634z"/>
		<path fill="#C44127" d="M9.981,43.88c0.121-0.209,0.389-0.279,0.598-0.158s0.279,0.389,0.158,0.598s-0.744,0.41-0.744,0.41
			S9.859,44.089,9.981,43.88z"/>
		<path opacity="0.18" fill="#FFFFFF" d="M10.297,44.118c0.044-0.076,0.142-0.102,0.217-0.059c0.075,0.045,0.102,0.143,0.058,0.217
			c-0.044,0.076-0.27,0.148-0.27,0.148S10.254,44.194,10.297,44.118z"/>
	</g>
	<g>
		<path opacity="0.52" fill="#D22927" d="M9.135,47.325c0.225-0.387,0.722-0.518,1.108-0.293c0.388,0.225,0.519,0.721,0.294,1.109
			c-0.225,0.387-1.38,0.76-1.38,0.76S8.911,47.714,9.135,47.325z"/>
		<path fill="#C44127" d="M9.41,47.571c0.121-0.209,0.389-0.279,0.598-0.158c0.208,0.121,0.279,0.389,0.158,0.598
			s-0.744,0.41-0.744,0.41S9.288,47.78,9.41,47.571z"/>
		<path opacity="0.18" fill="#FFFFFF" d="M9.726,47.81c0.044-0.074,0.142-0.102,0.217-0.057c0.075,0.043,0.101,0.141,0.058,0.217
			c-0.044,0.074-0.27,0.148-0.27,0.148S9.683,47.886,9.726,47.81z"/>
	</g>
	<g>
		<path opacity="0.52" fill="#D22927" d="M18,42.522c0.308-0.324,0.82-0.34,1.146-0.033s0.341,0.82,0.034,1.146
			s-1.517,0.428-1.517,0.428S17.694,42.849,18,42.522z"/>
		<path fill="#C44127" d="M18.211,42.825c0.166-0.176,0.442-0.184,0.618-0.02c0.176,0.166,0.185,0.443,0.019,0.619
			c-0.165,0.176-0.817,0.23-0.817,0.23S18.046,43.001,18.211,42.825z"/>
		<path opacity="0.17" fill="#FFFFFF" d="M18.466,43.13c0.06-0.064,0.16-0.066,0.224-0.008c0.063,0.061,0.066,0.16,0.007,0.225
			c-0.06,0.063-0.296,0.082-0.296,0.082S18.407,43.192,18.466,43.13z"/>
	</g>
	<g>
		<path opacity="0.52" fill="#D22927" d="M20.96,40.839c0.308-0.326,0.82-0.342,1.146-0.035c0.326,0.309,0.342,0.82,0.034,1.146
			c-0.307,0.326-1.517,0.428-1.517,0.428S20.654,41.165,20.96,40.839z"/>
		<path fill="#C44127" d="M21.171,41.14c0.166-0.176,0.442-0.184,0.618-0.018s0.185,0.441,0.019,0.617
			c-0.165,0.176-0.817,0.232-0.817,0.232S21.006,41.315,21.171,41.14z"/>
		<path opacity="0.17" fill="#FFFFFF" d="M21.426,41.444c0.061-0.063,0.16-0.066,0.224-0.006c0.064,0.059,0.067,0.16,0.007,0.223
			c-0.06,0.064-0.296,0.084-0.296,0.084S21.367,41.509,21.426,41.444z"/>
	</g>
	<g>
		<path opacity="0.52" fill="#D22927" d="M3.806,37.042c0.102-0.395,0.44-0.648,0.756-0.566s0.489,0.467,0.388,0.861
			c-0.103,0.395-0.879,1.041-0.879,1.041S3.705,37.435,3.806,37.042z"/>
		<path fill="#C44127" d="M4.043,37.173c0.055-0.213,0.237-0.35,0.407-0.305c0.17,0.043,0.264,0.252,0.209,0.465
			c-0.055,0.211-0.474,0.561-0.474,0.561S3.989,37.386,4.043,37.173z"/>
		<path opacity="0.18" fill="#FFFFFF" d="M4.31,37.286c0.021-0.078,0.086-0.127,0.147-0.111s0.096,0.092,0.076,0.168
			c-0.021,0.078-0.172,0.203-0.172,0.203S4.291,37.362,4.31,37.286z"/>
	</g>
	<g>
		<path opacity="0.52" fill="#D22927" d="M15.951,47.208c0.346-0.291,0.811-0.309,1.037-0.039s0.13,0.725-0.217,1.016
			s-1.455,0.391-1.455,0.391S15.604,47.501,15.951,47.208z"/>
		<path fill="#C44127" d="M16.075,47.474c0.187-0.156,0.438-0.166,0.56-0.021c0.122,0.146,0.069,0.391-0.117,0.549
			c-0.187,0.156-0.784,0.211-0.784,0.211S15.888,47.632,16.075,47.474z"/>
		<path opacity="0.18" fill="#FFFFFF" d="M16.238,47.741c0.067-0.057,0.158-0.061,0.203-0.008c0.044,0.053,0.024,0.141-0.043,0.199
			c-0.067,0.057-0.284,0.076-0.284,0.076S16.17,47.798,16.238,47.741z"/>
	</g>
	<g>
		<path fill="#FFFFFF" d="M30.24,17.136c-0.28,0.709-0.469,1.444-0.735,2.156c-0.322,0.858-0.828,1.729-0.633,2.668
			c0.198,0.951,1.285,1.67,2.225,1.166c2.08-1.113,1.935-4.682,0.369-6.197C31.083,16.558,30.454,16.597,30.24,17.136L30.24,17.136z
			"/>
	</g>
	<g>
		<path fill="#FFFFFF" d="M29.469,14.979c1.166-0.198,0.86-2.011-0.309-1.813C27.995,13.364,28.3,15.177,29.469,14.979
			L29.469,14.979z"/>
	</g>
</g>
</svg>
